<svg width="20" height="26" viewBox="0 0 20 26" fill="none" xmlns="http://www.w3.org/2000/svg">
<g clip-path="url(#clip0_684_7695)">
<path d="M19.9986 0.5L15.6144 10.0424C15.4624 9.66071 15.1955 9.3345 14.85 9.10798C14.5045 8.88145 14.0971 8.76556 13.6828 8.776C13.1986 8.776 12.9933 8.86981 12.2512 8.92193C12.0881 8.85939 11.7249 8.49458 11.3828 8.27569L13.1565 0.5H19.9986Z" fill="#E40022"/>
<path d="M8.63158 8.27569C8.32632 8.48416 7.90526 8.86981 7.77895 8.91672C7.22105 8.91672 6.9 8.776 6.33158 8.776C5.91499 8.76382 5.5047 8.87879 5.15635 9.10534C4.80799 9.33188 4.53843 9.65903 4.38421 10.0424L0 0.5H6.84211L8.63158 8.27569Z" fill="#E40022"/>
<path d="M17.3097 19.1052C17.4834 18.4486 18.4202 17.8701 18.4202 17.1769C18.4202 16.4838 17.4834 15.8949 17.3097 15.2382C17.136 14.5816 17.6413 13.6018 17.3097 13.0077C16.9781 12.4135 15.8571 12.3718 15.3623 11.8819C14.8676 11.3921 14.836 10.3185 14.2255 9.95887C13.615 9.59927 12.6465 10.1204 11.9729 9.95887C11.2992 9.79731 10.715 8.83838 9.99918 8.83838C9.28339 8.83838 8.69918 9.76604 8.04128 9.94324C7.38339 10.1204 6.38339 9.61491 5.78865 9.94324C5.19391 10.2716 5.14128 11.3816 4.65181 11.8663C4.16234 12.351 3.07286 12.3875 2.70444 12.992C2.33602 13.5966 2.87286 14.5555 2.70444 15.2226C2.53602 15.8897 1.57812 16.4525 1.57812 17.1769C1.57812 17.9013 2.51497 18.4642 2.68865 19.1208C2.86234 19.7775 2.35707 20.7573 2.68865 21.3514C3.02023 21.9455 4.14128 21.9872 4.63602 22.4771C5.13076 22.967 5.16234 24.0406 5.77286 24.4002C6.38339 24.7598 7.35181 24.2334 8.02549 24.4002C8.69918 24.567 9.28339 25.5155 9.99918 25.5155C10.715 25.5155 11.2992 24.593 11.9571 24.4158C12.615 24.2386 13.615 24.7442 14.2097 24.4158C14.8044 24.0875 14.8571 22.9774 15.3465 22.4927C15.836 22.0081 16.9255 21.9716 17.2939 21.367C17.6623 20.7625 17.1255 19.7827 17.3097 19.1052ZM9.99918 22.3885C8.95822 22.3885 7.94065 22.0829 7.07512 21.5102C6.2096 20.9375 5.53501 20.1236 5.13665 19.1713C4.7383 18.219 4.63407 17.1711 4.83715 16.1602C5.04023 15.1492 5.5415 14.2206 6.27756 13.4918C7.01363 12.7629 7.95143 12.2666 8.97239 12.0655C9.99334 11.8644 11.0516 11.9676 12.0133 12.362C12.975 12.7565 13.797 13.4245 14.3753 14.2815C14.9537 15.1386 15.2623 16.1462 15.2623 17.1769C15.2623 17.8613 15.1262 18.539 14.8617 19.1713C14.5972 19.8036 14.2095 20.3781 13.7208 20.8621C13.2321 21.346 12.6519 21.7299 12.0133 21.9918C11.3747 22.2537 10.6903 22.3885 9.99918 22.3885Z" fill="#E40022"/>
<path d="M9.99959 21.3307C12.325 21.3307 14.2101 19.4641 14.2101 17.1615C14.2101 14.8588 12.325 12.9922 9.99959 12.9922C7.67418 12.9922 5.78906 14.8588 5.78906 17.1615C5.78906 19.4641 7.67418 21.3307 9.99959 21.3307Z" fill="#E40022"/>
</g>
<defs>
<clipPath id="clip0_684_7695">
<rect width="20" height="25" fill="white" transform="translate(0 0.5)"/>
</clipPath>
</defs>
</svg>
