<svg width="18" height="18" viewBox="0 0 18 18" fill="none" xmlns="http://www.w3.org/2000/svg">
<g filter="url(#filter0_b_852_7684)">
<rect x="0.820312" y="0.844238" width="16.301" height="16.301" rx="8.1505" fill="#E40022"/>
<path d="M7.51987 10.7491L5.94864 9.17785C5.86404 9.09306 5.74918 9.04541 5.62941 9.04541C5.50963 9.04541 5.39478 9.09306 5.31018 9.17785C5.13359 9.35445 5.13359 9.63972 5.31018 9.81631L7.20291 11.709C7.3795 11.8856 7.66477 11.8856 7.84136 11.709L12.632 6.91836C12.8086 6.74176 12.8086 6.45649 12.632 6.2799C12.5474 6.19511 12.4326 6.14746 12.3128 6.14746C12.193 6.14746 12.0782 6.19511 11.9936 6.2799L7.51987 10.7491Z" fill="#F8F7F2"/>
</g>
<defs>
<filter id="filter0_b_852_7684" x="-26.348" y="-26.3241" width="70.6374" height="70.6374" filterUnits="userSpaceOnUse" color-interpolation-filters="sRGB">
<feFlood flood-opacity="0" result="BackgroundImageFix"/>
<feGaussianBlur in="BackgroundImageFix" stdDeviation="13.5842"/>
<feComposite in2="SourceAlpha" operator="in" result="effect1_backgroundBlur_852_7684"/>
<feBlend mode="normal" in="SourceGraphic" in2="effect1_backgroundBlur_852_7684" result="shape"/>
</filter>
</defs>
</svg>
