<svg width="16" height="21" viewBox="0 0 16 21" fill="none" xmlns="http://www.w3.org/2000/svg">
<g clip-path="url(#clip0_684_8355)">
<rect x="15.1992" y="16.7217" width="12" height="10.8333" transform="rotate(-180 15.1992 16.7217)" fill="#666666"/>
<path d="M6.38811 18.3887L11.2134 18.3887C14.2993 18.3887 16.8008 15.7829 16.8008 12.5686L16.8008 7.54212C16.8008 4.32779 14.2993 1.72201 11.2134 1.72201L6.38811 1.72201C3.30233 1.72201 0.800781 4.32779 0.80078 7.54212L0.80078 12.5686C0.80078 15.7829 3.30233 18.3887 6.38811 18.3887ZM11.243 7.14267C11.243 6.9162 11.4059 6.73257 11.6067 6.73257L13.1905 6.73257C13.3914 6.73257 13.5541 6.9162 13.5541 7.14267L13.5541 11.5075C13.5541 11.7339 13.3914 11.9175 13.1905 11.9175L11.6067 11.9175C11.4059 11.9175 11.243 11.7339 11.243 11.5075L11.243 7.14267ZM4.20142 9.82342C4.20142 9.82342 4.21232 9.09236 4.7399 9.19154C4.7399 9.19154 4.39926 8.96848 4.44307 8.48522C4.44307 8.48522 4.43217 7.80373 5.11349 7.90284C4.80605 7.79131 4.89364 7.28331 4.89364 7.28331C4.91555 6.63897 5.61892 6.73808 5.61892 6.73808L10.3879 6.73808C10.3879 6.73808 10.9591 6.83722 10.9591 7.35765L10.9591 11.4213C10.9591 11.4213 10.9679 11.9284 10.6163 12.2382L9.02538 13.9497L9.02538 15.2384C9.02538 15.2384 8.98128 15.7836 8.34395 15.5357C8.34395 15.5357 6.75073 14.5783 8.20097 12.1406L4.71785 12.1406C4.71785 12.1406 4.0433 12.1158 4.04757 11.3476C4.04757 11.3476 4.0433 10.5546 4.69594 10.5174C4.69594 10.5174 4.17937 10.4678 4.20142 9.82342Z" fill="#F8F7F2"/>
</g>
<defs>
<clipPath id="clip0_684_8355">
<rect width="16" height="20" fill="white" transform="translate(16 20.8887) rotate(-180)"/>
</clipPath>
</defs>
</svg>
