<svg width="48" height="49" viewBox="0 0 48 49" fill="none" xmlns="http://www.w3.org/2000/svg">
<rect y="0.470459" width="48" height="48" rx="24" fill="#EEE8E4"/>
<rect y="0.470459" width="48" height="48" rx="24" stroke="#E40022"/>
<path d="M25.3128 33.6653L22.0025 33.6653C21.774 33.6653 21.5887 33.8506 21.5887 34.0791C21.5887 34.3076 21.774 34.4929 22.0025 34.4929L25.3128 34.4929C25.5413 34.4929 25.7266 34.3076 25.7266 34.0791C25.7266 33.8506 25.5413 33.6653 25.3128 33.6653Z" fill="#E40022"/>
<path d="M21.5887 32.424C21.5887 32.6525 21.774 32.8378 22.0025 32.8378L25.3128 32.8378C25.5413 32.8378 25.7266 32.6525 25.7266 32.424L25.7266 32.0102L21.5887 32.0102L21.5887 32.424Z" fill="#E40022"/>
<path d="M26.5542 30.7686L26.5542 29.7982C26.5611 29.1795 26.846 28.5966 27.3301 28.2113C29.2592 26.6259 29.9554 23.9828 29.0575 21.6529C28.1597 19.3229 25.8697 17.8304 23.3757 17.9496C20.3184 18.1315 17.917 20.637 17.8648 23.6992C17.8505 25.4608 18.6431 27.132 20.0166 28.2354C20.4962 28.6316 20.7702 29.2242 20.7613 29.8463L20.7613 30.7686C20.7613 30.9971 20.9466 31.1824 21.1751 31.1824L26.1405 31.1824C26.369 31.1824 26.5542 30.9971 26.5542 30.7686Z" fill="#E40022"/>
<path d="M23.6565 16.2865C23.885 16.2865 24.0703 16.1012 24.0703 15.8727L24.0703 14.2176C24.0703 13.9891 23.885 13.8038 23.6565 13.8038C23.428 13.8038 23.2427 13.9891 23.2427 14.2176L23.2427 15.8727C23.2427 16.1012 23.428 16.2865 23.6565 16.2865Z" fill="#E40022"/>
<path d="M28.2085 17.748C28.4065 17.8623 28.6597 17.7942 28.7738 17.5962L29.6014 16.1634C29.6765 16.0353 29.6771 15.8767 29.6032 15.748C29.5292 15.6193 29.3921 15.5399 29.2436 15.5403C29.0951 15.5405 28.9581 15.6205 28.8847 15.7496L28.0572 17.1825C28.0022 17.2774 27.9873 17.3906 28.0155 17.4966C28.044 17.6027 28.1133 17.6932 28.2085 17.748Z" fill="#E40022"/>
<path d="M18.2168 17.5944C18.2901 17.7235 18.4271 17.8033 18.5756 17.8037C18.7241 17.8039 18.8613 17.7247 18.9352 17.596C19.0092 17.4671 19.0086 17.3087 18.9334 17.1806L18.1058 15.7478C18.0325 15.6187 17.8955 15.5386 17.747 15.5384C17.5985 15.538 17.4613 15.6174 17.3874 15.7461C17.3134 15.8748 17.314 16.0334 17.3892 16.1615L18.2168 17.5944Z" fill="#E40022"/>
</svg>
