<svg width="40" height="41" viewBox="0 0 40 41" fill="none" xmlns="http://www.w3.org/2000/svg">
<rect y="0.888672" width="40" height="40" rx="12" fill="#EEE8E4"/>
<g clip-path="url(#clip0_684_8426)">
<path d="M20 12.8887C15.5818 12.8887 12 16.4704 12 20.8887C12 24.6404 14.583 27.7885 18.0675 28.6532V23.3335H16.4179V20.8887H18.0675V19.8352C18.0675 17.1124 19.2998 15.8503 21.9731 15.8503C22.48 15.8503 23.3546 15.9498 23.7123 16.049V18.265C23.5235 18.2452 23.1955 18.2352 22.7882 18.2352C21.4765 18.2352 20.9696 18.7322 20.9696 20.024V20.8887H23.5827L23.1338 23.3335H20.9696V28.8301C24.9309 28.3517 28.0003 24.9789 28.0003 20.8887C28 16.4704 24.4182 12.8887 20 12.8887Z" fill="#E40022"/>
</g>
<defs>
<clipPath id="clip0_684_8426">
<rect width="16" height="16" fill="white" transform="translate(12 12.8887)"/>
</clipPath>
</defs>
</svg>
