<svg width="143" height="40" viewBox="0 0 143 40" fill="none" xmlns="http://www.w3.org/2000/svg">
<path d="M80.9439 13.6443C80.9439 9.45545 81.0149 5.55545 81.2279 1.94434L70.3649 4.03878V5.04989L71.4299 5.19434C72.2109 5.26656 72.7079 5.55545 72.9919 5.98878C73.2759 6.49434 73.4889 7.21656 73.6309 8.29989C73.7729 10.3943 73.9149 15.161 73.8439 22.6721C73.8439 30.111 73.7729 34.8054 73.6309 36.611C77.5359 37.4777 80.5889 37.8388 82.8609 37.8388C87.1209 37.8388 90.4579 36.611 92.8719 34.0832C95.2859 31.6277 96.5639 28.161 96.5639 23.8999C96.5639 20.5054 95.6409 17.6888 93.7949 15.4499C91.9489 13.211 89.6059 12.1277 86.8369 12.1277C84.9909 12.1277 83.0739 12.6332 80.9439 13.6443ZM81.1569 35.8888C81.0149 33.5777 80.8729 26.6443 80.8729 15.3054C81.5119 15.0888 82.3639 14.9443 83.4289 14.9443C85.1329 14.9443 86.4819 15.811 87.4759 17.6166C88.4699 19.4221 88.9669 21.5888 88.9669 24.3332C88.9669 27.7277 88.3989 30.4721 87.2629 32.7832C86.1269 35.0221 84.7069 36.1777 82.9319 36.1777C82.3639 36.0332 81.7959 35.961 81.1569 35.8888ZM29.6109 2.66656H1.21094V4.111L2.70194 4.25545C3.83794 4.47211 4.61894 4.90545 5.11594 5.55545C5.61294 6.27767 5.89694 7.43322 5.96794 9.02211C6.53594 16.8221 6.53594 24.1166 5.96794 30.8332C5.82594 32.4221 5.54194 33.5777 5.11594 34.2999C4.61894 35.0221 3.83794 35.4554 2.70194 35.5999L1.21094 35.8166V37.261H19.5289V35.8166L17.6119 35.6721C17.1442 35.6323 16.6891 35.4966 16.2743 35.2732C15.8594 35.0498 15.4933 34.7433 15.1979 34.3721C14.7009 33.6499 14.4169 32.4943 14.3459 30.9054C14.1329 28.0166 13.9909 24.6943 13.9909 21.011L17.8249 21.0832C19.8839 21.1554 21.3039 22.7443 22.0139 25.9221H23.4339V14.1499H22.0139C21.3039 17.2554 19.9549 18.8443 17.8249 18.9166L13.9909 18.9888C13.9909 12.4888 14.1329 7.86656 14.3459 5.04989H19.9549C23.9309 5.04989 26.6289 7.64989 28.1909 12.8499L29.8949 12.3443L29.6109 2.66656ZM26.2739 24.911C26.2739 28.6666 27.3389 31.7721 29.3979 34.2277C31.4569 36.6832 34.5099 37.8388 38.3439 37.8388C42.1779 37.8388 45.3019 36.611 47.5739 34.0832C49.8459 31.6277 50.9109 28.5221 50.9109 24.7666C50.9109 21.011 49.8459 17.9054 47.7869 15.4499C45.7279 12.9943 42.6749 11.8388 38.8409 11.8388C35.0069 11.8388 31.8829 13.0666 29.6109 15.5943C27.3389 18.0499 26.2739 21.1554 26.2739 24.911ZM42.1069 16.6777C42.9589 18.7721 43.3139 21.5166 43.3139 24.8388C43.3139 32.4943 41.7519 36.2499 38.6989 36.2499C37.1369 36.2499 35.9299 35.1666 35.0779 32.9999C34.2259 30.8332 33.8709 28.0888 33.8709 24.8388C33.8709 17.2554 35.4329 13.4999 38.4859 13.4999C40.0479 13.4277 41.2549 14.511 42.1069 16.6777ZM102.102 34.2277C104.445 36.611 107.427 37.8388 110.977 37.8388C113.178 37.8388 115.095 37.4054 116.799 36.4666C118.503 35.5999 119.852 34.5166 120.775 33.2166L120.065 32.3499C118.503 33.5777 116.728 34.1554 114.669 34.1554C111.829 34.1554 109.628 33.2166 108.137 31.2666C106.575 29.3166 105.865 26.861 106.007 23.6832H121.201C121.201 20.2166 120.349 17.3999 118.574 15.161C116.799 12.9943 114.314 11.911 111.119 11.911C107.143 11.911 104.09 13.211 101.889 15.7388C99.6879 18.2666 98.6229 21.3721 98.6229 25.0554C98.6229 28.811 99.7589 31.8443 102.102 34.2277ZM107.356 16.0999C108.137 14.3666 109.131 13.4999 110.48 13.4999C112.61 13.4999 113.675 16.2443 113.675 21.8054L106.149 21.9499C106.22 19.7832 106.575 17.8332 107.356 16.0999ZM140.3 13.211C138.383 12.3443 135.969 11.8388 133.058 11.8388C130.076 11.8388 127.733 12.6332 125.958 14.1499C124.183 15.6666 123.26 17.5443 123.26 19.7832C123.26 21.7332 123.828 23.2499 124.893 24.3332C125.958 25.4166 127.662 26.3554 129.863 27.1499C131.851 27.8721 133.271 28.5943 133.981 29.2443C134.691 29.9666 135.117 30.761 135.117 31.8443C135.117 32.8554 134.762 33.7943 133.981 34.5166C133.271 35.311 132.277 35.6721 130.999 35.6721C127.875 35.6721 125.532 33.361 123.899 28.7388L122.692 29.0999L122.976 36.3221C125.532 37.3332 128.372 37.8388 131.496 37.8388C134.762 37.8388 137.247 37.1166 139.093 35.5999C140.939 34.1554 141.862 32.061 141.862 29.461C141.862 27.7277 141.436 26.2832 140.513 25.1999C139.59 24.1166 138.099 23.1777 135.969 22.311C133.626 21.4443 131.993 20.6499 131.141 19.9277C130.289 19.2054 129.863 18.3388 129.863 17.2554C129.863 16.1721 130.147 15.3054 130.786 14.5832C131.425 13.861 132.206 13.5721 133.2 13.5721C136.04 13.5721 138.099 15.6666 139.377 19.7832L140.584 19.4221L140.3 13.211ZM71.9979 12.561C71.0039 12.0554 69.9389 11.8388 68.7319 11.8388C67.5249 11.8388 66.3179 12.3443 64.9689 13.3554C63.6199 14.3666 62.6259 15.7388 61.8449 17.6166L61.9159 11.8388L51.1239 14.0054V15.0166L52.1889 15.0888C53.5379 15.2332 54.3189 16.3166 54.4609 18.2666C54.8869 22.7443 54.8869 27.511 54.4609 32.5666C54.3189 34.5166 53.5379 35.5277 52.1889 35.7443L51.1239 35.8888V37.261H66.1759V35.8888L64.2589 35.7443C62.9099 35.5999 62.1289 34.5166 61.9869 32.5666C61.5609 28.3777 61.4899 23.8999 61.8449 19.2777C62.2709 18.5554 63.1939 18.1221 64.6139 17.9777C66.0339 17.8332 67.6669 18.2666 69.3709 19.2777L71.9979 12.561Z" fill="#ACA09A"/>
</svg>
