<svg width="145" height="146" viewBox="0 0 145 146" fill="none" xmlns="http://www.w3.org/2000/svg">
<g clip-path="url(#clip0_684_7931)">
<path d="M25.7817 87.9791C25.6997 88.1672 25.6343 88.3552 25.5855 88.554L22.2439 85.1708L26.9882 85.1493L25.7817 87.9791Z" fill="#F8F7F2"/>
<path d="M22.2439 85.1708L26.9882 85.1493L25.7817 87.9791C25.6997 88.1672 25.6343 88.3552 25.5855 88.554L22.2439 85.1708Z" fill="#F8F7F2"/>
<path d="M20.6993 85.1769L25.0047 89.5384L6.17751 89.622L13.2027 77.885L6.07307 66.2107L19.9743 66.1489L20.0563 84.5293L20.6993 85.1769Z" fill="#F8F7F2"/>
<path d="M115.827 86.5674L115.035 84.756L118.925 84.7384L116.135 87.6089C116.079 87.2559 115.972 86.9034 115.827 86.5674Z" fill="#F8F7F2"/>
<path d="M118.925 84.7384L116.135 87.6089C116.079 87.2559 115.972 86.9034 115.827 86.5674L115.035 84.756L118.925 84.7384Z" fill="#F8F7F2"/>
<path d="M127.898 77.3739L135.028 89.0482L116.201 89.1317L120.468 84.733L121.11 84.0737L121.028 65.6986L134.924 65.6362L127.898 77.3739Z" fill="#F8F7F2"/>
<path d="M70.6347 96.3568C61.9851 96.3955 54.3579 91.8669 50.0467 85.0458L48.1158 85.0549C52.6132 92.8293 61.0382 98.0545 70.6421 98.0117C80.2464 97.969 88.619 92.6688 93.0466 84.8545L91.1162 84.863C86.8657 91.7219 79.2842 96.318 70.6347 96.3568ZM70.4188 47.9399C79.0684 47.9012 86.6903 52.4236 91.0016 59.2448L92.932 59.2363C88.435 51.4668 80.0155 46.2415 70.4117 46.2843C60.8073 46.3277 52.4296 51.6273 48.0014 59.4367L49.9325 59.4277C54.188 52.5685 61.7693 47.9779 70.4188 47.9399Z" fill="#F8F7F2"/>
<path d="M35.4906 59.4927C40.6621 45.2211 54.3249 34.9709 70.3608 34.8996C86.3971 34.8276 100.151 44.9553 105.449 59.1808L112.857 59.148L114.256 55.8813C115.014 54.1018 114.156 52.0479 112.354 51.344L106.822 49.1729C105.496 48.6553 104.63 47.3682 104.645 45.9451L104.704 40.3838C104.723 38.4477 103.143 36.8826 101.213 36.9187L95.2717 37.0338C93.8431 37.0619 92.5543 36.2126 92.0186 34.8908L89.9433 29.726C89.2293 27.9249 87.1678 27.0849 85.3951 27.8595L79.9498 30.2393C78.6449 30.8135 77.1267 30.5165 76.1237 29.5006L72.2333 25.5186C70.8811 24.1398 68.6579 24.15 67.3128 25.5403L63.1943 29.829C62.2116 30.8538 60.6904 31.1638 59.3803 30.6018L54.2625 28.4177C52.4828 27.6586 50.429 28.5175 49.7254 30.3192L47.5546 35.8505C47.0363 37.1772 45.7549 38.0433 44.3316 38.0273L38.7652 37.9698C36.8344 37.9506 35.2635 39.5302 35.3054 41.466L35.4201 47.4014C35.4484 48.8301 34.5937 50.1245 33.272 50.6547L28.107 52.7298C26.3118 53.4494 25.4715 55.505 26.2406 57.2836L27.2214 59.5302L35.4906 59.4927ZM114.814 87.0083L113.833 84.7622L105.564 84.799C100.392 99.0714 86.7295 109.321 70.6934 109.393C54.6572 109.464 40.9035 99.3364 35.605 85.1108L28.1963 85.1443L26.7988 88.4106C26.6459 88.7702 26.5592 89.1402 26.5333 89.5097L26.5334 89.5317C26.4819 90.2874 26.689 91.0317 27.1 91.6531C27.4721 92.2197 28.0205 92.6801 28.7001 92.9477L34.2373 95.1186C35.5635 95.6371 36.4245 96.9236 36.4087 98.3472L36.3562 103.908C36.3319 105.844 37.9163 107.41 39.8471 107.373L45.7823 107.259C47.2111 107.23 48.5056 108.079 49.0357 109.401L51.1107 114.566C51.8305 116.367 53.8864 117.207 55.6645 116.432L61.1098 114.052C62.4092 113.478 63.9329 113.775 64.9305 114.791L68.8266 118.768C70.1731 120.152 72.4017 120.142 73.7416 118.746L77.8594 114.463C78.8426 113.439 80.3691 113.128 81.6794 113.691L86.7915 115.874C88.5769 116.633 90.6256 115.774 91.3285 113.973L93.4995 108.441C94.0178 107.115 95.3045 106.248 96.728 106.264L102.289 106.323C104.225 106.341 105.791 104.762 105.754 102.826L105.639 96.8909C105.611 95.4623 106.466 94.1673 107.787 93.6375L112.947 91.562C113.245 91.4451 113.514 91.2897 113.751 91.1066C114.399 90.6123 114.843 89.9099 115.016 89.1368C115.049 88.9932 115.07 88.8443 115.086 88.6953L115.086 88.6898C115.138 88.1325 115.053 87.5592 114.814 87.0083Z" fill="#F8F7F2"/>
<path d="M70.4317 50.7155L71.2864 53.3062L74.0144 53.2942L71.8144 54.9077L72.6691 57.4985L70.4549 55.9046L68.2549 57.5182L69.0864 54.9198L66.8723 53.326L69.6003 53.3139L70.4317 50.7155Z" fill="#F8F7F2"/>
<path d="M61.0883 53.4066L61.6596 55.1394L63.484 55.1314L62.0131 56.2098L62.5845 57.9426L61.1037 56.877L59.6325 57.9561L60.1885 56.2185L58.708 55.1523L60.5323 55.1442L61.0883 53.4066Z" fill="#F8F7F2"/>
<path d="M79.7973 53.3226L79.2414 55.0603L77.417 55.0683L78.8975 56.1345L78.3415 57.8721L79.8124 56.7929L81.2936 57.8587L80.7221 56.1266L82.1933 55.0476L80.3685 55.0554L79.7973 53.3226Z" fill="#F8F7F2"/>
<path d="M70.621 93.5741L71.4526 90.9765L74.1808 90.9638L71.9662 89.3705L72.7981 86.7723L70.5983 88.3852L68.3837 86.7919L69.2382 89.3826L67.0382 90.9961L69.7665 90.9834L70.621 93.5741Z" fill="#F8F7F2"/>
<path d="M61.2551 90.9662L61.8113 89.2287L63.6354 89.2206L62.1547 88.155L62.7107 86.4174L61.2395 87.4965L59.759 86.4302L60.3304 88.163L58.8591 89.2421L60.6835 89.2341L61.2551 90.9662Z" fill="#F8F7F2"/>
<path d="M79.9637 90.884L79.3924 89.1512L77.5683 89.1593L79.0395 88.0803L78.468 86.3482L79.9485 87.4137L81.4197 86.3346L80.8637 88.0722L82.3449 89.1379L80.5198 89.1464L79.9637 90.884Z" fill="#F8F7F2"/>
<path d="M66.8393 67.1989L65.8058 67.2036L65.8244 71.396L66.6629 71.3922C67.4623 71.3886 67.9482 71.0354 67.9434 69.9434L67.9376 68.598C67.9331 67.6233 67.5998 67.1955 66.8393 67.1989Z" fill="#F8F7F2"/>
<path d="M106.767 67.0209L105.557 67.0267L105.601 76.7758L106.81 76.77C107.492 76.7677 107.9 76.4148 107.896 75.4395L107.865 68.342C107.86 67.3671 107.449 67.0185 106.767 67.0209Z" fill="#F8F7F2"/>
<path d="M110.04 75.3321C110.05 77.5159 109.002 78.71 106.857 78.7193L103.465 78.7347L103.403 65.0858L106.797 65.0707C108.941 65.0614 110 66.2457 110.009 68.4296L110.04 75.3321ZM101.536 78.7431L99.3323 78.7528L96.6171 68.8797L96.6609 78.7649L94.7305 78.7734L94.6699 65.1248L97.3608 65.113L99.6004 73.2729L99.5638 65.103L101.475 65.0942L101.536 78.7431ZM92.8842 75.5252C92.8942 77.7093 91.8078 78.9618 89.7017 78.9714C87.5965 78.9807 86.4981 77.7379 86.4888 75.5541L86.4425 65.1617L88.5873 65.1517L88.6344 75.6812C88.6386 76.6558 89.0694 77.0049 89.7513 77.0017C90.4339 76.9987 90.8611 76.6461 90.8571 75.6708L90.8097 65.142L92.8379 65.1328L92.8842 75.5252ZM85.1258 67.1171L81.597 67.133L81.6151 71.2466L84.384 71.2343L84.3929 73.1845L81.6239 73.1968L81.6495 78.8317L79.504 78.8414L79.4434 65.1928L85.1176 65.1672L85.1258 67.1171ZM77.7369 67.1502L74.0324 67.1665L74.0491 70.9683L76.9935 70.9556L77.0023 72.9058L74.058 72.9185L74.076 76.9158L77.7802 76.8994L77.7893 78.8489L71.9397 78.875L71.8789 65.2263L77.7287 65.2003L77.7369 67.1502ZM68.197 78.8918C68.0784 78.5413 67.9994 78.3274 67.9945 77.2158L67.9849 75.0712C67.9794 73.8037 67.5483 73.3374 66.5732 73.3422L65.8324 73.3452L65.8573 78.902L63.7123 78.9119L63.6514 65.2631L66.8883 65.2486C69.1109 65.2389 70.0711 66.2676 70.0805 68.3736L70.0853 69.4459C70.0916 70.8497 69.6469 71.7686 68.6936 72.2211C69.7681 72.6649 70.1236 73.6968 70.1299 75.1202L70.1395 77.2256C70.1425 77.8885 70.1641 78.3761 70.3806 78.8824L68.197 78.8918ZM58.9756 78.9327L53.3015 78.9583L53.2405 65.3096L55.3856 65.2997L55.4376 76.999L58.9667 76.9832L58.9756 78.9327ZM51.9767 78.9646L46.3029 78.9896L46.2419 65.3409L48.3869 65.331L48.439 77.0303L51.9682 77.0146L51.9767 78.9646ZM44.4369 75.7418C44.4468 77.925 43.3602 79.1783 41.2546 79.1873C39.1486 79.197 38.0512 77.9539 38.0415 75.7699L37.995 65.3775L40.1397 65.3682L40.1869 75.897C40.1911 76.8723 40.6216 77.2213 41.304 77.2183C41.9865 77.2153 42.414 76.862 42.4096 75.8873L42.3627 65.358L44.3904 65.3493L44.4369 75.7418ZM36.6789 67.3331L33.1496 67.3488L33.1679 71.4632L35.9366 71.4509L35.9453 73.401L33.1765 73.4133L33.2017 79.0481L31.057 79.0573L30.9961 65.4086L36.6699 65.3836L36.6789 67.3331ZM21.0499 60.6593L21.1541 84.0713L120.002 83.6297L119.897 60.2184L21.0499 60.6593Z" fill="#F8F7F2"/>
<path d="M48.8753 48.9053L49.8719 47.9885L50.5178 48.69L49.5208 49.6074L51.3879 51.6353L50.6153 52.3456L46.0955 47.4325L48.1373 45.5539L48.7831 46.2554L47.5129 47.424L48.8753 48.9053Z" fill="#F8F7F2"/>
<path d="M50.7213 43.6023L53.6002 47.8788C53.8667 48.2747 54.1368 48.3005 54.414 48.1138C54.6912 47.9272 54.7693 47.6675 54.503 47.2709L51.6242 42.9945L52.4479 42.4399L55.2892 46.6614C55.8863 47.5484 55.7842 48.3536 54.9288 48.9295C54.0734 49.5054 53.2888 49.2967 52.6917 48.4097L49.8501 44.1889L50.7213 43.6023Z" fill="#F8F7F2"/>
<path d="M54.5687 41.2635L55.5184 40.8143L57.966 45.9917L59.5274 45.2537L59.9358 46.116L57.4244 47.3039L54.5687 41.2635Z" fill="#F8F7F2"/>
<path d="M59.0821 39.3238L60.0853 39.0148L61.7725 44.4849L63.4233 43.976L63.7048 44.8874L61.0515 45.7063L59.0821 39.3238Z" fill="#F8F7F2"/>
<path d="M67.7793 38.4702L67.9166 40.5182L68.3261 40.4906C68.717 40.4647 68.9439 40.2774 68.9078 39.7437L68.8643 39.0866C68.8322 38.6103 68.6565 38.4119 68.2851 38.4365L67.7793 38.4702ZM69.3042 44.1097C69.2357 43.942 69.1909 43.8399 69.154 43.2972L69.0851 42.2484C69.0434 41.6298 68.8181 41.4153 68.3418 41.4464L67.9798 41.4711L68.1616 44.1859L67.1132 44.256L66.6689 37.587L68.2498 37.4819C69.3362 37.4089 69.8361 37.8828 69.905 38.912L69.94 39.4359C69.9854 40.122 69.7959 40.5842 69.3444 40.8346C69.8826 41.0189 70.088 41.5118 70.1341 42.2077L70.2033 43.2362C70.2251 43.5605 70.2499 43.7979 70.371 44.0388L69.3042 44.1097Z" fill="#F8F7F2"/>
<path d="M73.0466 40.3241L74.4814 40.451L74.3972 41.402L72.9623 41.2751L72.7902 43.2235L74.596 43.3829L74.5118 44.3339L71.6607 44.0816L72.2487 37.4278L75.1001 37.6795L75.0161 38.6298L73.2103 38.4704L73.0466 40.3241Z" fill="#F8F7F2"/>
<path d="M77.738 41.204L79.0553 41.5191L78.8336 42.4464L77.516 42.132L76.8741 44.8128L75.8537 44.5684L77.408 38.0743L80.1071 38.7205L79.8856 39.6479L78.2058 39.2464L77.738 41.204Z" fill="#F8F7F2"/>
<path d="M83.1573 39.7845L81.213 44.5517C81.0323 44.9933 81.1623 45.2315 81.4708 45.3574C81.7802 45.4836 82.0396 45.4035 82.2194 44.9624L84.1637 40.1952L85.0822 40.5698L83.1626 45.275C82.7591 46.2638 82.0343 46.6272 81.0812 46.238C80.127 45.8492 79.8632 45.0827 80.2666 44.0939L82.1867 39.3881L83.1573 39.7845Z" fill="#F8F7F2"/>
<path d="M87.1646 43.7611L84.624 47.8766L83.8202 47.3802L87.3279 41.6982L88.4484 42.3899L87.2663 46.3576L89.3661 42.956L90.1611 43.4472L86.6531 49.1298L85.7357 48.5631L87.1646 43.7611Z" fill="#F8F7F2"/>
<path d="M92.3639 46.3668L89.2215 49.9595L89.6677 50.3489C89.9192 50.5687 90.1829 50.5714 90.4972 50.2125L92.7841 47.5963C93.0984 47.2374 93.0609 46.9758 92.8095 46.7559L92.3639 46.3668ZM92.2022 44.957L93.4526 46.0504C94.2426 46.7414 94.2474 47.5191 93.5438 48.3242L91.3186 50.8679C90.6152 51.6724 89.843 51.7714 89.053 51.0804L87.8026 49.987L92.2022 44.957Z" fill="#F8F7F2"/>
<path d="M50.7538 96.1718L51.8051 97.0271L51.2031 97.7671L50.1516 96.9125L48.4118 99.0524L47.5968 98.3902L51.812 93.2069L53.9675 94.9585L53.3652 95.6992L52.0248 94.6098L50.7538 96.1718Z" fill="#F8F7F2"/>
<path d="M55.7267 96.1018L53.0958 100.53C52.8514 100.94 52.9445 101.194 53.231 101.365C53.5188 101.536 53.7869 101.496 54.0304 101.085L56.662 96.658L57.5142 97.1644L54.9168 101.535C54.3709 102.453 53.5997 102.705 52.7149 102.179C51.8289 101.653 51.6816 100.855 52.2274 99.9367L54.825 95.5661L55.7267 96.1018Z" fill="#F8F7F2"/>
<path d="M58.6832 97.7173L59.6543 98.1163L57.4766 103.414L59.0743 104.071L58.7119 104.953L56.1425 103.897L58.6832 97.7173Z" fill="#F8F7F2"/>
<path d="M62.2646 99.0937L63.281 99.3561L61.8492 104.898L63.5215 105.33L63.2824 106.253L60.5944 105.559L62.2646 99.0937Z" fill="#F8F7F2"/>
<path d="M69.2318 101.22L69.1753 103.272L69.5856 103.283C69.9769 103.295 70.2205 103.129 70.235 102.595L70.2535 101.936C70.2661 101.459 70.1098 101.244 69.7374 101.235L69.2318 101.22ZM70.2201 106.979C70.168 106.805 70.1326 106.699 70.1475 106.155L70.1762 105.105C70.1927 104.485 69.989 104.25 69.5123 104.237L69.1493 104.227L69.0751 106.947L68.0247 106.918L68.2079 100.237L69.7921 100.281C70.8805 100.311 71.3342 100.829 71.3061 101.86L71.291 102.385C71.2725 103.072 71.0415 103.515 70.5671 103.721C71.0869 103.955 71.2443 104.466 71.2255 105.163L71.1971 106.193C71.1879 106.518 71.1907 106.757 71.2893 107.008L70.2201 106.979Z" fill="#F8F7F2"/>
<path d="M73.9979 102.919L75.4273 102.744L75.5437 103.691L74.1133 103.866L74.3516 105.807L76.1504 105.587L76.2668 106.534L73.4251 106.882L72.6135 100.253L75.4552 99.9052L75.5706 100.852L73.7718 101.072L73.9979 102.919Z" fill="#F8F7F2"/>
<path d="M78.4687 102.236L79.7768 101.882L80.027 102.804L78.7183 103.158L79.4393 105.821L78.4264 106.096L76.6785 99.6447L79.3601 98.9186L79.6097 99.8402L77.9419 100.292L78.4687 102.236Z" fill="#F8F7F2"/>
<path d="M81.3261 98.1586L83.3877 102.878C83.5789 103.316 83.8392 103.389 84.1454 103.256C84.4516 103.121 84.575 102.881 84.3846 102.443L82.323 97.7236L83.2317 97.3264L85.267 101.985C85.6937 102.964 85.449 103.737 84.5049 104.149C83.5608 104.562 82.8274 104.216 82.3991 103.237L80.3644 98.5792L81.3261 98.1586Z" fill="#F8F7F2"/>
<path d="M86.1174 97.7771L88.7367 101.849L87.942 102.361L84.3258 96.7395L85.4338 96.0256L88.5065 98.8068L86.3419 95.4419L87.1288 94.9357L90.7447 100.558L89.8373 101.142L86.1174 97.7771Z" fill="#F8F7F2"/>
<path d="M89.5992 94.1417L92.7869 97.6852L93.2258 97.2896C93.4746 97.0667 93.5086 96.8051 93.1892 96.4507L90.8684 93.8709C90.5507 93.5164 90.2863 93.5229 90.0388 93.7463L89.5992 94.1417ZM88.1815 94.1343L89.4151 93.0242C90.1947 92.3231 90.9666 92.411 91.6806 93.2046L93.9371 95.7144C94.6512 96.5081 94.6573 97.2847 93.8777 97.9857L92.6444 99.0951L88.1815 94.1343Z" fill="#F8F7F2"/>
</g>
<defs>
<clipPath id="clip0_684_7931">
<rect width="145" height="145" fill="white" transform="translate(0 0.470459)"/>
</clipPath>
</defs>
</svg>
