<svg width="16" height="16" viewBox="0 0 16 16" fill="none" xmlns="http://www.w3.org/2000/svg">
<path d="M8.00053 11.754C8.74415 11.754 9.47105 11.5335 10.0893 11.1202C10.7075 10.707 11.1892 10.1197 11.4736 9.43255C11.7579 8.74544 11.832 7.98943 11.6866 7.26018C11.5411 6.53093 11.1826 5.86122 10.6564 5.33577C10.1302 4.81033 9.46002 4.45277 8.73056 4.30834C8.00111 4.1639 7.24521 4.23909 6.5585 4.52439C5.87179 4.80968 5.28513 5.29226 4.87276 5.91106C4.46039 6.52986 4.24084 7.25707 4.24189 8.00069C4.24329 8.99663 4.6399 9.95129 5.34463 10.655C6.04937 11.3588 7.00459 11.7541 8.00053 11.754Z" fill="#E40022"/>
<path d="M8.00072 13.4537C10.2459 13.4537 12.0763 13.7588 12.0763 14.4627C12.0763 15.1667 10.2512 16 8.00072 16C5.75029 16 3.92511 15.1653 3.92511 14.4627C3.92511 13.7601 5.74896 13.4537 8.00072 13.4537Z" fill="#E40022"/>
<path d="M8.00072 0C10.2459 0 12.0763 0.834668 12.0763 1.53859C12.0763 2.24251 10.2512 2.54627 8.00072 2.54627C5.75029 2.54627 3.92511 2.24515 3.92511 1.53859C3.92511 0.832026 5.74896 0 8.00072 0Z" fill="#E40022"/>
<path d="M2.54627 8.00066C2.54627 10.2458 2.24119 12.0763 1.53859 12.0763C0.835988 12.0763 0 10.2511 0 8.00066C0 5.75022 0.834668 3.92505 1.53859 3.92505C2.24251 3.92505 2.54627 5.7489 2.54627 8.00066Z" fill="#E40022"/>
<path d="M16.0001 8.00066C16.0001 10.2458 15.1654 12.0763 14.4628 12.0763C13.7602 12.0763 13.4538 10.2511 13.4538 8.00066C13.4538 5.75022 13.7589 3.92505 14.4628 3.92505C15.1667 3.92505 16.0001 5.7489 16.0001 8.00066Z" fill="#E40022"/>
</svg>
