<svg width="17" height="17" viewBox="0 0 17 17" fill="none" xmlns="http://www.w3.org/2000/svg">
<mask id="mask0_684_8053" style="mask-type:luminance" maskUnits="userSpaceOnUse" x="0" y="0" width="17" height="17">
<path d="M16.5 0.470703H0.5V16.4707H16.5V0.470703Z" fill="white"/>
</mask>
<g mask="url(#mask0_684_8053)">
<path d="M8.50084 12.2248C9.24445 12.2248 9.97136 12.0042 10.5896 11.591C11.2078 11.1778 11.6895 10.5904 11.9739 9.90332C12.2582 9.21621 12.3323 8.4602 12.1869 7.73095C12.0414 7.0017 11.6829 6.33198 11.1567 5.80653C10.6305 5.28109 9.96032 4.92353 9.23087 4.7791C8.50142 4.63467 7.74551 4.70986 7.0588 4.99515C6.37209 5.28044 5.78544 5.76302 5.37307 6.38182C4.9607 7.00062 4.74115 7.72784 4.74219 8.47145C4.74359 9.46739 5.14021 10.4221 5.84494 11.1258C6.54967 11.8295 7.5049 12.2248 8.50084 12.2248Z" fill="#0D0D0D"/>
<path d="M8.50139 13.9243C10.7465 13.9243 12.577 14.2294 12.577 14.9333C12.577 15.6372 10.7518 16.4706 8.50139 16.4706C6.25096 16.4706 4.42578 15.6359 4.42578 14.9333C4.42578 14.2307 6.24964 13.9243 8.50139 13.9243Z" fill="#0D0D0D"/>
<path d="M8.50139 0.470703C10.7465 0.470703 12.577 1.30537 12.577 2.00929C12.577 2.71321 10.7518 3.01697 8.50139 3.01697C6.25096 3.01697 4.42578 2.71585 4.42578 2.00929C4.42578 1.30273 6.24964 0.470703 8.50139 0.470703Z" fill="#0D0D0D"/>
<path d="M3.04627 8.47136C3.04627 10.7165 2.74119 12.547 2.03859 12.547C1.33599 12.547 0.5 10.7218 0.5 8.47136C0.5 6.22093 1.33467 4.39575 2.03859 4.39575C2.74251 4.39575 3.04627 6.21961 3.04627 8.47136Z" fill="#0D0D0D"/>
<path d="M16.4994 8.47136C16.4994 10.7165 15.6647 12.547 14.9621 12.547C14.2595 12.547 13.9531 10.7218 13.9531 8.47136C13.9531 6.22093 14.2582 4.39575 14.9621 4.39575C15.666 4.39575 16.4994 6.21961 16.4994 8.47136Z" fill="#0D0D0D"/>
</g>
</svg>
