<svg width="13" height="12" viewBox="0 0 13 12" fill="none" xmlns="http://www.w3.org/2000/svg">
<g clip-path="url(#clip0_684_8288)">
<path d="M13 3.72217C13 8.54029 6.5 11.3055 6.5 11.3055C6.5 11.3055 0 8.54029 0 3.72217C0 2.86021 0.34241 2.03356 0.951903 1.42407C1.5614 0.814578 2.38805 0.472168 3.25 0.472168C4.11195 0.472168 4.9386 0.814578 5.5481 1.42407C6.15759 2.03356 6.5 2.86021 6.5 3.72217C6.5 2.86021 6.84241 2.03356 7.4519 1.42407C8.0614 0.814578 8.88805 0.472168 9.75 0.472168C10.612 0.472168 11.4386 0.814578 12.0481 1.42407C12.6576 2.03356 13 2.86021 13 3.72217Z" fill="#E40022"/>
</g>
<defs>
<clipPath id="clip0_684_8288">
<rect width="13" height="10.8333" fill="white" transform="translate(0 0.472168)"/>
</clipPath>
</defs>
</svg>
