<svg width="40" height="41" viewBox="0 0 40 41" fill="none" xmlns="http://www.w3.org/2000/svg">
<rect y="0.888672" width="40" height="40" rx="12" fill="#EEE8E4"/>
<g clip-path="url(#clip0_684_8420)">
<path d="M20 14.3293C22.1375 14.3293 22.3906 14.3387 23.2313 14.3762C24.0125 14.4105 24.4344 14.5418 24.7156 14.6512C25.0875 14.7949 25.3563 14.9699 25.6344 15.248C25.9156 15.5293 26.0875 15.7949 26.2313 16.1668C26.3406 16.448 26.4719 16.873 26.5063 17.6512C26.5438 18.4949 26.5531 18.748 26.5531 20.8824C26.5531 23.0199 26.5438 23.273 26.5063 24.1137C26.4719 24.8949 26.3406 25.3168 26.2313 25.598C26.0875 25.9699 25.9125 26.2387 25.6344 26.5168C25.3531 26.798 25.0875 26.9699 24.7156 27.1137C24.4344 27.223 24.0094 27.3543 23.2313 27.3887C22.3875 27.4262 22.1344 27.4355 20 27.4355C17.8625 27.4355 17.6094 27.4262 16.7688 27.3887C15.9875 27.3543 15.5656 27.223 15.2844 27.1137C14.9125 26.9699 14.6438 26.7949 14.3656 26.5168C14.0844 26.2355 13.9125 25.9699 13.7688 25.598C13.6594 25.3168 13.5281 24.8918 13.4938 24.1137C13.4563 23.2699 13.4469 23.0168 13.4469 20.8824C13.4469 18.7449 13.4563 18.4918 13.4938 17.6512C13.5281 16.8699 13.6594 16.448 13.7688 16.1668C13.9125 15.7949 14.0875 15.5262 14.3656 15.248C14.6469 14.9668 14.9125 14.7949 15.2844 14.6512C15.5656 14.5418 15.9906 14.4105 16.7688 14.3762C17.6094 14.3387 17.8625 14.3293 20 14.3293ZM20 12.8887C17.8281 12.8887 17.5563 12.898 16.7031 12.9355C15.8531 12.973 15.2688 13.1105 14.7625 13.3074C14.2344 13.5137 13.7875 13.7855 13.3438 14.2324C12.8969 14.6762 12.625 15.123 12.4188 15.648C12.2219 16.1574 12.0844 16.7387 12.0469 17.5887C12.0094 18.4449 12 18.7168 12 20.8887C12 23.0605 12.0094 23.3324 12.0469 24.1855C12.0844 25.0355 12.2219 25.6199 12.4188 26.1262C12.625 26.6543 12.8969 27.1012 13.3438 27.5449C13.7875 27.9887 14.2344 28.2637 14.7594 28.4668C15.2688 28.6637 15.85 28.8012 16.7 28.8387C17.5531 28.8762 17.825 28.8855 19.9969 28.8855C22.1688 28.8855 22.4406 28.8762 23.2938 28.8387C24.1438 28.8012 24.7281 28.6637 25.2344 28.4668C25.7594 28.2637 26.2063 27.9887 26.65 27.5449C27.0938 27.1012 27.3688 26.6543 27.5719 26.1293C27.7688 25.6199 27.9063 25.0387 27.9438 24.1887C27.9813 23.3355 27.9906 23.0637 27.9906 20.8918C27.9906 18.7199 27.9813 18.448 27.9438 17.5949C27.9063 16.7449 27.7688 16.1605 27.5719 15.6543C27.375 15.123 27.1031 14.6762 26.6563 14.2324C26.2125 13.7887 25.7656 13.5137 25.2406 13.3105C24.7313 13.1137 24.15 12.9762 23.3 12.9387C22.4438 12.898 22.1719 12.8887 20 12.8887Z" fill="#E40022"/>
<path d="M20 16.7793C17.7313 16.7793 15.8906 18.6199 15.8906 20.8887C15.8906 23.1574 17.7313 24.998 20 24.998C22.2688 24.998 24.1094 23.1574 24.1094 20.8887C24.1094 18.6199 22.2688 16.7793 20 16.7793ZM20 23.5543C18.5281 23.5543 17.3344 22.3605 17.3344 20.8887C17.3344 19.4168 18.5281 18.223 20 18.223C21.4719 18.223 22.6656 19.4168 22.6656 20.8887C22.6656 22.3605 21.4719 23.5543 20 23.5543Z" fill="#E40022"/>
<path d="M25.2312 16.6166C25.2312 17.1479 24.8 17.576 24.2719 17.576C23.7406 17.576 23.3125 17.1447 23.3125 16.6166C23.3125 16.0854 23.7438 15.6572 24.2719 15.6572C24.8 15.6572 25.2312 16.0885 25.2312 16.6166Z" fill="#E40022"/>
</g>
<defs>
<clipPath id="clip0_684_8420">
<rect width="16" height="16" fill="white" transform="translate(12 12.8887)"/>
</clipPath>
</defs>
</svg>
