<svg width="16" height="21" viewBox="0 0 16 21" fill="none" xmlns="http://www.w3.org/2000/svg">
<g clip-path="url(#clip0_684_8350)">
<rect x="0.800781" y="5.05566" width="12" height="10.8333" fill="#666666"/>
<path d="M9.61189 3.38867H4.78655C1.7007 3.38867 -0.800781 5.99446 -0.800781 9.20879V14.2352C-0.800781 17.4496 1.7007 20.0553 4.78655 20.0553H9.61189C12.6977 20.0553 15.1992 17.4496 15.1992 14.2352V9.20879C15.1992 5.99446 12.6977 3.38867 9.61189 3.38867ZM4.75699 14.6347C4.75699 14.8611 4.59411 15.0448 4.39331 15.0448H2.80951C2.60861 15.0448 2.44591 14.8611 2.44591 14.6347V10.2699C2.44591 10.0434 2.60857 9.85981 2.80951 9.85981H4.39331C4.59408 9.85981 4.75699 10.0434 4.75699 10.2699V14.6347ZM11.7986 11.9539C11.7986 11.9539 11.7877 12.685 11.2601 12.5858C11.2601 12.5858 11.6007 12.8089 11.5569 13.2921C11.5569 13.2921 11.5678 13.9736 10.8865 13.8745C11.194 13.986 11.1064 14.494 11.1064 14.494C11.0845 15.1384 10.3811 15.0393 10.3811 15.0393H5.61212C5.61212 15.0393 5.04087 14.9401 5.04087 14.4197V10.3561C5.04087 10.3561 5.03205 9.84893 5.38374 9.53915L6.97462 7.82766V6.53899C6.97462 6.53899 7.01872 5.99376 7.65605 6.24162C7.65605 6.24162 9.24926 7.19909 7.79903 9.63675H11.2821C11.2821 9.63675 11.9567 9.66152 11.9524 10.4298C11.9524 10.4298 11.9567 11.2228 11.3041 11.2599C11.3041 11.2599 11.8206 11.3096 11.7986 11.9539Z" fill="#F8F7F2"/>
</g>
<defs>
<clipPath id="clip0_684_8350">
<rect width="16" height="20" fill="white" transform="translate(0 0.888672)"/>
</clipPath>
</defs>
</svg>
