<svg width="40" height="40" viewBox="0 0 40 40" fill="none" xmlns="http://www.w3.org/2000/svg">
<mask id="mask0_717_1696" style="mask-type:luminance" maskUnits="userSpaceOnUse" x="0" y="0" width="41" height="40">
<path d="M40.6013 0H0V40H40.6013V0Z" fill="white"/>
</mask>
<g mask="url(#mask0_717_1696)">
<path d="M20.3035 29.385C22.1905 29.385 24.0351 28.8336 25.6039 27.8005C27.1726 26.7674 28.3951 25.2991 29.1166 23.5813C29.8381 21.8635 30.0262 19.9735 29.6571 18.1504C29.288 16.3272 28.3783 14.6529 27.0431 13.3393C25.7078 12.0257 24.0071 11.1318 22.156 10.7707C20.305 10.4097 18.3868 10.5976 16.6442 11.3109C14.9016 12.0241 13.413 13.2305 12.3665 14.7775C11.3201 16.3246 10.763 18.1426 10.7656 20.0016C10.7692 22.4915 11.7756 24.8781 13.564 26.6375C15.3523 28.3968 17.7762 29.385 20.3035 29.385Z" fill="#E40022"/>
<path d="M20.3031 33.6343C26.0004 33.6343 30.6453 34.397 30.6453 36.1568C30.6453 37.9166 26.0138 39.9999 20.3031 39.9999C14.5925 39.9999 9.96094 37.9133 9.96094 36.1568C9.96094 34.4003 14.5891 33.6343 20.3031 33.6343Z" fill="#E40022"/>
<path d="M20.3031 0C26.0004 0 30.6453 2.08667 30.6453 3.84647C30.6453 5.60627 26.0138 6.36566 20.3031 6.36566C14.5925 6.36566 9.96094 5.61288 9.96094 3.84647C9.96094 2.08007 14.5891 0 20.3031 0Z" fill="#E40022"/>
<path d="M6.46136 20.0015C6.46136 25.6144 5.6872 30.1905 3.9043 30.1905C2.12139 30.1905 0 25.6276 0 20.0015C0 14.3754 2.11804 9.8125 3.9043 9.8125C5.69055 9.8125 6.46136 14.3721 6.46136 20.0015Z" fill="#E40022"/>
<path d="M40.602 20.002C40.602 25.6149 38.4839 30.191 36.701 30.191C34.9181 30.191 34.1406 25.6281 34.1406 20.002C34.1406 14.3759 34.9148 9.81299 36.701 9.81299C38.4873 9.81299 40.602 14.3726 40.602 20.002Z" fill="#E40022"/>
</g>
</svg>
