<svg width="328" height="27" viewBox="0 0 328 27" fill="none" xmlns="http://www.w3.org/2000/svg">
<g clip-path="url(#clip0_684_8411)">
<mask id="mask0_684_8411" style="mask-type:luminance" maskUnits="userSpaceOnUse" x="0" y="0" width="27" height="27">
<path d="M26.8132 0.888672H0V26.8887H26.8132V0.888672Z" fill="white"/>
</mask>
<g mask="url(#mask0_684_8411)">
<path d="M13.4082 19.989C14.6544 19.989 15.8726 19.6306 16.9086 18.9591C17.9446 18.2876 18.7519 17.3332 19.2284 16.2166C19.7049 15.1001 19.8291 13.8715 19.5854 12.6865C19.3416 11.5015 18.7408 10.4132 17.859 9.55934C16.9772 8.70549 15.8541 8.12446 14.6316 7.88976C13.4092 7.65505 12.1424 7.77723 10.9916 8.24084C9.84081 8.70444 8.85768 9.48863 8.16662 10.4942C7.47556 11.4997 7.10763 12.6815 7.10938 13.8898C7.11173 15.5082 7.77639 17.0596 8.9574 18.2031C10.1384 19.3467 11.7392 19.989 13.4082 19.989Z" fill="#F8F7F2"/>
<path d="M13.4081 22.751C17.1706 22.751 20.2382 23.2467 20.2382 24.3906C20.2382 25.5345 17.1795 26.8887 13.4081 26.8887C9.6368 26.8887 6.57812 25.5323 6.57812 24.3906C6.57812 23.2489 9.63459 22.751 13.4081 22.751Z" fill="#F8F7F2"/>
<path d="M13.4081 0.888672C17.1706 0.888672 20.2382 2.24501 20.2382 3.38888C20.2382 4.53275 17.1795 5.02635 13.4081 5.02635C9.6368 5.02635 6.57812 4.53704 6.57812 3.38888C6.57812 2.24071 9.63459 0.888672 13.4081 0.888672Z" fill="#F8F7F2"/>
<path d="M4.2671 13.89C4.2671 17.5383 3.75584 20.5128 2.57841 20.5128C1.40097 20.5128 0 17.5469 0 13.89C0 10.233 1.39876 7.26709 2.57841 7.26709C3.75806 7.26709 4.2671 10.2309 4.2671 13.89Z" fill="#F8F7F2"/>
<path d="M26.814 13.89C26.814 17.5383 25.4152 20.5128 24.2378 20.5128C23.0603 20.5128 22.5469 17.5469 22.5469 13.89C22.5469 10.233 23.0581 7.26709 24.2378 7.26709C25.4174 7.26709 26.814 10.2309 26.814 13.89Z" fill="#F8F7F2"/>
</g>
<mask id="mask1_684_8411" style="mask-type:luminance" maskUnits="userSpaceOnUse" x="39" y="0" width="289" height="27">
<path d="M327.999 0.888672H39.4766V26.8887H327.999V0.888672Z" fill="white"/>
</mask>
<g mask="url(#mask1_684_8411)">
<path d="M40.2136 26.3886H44.3766C44.5717 26.3886 44.7589 26.3136 44.897 26.1801C45.0352 26.0465 45.1131 25.8653 45.1136 25.6761V17.7463C45.1104 17.6987 45.1177 17.651 45.135 17.6063C45.1523 17.5616 45.1792 17.5211 45.214 17.4874C45.2488 17.4536 45.2906 17.4275 45.3367 17.4107C45.3827 17.3939 45.432 17.3869 45.481 17.39H48.3184C53.1875 17.39 56.5339 14.1044 56.5339 9.38937C56.5339 4.67439 53.1809 1.38871 48.3184 1.38871H40.2136C40.0183 1.38928 39.8312 1.46475 39.6931 1.59866C39.555 1.73256 39.4771 1.914 39.4766 2.10336V25.6761C39.4771 25.8653 39.5551 26.0465 39.6932 26.1801C39.8314 26.3136 40.0185 26.3886 40.2136 26.3886ZM45.1136 11.675V7.11236C45.1104 7.06467 45.1177 7.01686 45.135 6.9721C45.1523 6.92734 45.1792 6.88667 45.2139 6.85277C45.2487 6.81887 45.2905 6.79253 45.3365 6.7755C45.3826 6.75846 45.4318 6.75112 45.481 6.75396H48.1701C49.6817 6.75396 50.7507 7.89783 50.7507 9.39796C50.7507 10.8981 49.6817 12.0398 48.1701 12.0398H45.481C45.4311 12.0431 45.3811 12.0359 45.3344 12.0186C45.2877 12.0013 45.2454 11.9744 45.2104 11.9397C45.1755 11.905 45.1487 11.8634 45.132 11.8176C45.1153 11.7719 45.109 11.7233 45.1136 11.675ZM59.296 26.3886H63.4591C63.6542 26.3886 63.8413 26.3136 63.9794 26.1801C64.1176 26.0465 64.1955 25.8653 64.1961 25.6761V17.6046C64.1932 17.557 64.2007 17.5094 64.2181 17.4648C64.2356 17.4202 64.2625 17.3796 64.2972 17.3458C64.3318 17.312 64.3735 17.2856 64.4194 17.2685C64.4653 17.2513 64.5144 17.2437 64.5635 17.2462H65.6701C65.7723 17.2307 65.877 17.2465 65.9695 17.2915C66.062 17.3366 66.1376 17.4085 66.1858 17.4973L69.7159 25.7834C69.8619 26.1032 70.1209 26.3886 70.4883 26.3886H74.9833C75.0973 26.3901 75.2098 26.3637 75.3104 26.3118C75.4111 26.26 75.4966 26.1843 75.5591 26.0918C75.6215 25.9994 75.6589 25.8932 75.6677 25.783C75.6766 25.6728 75.6566 25.5622 75.6097 25.4615L71.8228 16.89C71.6746 16.5681 71.6746 16.2462 71.9689 16.0316C74.253 14.3147 75.6163 12.1042 75.6163 9.38937C75.6163 4.66795 72.2633 1.38871 67.4008 1.38871H59.296C59.1007 1.38928 58.9136 1.46475 58.7755 1.59866C58.6374 1.73256 58.5596 1.914 58.559 2.10336V25.6761C58.5596 25.8653 58.6375 26.0465 58.7756 26.1801C58.9138 26.3136 59.1009 26.3886 59.296 26.3886ZM64.1961 11.675V7.11236C64.1932 7.06475 64.2007 7.01709 64.2181 6.97249C64.2356 6.92789 64.2625 6.88736 64.2972 6.85353C64.3318 6.81971 64.3735 6.79336 64.4194 6.7762C64.4653 6.75905 64.5144 6.75147 64.5635 6.75396H67.2548C68.7642 6.75396 69.8332 7.89783 69.8332 9.39796C69.8332 10.8981 68.7642 12.0398 67.2548 12.0398H64.5635C64.5137 12.0428 64.4638 12.0353 64.4172 12.0179C64.3707 12.0004 64.3286 11.9735 64.2937 11.9389C64.2588 11.9043 64.2321 11.8628 64.2152 11.8172C64.1984 11.7717 64.1919 11.7232 64.1961 11.675ZM78.416 26.3886H91.7884C91.9834 26.3886 92.1706 26.3136 92.3087 26.1801C92.4469 26.0465 92.5248 25.8653 92.5254 25.6761V21.7466C92.5248 21.5573 92.4469 21.3758 92.3089 21.2419C92.1708 21.108 91.9836 21.0325 91.7884 21.032H83.6835C83.6344 21.0351 83.5852 21.0281 83.5392 21.0113C83.4931 20.9945 83.4513 20.9684 83.4165 20.9346C83.3817 20.9009 83.3548 20.8604 83.3374 20.8157C83.3201 20.771 83.3129 20.7233 83.3161 20.6757V16.89C83.3129 16.8423 83.3202 16.7945 83.3375 16.7497C83.3548 16.705 83.3817 16.6643 83.4164 16.6304C83.4512 16.5965 83.493 16.5702 83.539 16.5531C83.5851 16.5361 83.6343 16.5288 83.6835 16.5316H91.4298C91.6251 16.531 91.8122 16.4556 91.9503 16.3217C92.0884 16.1878 92.1662 16.0063 92.1668 15.8169V11.8896C92.1662 11.7002 92.0884 11.5188 91.9503 11.3849C91.8122 11.251 91.6251 11.1755 91.4298 11.1749H83.6835C83.6345 11.1777 83.5855 11.1705 83.5396 11.1535C83.4937 11.1366 83.452 11.1105 83.4173 11.0768C83.3826 11.0432 83.3556 11.0028 83.3382 10.9583C83.3207 10.9138 83.3132 10.8662 83.3161 10.8187V7.11236C83.3129 7.06467 83.3202 7.01686 83.3375 6.9721C83.3548 6.92734 83.3817 6.88667 83.4164 6.85277C83.4512 6.81887 83.493 6.79253 83.539 6.7755C83.5851 6.75846 83.6343 6.75112 83.6835 6.75396H91.7884C91.9836 6.7534 92.1708 6.67792 92.3089 6.54402C92.4469 6.41012 92.5248 6.22867 92.5254 6.03931V2.10336C92.5248 1.914 92.4469 1.73256 92.3089 1.59866C92.1708 1.46475 91.9836 1.38928 91.7884 1.38871H78.416C78.2215 1.39041 78.0355 1.46638 77.8984 1.60016C77.7613 1.73394 77.684 1.91474 77.6835 2.10336V25.6761C77.6841 25.8645 77.7614 26.0451 77.8985 26.1786C78.0357 26.312 78.2217 26.3875 78.416 26.3886ZM102.983 26.8887C107.921 26.8887 111.714 23.7833 111.714 18.8537C111.714 14.9242 109.614 12.63 105.599 11.4604L102.804 10.6384C101.033 10.1384 100.188 9.38937 100.188 8.17468C100.188 6.88702 101.183 5.99639 102.914 5.99639C104.61 5.99639 105.791 6.71104 105.791 8.17468V8.42577C105.792 8.61494 105.87 8.79616 106.008 8.92972C106.146 9.06328 106.333 9.13828 106.528 9.13828H110.765C110.96 9.13828 111.147 9.06328 111.285 8.92972C111.423 8.79616 111.501 8.61494 111.502 8.42577V8.18541C111.497 3.85244 108.071 0.888672 103.209 0.888672C97.9787 0.888672 94.4044 4.10782 94.4044 8.46011C94.4044 12.1085 96.7991 14.7117 100.446 15.6753L103.173 16.39C105.015 16.89 105.898 17.7463 105.898 19.1048C105.898 20.6757 104.72 21.7831 102.914 21.7831C101.294 21.7831 100.037 20.7465 100.037 19.1048V18.7464C100.036 18.557 99.9586 18.3756 99.8205 18.2417C99.6825 18.1078 99.4953 18.0323 99.3 18.0317H94.9201C94.7248 18.0323 94.5377 18.1078 94.3996 18.2417C94.2615 18.3756 94.1837 18.557 94.1831 18.7464V18.9159C94.1831 23.7103 98.0872 26.8887 102.987 26.8887H102.983ZM114.551 26.3886H127.924C128.119 26.3886 128.306 26.3136 128.444 26.1801C128.582 26.0465 128.66 25.8653 128.661 25.6761V21.7466C128.66 21.5573 128.582 21.3758 128.444 21.2419C128.306 21.108 128.119 21.0325 127.924 21.032H119.823C119.774 21.0351 119.725 21.0281 119.679 21.0113C119.633 20.9945 119.591 20.9684 119.556 20.9346C119.521 20.9009 119.495 20.8604 119.477 20.8157C119.46 20.771 119.453 20.7233 119.456 20.6757V16.89C119.453 16.8423 119.46 16.7945 119.477 16.7497C119.495 16.705 119.521 16.6643 119.556 16.6304C119.591 16.5965 119.633 16.5702 119.679 16.5531C119.725 16.5361 119.774 16.5288 119.823 16.5316H127.57C127.765 16.531 127.952 16.4555 128.089 16.3215C128.227 16.1876 128.304 16.0061 128.304 15.8169V11.8896C128.304 11.7004 128.227 11.519 128.089 11.385C127.952 11.251 127.765 11.1755 127.57 11.1749H119.823C119.774 11.1777 119.725 11.1705 119.679 11.1535C119.633 11.1366 119.592 11.1105 119.557 11.0768C119.522 11.0432 119.495 11.0028 119.478 10.9583C119.461 10.9138 119.453 10.8662 119.456 10.8187V7.11236C119.453 7.06467 119.46 7.01686 119.477 6.9721C119.495 6.92734 119.521 6.88667 119.556 6.85277C119.591 6.81887 119.633 6.79253 119.679 6.7755C119.725 6.75846 119.774 6.75112 119.823 6.75396H127.924C128.021 6.75424 128.117 6.73598 128.207 6.70022C128.297 6.66446 128.378 6.6119 128.447 6.54554C128.516 6.47917 128.571 6.40031 128.608 6.31345C128.645 6.2266 128.665 6.13344 128.665 6.03931V2.10336C128.665 2.00923 128.645 1.91608 128.608 1.82922C128.571 1.74236 128.516 1.6635 128.447 1.59714C128.378 1.53078 128.297 1.47822 128.207 1.44245C128.117 1.40669 128.021 1.38843 127.924 1.38871H114.556C114.361 1.38928 114.173 1.46475 114.035 1.59866C113.897 1.73256 113.819 1.914 113.819 2.10336V25.6761C113.819 25.8653 113.897 26.0465 114.035 26.1801C114.174 26.3136 114.361 26.3886 114.556 26.3886H114.551ZM131.609 26.3886H135.77C135.965 26.3886 136.152 26.3136 136.29 26.1801C136.428 26.0465 136.506 25.8653 136.507 25.6761V14.0314C136.507 13.424 137.022 13.3876 137.244 13.9241L141.922 25.7105C141.972 25.8954 142.081 26.0604 142.233 26.1821C142.386 26.3038 142.573 26.376 142.77 26.3886H147.376C147.571 26.3886 147.758 26.3136 147.896 26.1801C148.034 26.0465 148.112 25.8653 148.113 25.6761V2.10336C148.112 1.914 148.034 1.73256 147.896 1.59866C147.758 1.46475 147.571 1.38928 147.376 1.38871H143.217C143.022 1.38928 142.835 1.46475 142.697 1.59866C142.558 1.73256 142.481 1.914 142.48 2.10336V13.746C142.48 14.3533 141.964 14.3898 141.743 13.8533L137.064 2.06688C137.014 1.8821 136.905 1.71731 136.753 1.59566C136.601 1.47402 136.413 1.40164 136.217 1.38871H131.613C131.418 1.38928 131.231 1.46475 131.093 1.59866C130.955 1.73256 130.877 1.914 130.876 2.10336V25.6761C130.877 25.8653 130.955 26.0465 131.093 26.1801C131.231 26.3136 131.418 26.3886 131.613 26.3886H131.609ZM157.101 26.3886H161.306C161.501 26.3886 161.688 26.3136 161.826 26.1801C161.964 26.0465 162.042 25.8653 162.043 25.6761V7.11236C162.04 7.06456 162.047 7.01671 162.065 6.97195C162.083 6.9272 162.11 6.88655 162.145 6.85269C162.18 6.81884 162.221 6.79253 162.268 6.77552C162.314 6.7585 162.363 6.75115 162.412 6.75396H167.54C167.734 6.75114 167.919 6.67461 168.054 6.54089C168.19 6.40717 168.266 6.227 168.266 6.03931V2.10336C168.266 1.91584 168.189 1.73599 168.054 1.60239C167.918 1.46879 167.734 1.39208 167.54 1.38871H150.879C150.684 1.38928 150.497 1.46475 150.359 1.59866C150.221 1.73256 150.143 1.914 150.142 2.10336V6.03931C150.143 6.22867 150.221 6.41012 150.359 6.54402C150.497 6.67792 150.684 6.7534 150.879 6.75396H156.001C156.05 6.75147 156.099 6.75905 156.145 6.7762C156.191 6.79336 156.232 6.81971 156.267 6.85353C156.302 6.88736 156.329 6.92789 156.346 6.97249C156.363 7.01709 156.371 7.06475 156.368 7.11236V25.6761C156.369 25.8653 156.447 26.0465 156.585 26.1801C156.723 26.3136 156.91 26.3886 157.105 26.3886H157.101ZM178.394 26.3886H182.557C182.752 26.3886 182.939 26.3136 183.078 26.1801C183.216 26.0465 183.294 25.8653 183.294 25.6761V17.7463C183.291 17.6987 183.298 17.651 183.315 17.6063C183.333 17.5616 183.36 17.5211 183.395 17.4874C183.429 17.4536 183.471 17.4275 183.517 17.4107C183.563 17.3939 183.612 17.3869 183.662 17.39H186.499C191.368 17.39 194.714 14.1044 194.714 9.38937C194.714 4.67439 191.361 1.38871 186.499 1.38871H178.385C178.19 1.38928 178.003 1.46475 177.865 1.59866C177.727 1.73256 177.649 1.914 177.648 2.10336V25.6761C177.651 25.867 177.731 26.0492 177.871 26.1827C178.012 26.3163 178.202 26.3903 178.398 26.3886H178.394ZM183.29 11.675V7.11236C183.287 7.06456 183.294 7.01671 183.312 6.97195C183.33 6.9272 183.357 6.88655 183.392 6.85269C183.426 6.81884 183.468 6.79253 183.515 6.77552C183.561 6.7585 183.61 6.75115 183.659 6.75396H186.353C187.862 6.75396 188.931 7.89783 188.931 9.39796C188.931 10.8981 187.862 12.0312 186.353 12.0312H183.664C183.615 12.0344 183.565 12.0273 183.519 12.0105C183.473 11.9938 183.431 11.9677 183.396 11.934C183.361 11.9003 183.334 11.8598 183.316 11.8151C183.299 11.7704 183.291 11.7227 183.294 11.675H183.29ZM197.474 26.3886H210.847C211.042 26.3886 211.229 26.3136 211.367 26.1801C211.505 26.0465 211.583 25.8653 211.584 25.6761V21.7466C211.583 21.5573 211.505 21.3758 211.367 21.2419C211.229 21.108 211.042 21.0325 210.847 21.032H202.746C202.697 21.0351 202.648 21.028 202.602 21.0113C202.555 20.9945 202.513 20.9684 202.478 20.9347C202.444 20.901 202.416 20.8605 202.399 20.8158C202.381 20.7712 202.374 20.7234 202.377 20.6757V16.89C202.374 16.8422 202.381 16.7943 202.399 16.7496C202.416 16.7048 202.443 16.6642 202.478 16.6303C202.513 16.5965 202.555 16.5702 202.601 16.5531C202.648 16.5361 202.697 16.5288 202.746 16.5316H209.634C209.829 16.531 210.016 16.4556 210.154 16.3217C210.292 16.1878 210.37 16.0063 210.371 15.8169V11.8896C210.37 11.7002 210.292 11.5188 210.154 11.3849C210.016 11.251 209.829 11.1755 209.634 11.1749H202.746C202.697 11.1777 202.648 11.1704 202.602 11.1535C202.556 11.1366 202.514 11.1105 202.479 11.0769C202.444 11.0433 202.417 11.0029 202.4 10.9584C202.382 10.9139 202.374 10.8663 202.377 10.8187V7.11236C202.374 7.06456 202.381 7.01671 202.399 6.97195C202.416 6.9272 202.443 6.88655 202.478 6.85269C202.513 6.81884 202.555 6.79253 202.601 6.77552C202.648 6.7585 202.697 6.75115 202.746 6.75396H210.851C211.046 6.75227 211.232 6.6763 211.369 6.54252C211.506 6.40874 211.583 6.22794 211.584 6.03931V2.10336C211.583 1.914 211.505 1.73256 211.367 1.59866C211.229 1.46475 211.042 1.38928 210.847 1.38871H197.479C197.283 1.38928 197.096 1.46475 196.958 1.59866C196.82 1.73256 196.742 1.914 196.742 2.10336V25.6761C196.742 25.8653 196.82 26.0465 196.958 26.1801C197.097 26.3136 197.284 26.3886 197.479 26.3886H197.474ZM214.529 26.3886H218.692C218.888 26.3886 219.075 26.3136 219.213 26.1801C219.351 26.0465 219.429 25.8653 219.429 25.6761V17.6046C219.427 17.557 219.434 17.5094 219.452 17.4648C219.469 17.4202 219.496 17.3796 219.531 17.3458C219.565 17.312 219.607 17.2856 219.653 17.2685C219.699 17.2513 219.748 17.2437 219.797 17.2462H220.904C221.006 17.2307 221.11 17.2465 221.203 17.2915C221.295 17.3366 221.371 17.4085 221.419 17.4973L224.96 25.7834C225.106 26.1032 225.365 26.3886 225.733 26.3886H230.228C230.342 26.3901 230.454 26.3637 230.555 26.3118C230.656 26.26 230.741 26.1843 230.804 26.0918C230.866 25.9994 230.903 25.8932 230.912 25.783C230.921 25.6728 230.901 25.5622 230.854 25.4615L227.058 16.89C226.912 16.5681 226.912 16.2462 227.207 16.0316C229.491 14.3147 230.854 12.1042 230.854 9.38937C230.854 4.66795 227.501 1.38871 222.639 1.38871H214.534C214.339 1.38928 214.151 1.46475 214.013 1.59866C213.875 1.73256 213.797 1.914 213.797 2.10336V25.6761C213.797 25.8653 213.875 26.0465 214.013 26.1801C214.152 26.3136 214.339 26.3886 214.534 26.3886H214.529ZM219.429 11.675V7.11236C219.427 7.06475 219.434 7.01709 219.452 6.97249C219.469 6.92789 219.496 6.88736 219.531 6.85353C219.565 6.81971 219.607 6.79336 219.653 6.7762C219.699 6.75905 219.748 6.75147 219.797 6.75396H222.486C223.998 6.75396 225.067 7.89783 225.067 9.39796C225.067 10.8981 223.998 12.0398 222.486 12.0398H219.801C219.752 12.0428 219.702 12.0353 219.655 12.0179C219.609 12.0004 219.566 11.9735 219.532 11.9389C219.497 11.9043 219.47 11.8628 219.453 11.8172C219.436 11.7717 219.43 11.7232 219.434 11.675H219.429ZM233.649 26.3886H237.813C238.008 26.3886 238.195 26.3136 238.333 26.1801C238.471 26.0465 238.549 25.8653 238.55 25.6761V16.89C238.546 16.8423 238.554 16.7945 238.571 16.7497C238.588 16.705 238.615 16.6643 238.65 16.6304C238.685 16.5965 238.726 16.5702 238.772 16.5531C238.818 16.5361 238.868 16.5288 238.917 16.5316H246.063C246.259 16.531 246.446 16.4556 246.584 16.3217C246.722 16.1878 246.8 16.0063 246.8 15.8169V11.8896C246.8 11.7002 246.722 11.5188 246.584 11.3849C246.446 11.251 246.259 11.1755 246.063 11.1749H238.917C238.868 11.1777 238.819 11.1705 238.773 11.1535C238.727 11.1366 238.685 11.1105 238.651 11.0768C238.616 11.0432 238.589 11.0028 238.572 10.9583C238.554 10.9138 238.547 10.8662 238.55 10.8187V7.11236C238.546 7.06467 238.554 7.01686 238.571 6.9721C238.588 6.92734 238.615 6.88667 238.65 6.85277C238.685 6.81887 238.726 6.79253 238.772 6.7755C238.818 6.75846 238.868 6.75112 238.917 6.75396H246.442C246.637 6.7534 246.824 6.67792 246.962 6.54402C247.101 6.41012 247.178 6.22867 247.179 6.03931V2.10336C247.178 1.914 247.101 1.73256 246.962 1.59866C246.824 1.46475 246.637 1.38928 246.442 1.38871H233.658C233.463 1.38928 233.276 1.46475 233.138 1.59866C233 1.73256 232.922 1.914 232.921 2.10336V25.6761C232.922 25.8645 232.999 26.0451 233.136 26.1786C233.274 26.312 233.46 26.3875 233.654 26.3886H233.649ZM250.116 26.3886H263.488C263.683 26.3886 263.87 26.3136 264.009 26.1801C264.147 26.0465 264.225 25.8653 264.225 25.6761V21.7466C264.225 21.5573 264.147 21.3758 264.009 21.2419C263.871 21.108 263.683 21.0325 263.488 21.032H255.386C255.336 21.0351 255.287 21.028 255.241 21.0113C255.195 20.9945 255.153 20.9684 255.118 20.9347C255.083 20.901 255.056 20.8605 255.038 20.8158C255.021 20.7712 255.013 20.7234 255.016 20.6757V16.89C255.013 16.8422 255.021 16.7943 255.038 16.7496C255.056 16.7048 255.083 16.6642 255.118 16.6303C255.153 16.5965 255.195 16.5702 255.241 16.5531C255.287 16.5361 255.336 16.5288 255.386 16.5316H262.273C262.468 16.531 262.656 16.4556 262.794 16.3217C262.932 16.1878 263.01 16.0063 263.01 15.8169V11.8896C263.01 11.7002 262.932 11.5188 262.794 11.3849C262.656 11.251 262.468 11.1755 262.273 11.1749H255.386C255.336 11.1777 255.287 11.1704 255.241 11.1535C255.195 11.1366 255.154 11.1105 255.119 11.0769C255.084 11.0433 255.057 11.0029 255.039 10.9584C255.021 10.9139 255.013 10.8663 255.016 10.8187V7.11236C255.013 7.06456 255.021 7.01671 255.038 6.97195C255.056 6.9272 255.083 6.88655 255.118 6.85269C255.153 6.81884 255.195 6.79253 255.241 6.77552C255.287 6.7585 255.336 6.75115 255.386 6.75396H263.488C263.684 6.75396 263.871 6.67867 264.009 6.54465C264.148 6.41062 264.225 6.22885 264.225 6.03931V2.10336C264.225 1.914 264.147 1.73256 264.009 1.59866C263.871 1.46475 263.683 1.38928 263.488 1.38871H250.116C249.921 1.38928 249.733 1.46475 249.595 1.59866C249.457 1.73256 249.379 1.914 249.379 2.10336V25.6761C249.379 25.7702 249.399 25.8632 249.436 25.9499C249.473 26.0367 249.528 26.1154 249.597 26.1816C249.666 26.2478 249.748 26.3001 249.837 26.3357C249.927 26.3712 250.023 26.3892 250.12 26.3886H250.116ZM274.882 26.8887C279.928 26.8887 283.538 24.176 283.735 18.5682C283.734 18.3789 283.656 18.1974 283.518 18.0635C283.38 17.9296 283.193 17.8542 282.998 17.8536H278.686C278.491 17.8542 278.304 17.9296 278.166 18.0635C278.028 18.1974 277.95 18.3789 277.949 18.5682C277.803 20.5319 276.621 21.4247 274.893 21.4247C273.53 21.4247 272.536 20.9247 271.983 19.8173C271.394 18.6047 271.394 16.4608 271.394 13.8897C271.394 11.3187 271.394 9.16833 271.983 7.96007C272.498 6.85268 273.532 6.35264 274.893 6.35264C276.586 6.35264 277.77 7.35272 277.949 9.21125C277.965 9.40191 278.052 9.58031 278.195 9.71192C278.339 9.84354 278.527 9.91901 278.724 9.92375H282.998C283.193 9.92375 283.38 9.84875 283.518 9.71519C283.656 9.58164 283.734 9.40041 283.735 9.21125C283.533 3.567 279.778 0.888672 274.882 0.888672C271.491 0.888672 269.061 2.06688 267.625 4.06705C265.967 6.13803 265.597 9.4323 265.597 13.8897C265.597 18.3472 266.04 21.6028 267.625 23.7103C269.094 25.6761 271.487 26.8887 274.882 26.8887ZM291.753 26.3886H295.958C296.153 26.3886 296.341 26.3136 296.479 26.1801C296.617 26.0465 296.695 25.8653 296.695 25.6761V7.11236C296.692 7.06467 296.699 7.01686 296.717 6.9721C296.734 6.92734 296.761 6.88667 296.796 6.85277C296.83 6.81887 296.872 6.79253 296.918 6.7755C296.964 6.75846 297.014 6.75112 297.063 6.75396H301.963C302.158 6.7534 302.345 6.67792 302.483 6.54402C302.621 6.41012 302.699 6.22867 302.7 6.03931V2.10336C302.699 1.914 302.621 1.73256 302.483 1.59866C302.345 1.46475 302.158 1.38928 301.963 1.38871H285.753C285.558 1.38928 285.371 1.46475 285.233 1.59866C285.095 1.73256 285.017 1.914 285.016 2.10336V6.03931C285.017 6.22867 285.095 6.41012 285.233 6.54402C285.371 6.67792 285.558 6.7534 285.753 6.75396H290.653C290.702 6.75112 290.752 6.75846 290.798 6.7755C290.844 6.79253 290.886 6.81887 290.92 6.85277C290.955 6.88667 290.982 6.92734 290.999 6.9721C291.017 7.01686 291.024 7.06467 291.021 7.11236V25.6761C291.021 25.8638 291.098 26.0438 291.234 26.1771C291.37 26.3104 291.555 26.3864 291.749 26.3886H291.753ZM309.475 11.9604H311.832C311.871 11.9641 311.911 11.9592 311.949 11.9461C311.986 11.9331 312.02 11.9122 312.048 11.8849C312.076 11.8576 312.098 11.8247 312.111 11.7884C312.125 11.7521 312.13 11.7134 312.126 11.675V4.38896C312.129 4.35165 312.145 4.31652 312.172 4.29008C312.2 4.26364 312.236 4.24768 312.274 4.24517H314.594C314.633 4.24882 314.673 4.24395 314.711 4.23089C314.748 4.21784 314.782 4.19693 314.81 4.16966C314.838 4.14239 314.86 4.10943 314.873 4.07315C314.887 4.03686 314.892 3.99813 314.888 3.95974V1.67414C314.892 1.63575 314.887 1.59703 314.873 1.56074C314.86 1.52445 314.838 1.49149 314.81 1.46422C314.782 1.43695 314.748 1.41605 314.711 1.40299C314.673 1.38994 314.633 1.38506 314.594 1.38871H306.847C306.808 1.38506 306.768 1.38994 306.731 1.40299C306.693 1.41605 306.659 1.43695 306.631 1.46422C306.603 1.49149 306.581 1.52445 306.568 1.56074C306.554 1.59703 306.549 1.63575 306.553 1.67414V3.95974C306.549 3.99813 306.554 4.03686 306.568 4.07315C306.581 4.10943 306.603 4.14239 306.631 4.16966C306.659 4.19693 306.693 4.21784 306.731 4.23089C306.768 4.24395 306.808 4.24882 306.847 4.24517H309.021C309.059 4.24818 309.095 4.26435 309.121 4.29074C309.148 4.31714 309.164 4.35199 309.167 4.38896V11.6857C309.165 11.7239 309.172 11.7621 309.187 11.7976C309.202 11.833 309.224 11.8649 309.253 11.8911C309.282 11.9172 309.316 11.9369 309.354 11.9489C309.391 11.9609 309.431 11.9648 309.47 11.9604H309.475ZM316.656 11.9604H319.016C319.055 11.9641 319.095 11.9592 319.133 11.9461C319.17 11.9331 319.204 11.9122 319.232 11.8849C319.26 11.8576 319.282 11.8247 319.295 11.7884C319.309 11.7521 319.314 11.7134 319.31 11.675V6.56725C319.31 6.24534 319.678 6.24534 319.753 6.53077L321.114 11.7115C321.127 11.7794 321.163 11.8411 321.217 11.8863C321.271 11.9315 321.339 11.9577 321.41 11.9604H322.96C323.031 11.9572 323.098 11.9308 323.152 11.8857C323.205 11.8405 323.241 11.7791 323.254 11.7115L324.617 6.53077C324.69 6.24534 325.06 6.24534 325.06 6.56725V11.675C325.057 11.7135 325.062 11.7522 325.076 11.7885C325.089 11.8248 325.111 11.8577 325.14 11.8849C325.168 11.9122 325.202 11.933 325.239 11.9461C325.277 11.9591 325.317 11.964 325.357 11.9604H327.714C327.753 11.9641 327.793 11.9592 327.831 11.9461C327.868 11.9331 327.902 11.9122 327.93 11.8849C327.958 11.8576 327.98 11.8247 327.993 11.7884C328.007 11.7521 328.012 11.7134 328.008 11.675V1.67414C328.012 1.63575 328.007 1.59703 327.993 1.56074C327.98 1.52445 327.958 1.49149 327.93 1.46422C327.902 1.43695 327.868 1.41605 327.831 1.40299C327.793 1.38994 327.753 1.38506 327.714 1.38871H324.237C324.16 1.38553 324.085 1.40878 324.024 1.45434C323.963 1.49991 323.921 1.56484 323.905 1.63766L322.4 7.75619C322.327 8.04162 322.03 8.04162 321.957 7.75619L320.408 1.61405C320.377 1.54567 320.325 1.48825 320.26 1.44979C320.194 1.41132 320.117 1.39372 320.04 1.39944H316.65C316.61 1.39579 316.57 1.40067 316.533 1.41372C316.495 1.42678 316.461 1.44769 316.433 1.47495C316.405 1.50222 316.384 1.53518 316.37 1.57147C316.357 1.60776 316.352 1.64648 316.355 1.68487V11.6857C316.353 11.7234 316.36 11.7612 316.374 11.7963C316.388 11.8314 316.41 11.8631 316.439 11.8892C316.467 11.9153 316.5 11.9352 316.537 11.9475C316.574 11.9598 316.613 11.9642 316.652 11.9604H316.656Z" fill="#F8F7F2"/>
</g>
</g>
<defs>
<clipPath id="clip0_684_8411">
<rect width="328" height="26" fill="white" transform="translate(0 0.888672)"/>
</clipPath>
</defs>
</svg>
