<svg width="298" height="24" viewBox="0 0 298 24" fill="none" xmlns="http://www.w3.org/2000/svg">
<g clip-path="url(#clip0_458_6557)">
<mask id="mask0_458_6557" style="mask-type:luminance" maskUnits="userSpaceOnUse" x="0" y="0" width="25" height="24">
<path d="M24.3608 0H0V24H24.3608V0Z" fill="white"/>
</mask>
<g mask="url(#mask0_458_6557)">
<path d="M12.1814 17.6309C13.3136 17.6309 14.4203 17.3001 15.3616 16.6802C16.3029 16.0603 17.0364 15.1793 17.4693 14.1487C17.9022 13.118 18.015 11.984 17.7936 10.8901C17.5721 9.79625 17.0263 8.79167 16.2251 8.0035C15.424 7.21534 14.4035 6.679 13.2929 6.46235C12.1823 6.2457 11.0314 6.35849 9.98583 6.78643C8.94028 7.21437 8.04707 7.93823 7.41922 8.86643C6.79137 9.79463 6.45709 10.8855 6.45868 12.0009C6.46081 13.4948 7.06468 14.9268 8.13767 15.9824C9.21065 17.038 10.665 17.6309 12.1814 17.6309Z" fill="#E40022"/>
<path d="M12.1814 20.1807C15.5998 20.1807 18.3867 20.6383 18.3867 21.6942C18.3867 22.75 15.6078 24.0001 12.1814 24.0001C8.75501 24.0001 5.97609 22.7481 5.97609 21.6942C5.97609 20.6403 8.753 20.1807 12.1814 20.1807Z" fill="#E40022"/>
<path d="M12.1814 0C15.5998 0 18.3867 1.252 18.3867 2.30788C18.3867 3.36376 15.6078 3.8194 12.1814 3.8194C8.75501 3.8194 5.97609 3.36773 5.97609 2.30788C5.97609 1.24804 8.753 0 12.1814 0Z" fill="#E40022"/>
<path d="M3.87682 12.0011C3.87682 15.3688 3.41232 18.1145 2.34258 18.1145C1.27283 18.1145 0 15.3768 0 12.0011C0 8.62546 1.27082 5.8877 2.34258 5.8877C3.41433 5.8877 3.87682 8.62348 3.87682 12.0011Z" fill="#E40022"/>
<path d="M24.3608 12.0011C24.3608 15.3688 23.09 18.1145 22.0202 18.1145C20.9505 18.1145 20.484 15.3768 20.484 12.0011C20.484 8.62546 20.9485 5.8877 22.0202 5.8877C23.092 5.8877 24.3608 8.62348 24.3608 12.0011Z" fill="#E40022"/>
</g>
<mask id="mask1_458_6557" style="mask-type:luminance" maskUnits="userSpaceOnUse" x="35" y="0" width="263" height="24">
<path d="M298 0H35.8666V24H298V0Z" fill="white"/>
</mask>
<g mask="url(#mask1_458_6557)">
<path d="M36.5362 23.5384H40.3185C40.4957 23.5384 40.6657 23.4692 40.7912 23.3459C40.9168 23.2226 40.9875 23.0553 40.9881 22.8807V15.5609C40.9851 15.5169 40.9917 15.4729 41.0074 15.4317C41.0232 15.3904 41.0477 15.353 41.0793 15.3219C41.1109 15.2907 41.1489 15.2666 41.1907 15.2511C41.2325 15.2356 41.2773 15.2291 41.3219 15.232H43.8997C48.3235 15.232 51.3638 12.1991 51.3638 7.8468C51.3638 3.49451 48.3174 0.461577 43.8997 0.461577H36.5362C36.3587 0.462099 36.1887 0.531769 36.0633 0.655369C35.9378 0.77897 35.8671 0.946458 35.8666 1.12125V22.8807C35.8671 23.0553 35.9379 23.2226 36.0634 23.3459C36.1889 23.4692 36.3589 23.5384 36.5362 23.5384ZM40.9881 9.95658V5.74494C40.9851 5.70092 40.9918 5.65679 41.0075 5.61547C41.0232 5.57416 41.0476 5.53661 41.0792 5.50532C41.1108 5.47403 41.1487 5.44972 41.1906 5.43399C41.2324 5.41827 41.2772 5.41149 41.3219 5.41411H43.765C45.1384 5.41411 46.1096 6.47 46.1096 7.85473C46.1096 9.23946 45.1384 10.2934 43.765 10.2934H41.3219C41.2765 10.2964 41.2311 10.2897 41.1886 10.2738C41.1462 10.2578 41.1077 10.233 41.076 10.2009C41.0443 10.1689 41.0199 10.1305 41.0048 10.0883C40.9896 10.0461 40.9839 10.0012 40.9881 9.95658ZM53.8733 23.5384H57.6556C57.8328 23.5384 58.0028 23.4692 58.1283 23.3459C58.2538 23.2226 58.3246 23.0553 58.3252 22.8807V15.4301C58.3226 15.3862 58.3294 15.3422 58.3452 15.301C58.361 15.2598 58.3855 15.2224 58.417 15.1912C58.4485 15.16 58.4863 15.1357 58.528 15.1198C58.5697 15.104 58.6143 15.097 58.659 15.0993H59.6644C59.7572 15.0849 59.8523 15.0995 59.9364 15.1411C60.0204 15.1827 60.0891 15.2491 60.1329 15.3311L63.3401 22.9798C63.4728 23.2749 63.7081 23.5384 64.0419 23.5384H68.1258C68.2293 23.5398 68.3315 23.5154 68.423 23.4675C68.5144 23.4197 68.5921 23.3498 68.6488 23.2645C68.7056 23.1791 68.7395 23.0811 68.7476 22.9794C68.7556 22.8777 68.7375 22.7756 68.6948 22.6826L65.2544 14.7704C65.1196 14.4733 65.1196 14.1761 65.3871 13.978C67.4622 12.3932 68.7009 10.3528 68.7009 7.8468C68.7009 3.48857 65.6545 0.461577 61.2368 0.461577H53.8733C53.6958 0.462099 53.5258 0.531769 53.4004 0.655369C53.2749 0.77897 53.2042 0.946458 53.2037 1.12125V22.8807C53.2042 23.0553 53.275 23.2226 53.4005 23.3459C53.526 23.4692 53.696 23.5384 53.8733 23.5384ZM58.3252 9.95658V5.74494C58.3226 5.701 58.3294 5.657 58.3452 5.61583C58.361 5.57467 58.3855 5.53725 58.417 5.50603C58.4485 5.47481 58.4863 5.45048 58.528 5.43464C58.5697 5.41881 58.6143 5.41181 58.659 5.41411H61.1041C62.4754 5.41411 63.4467 6.47 63.4467 7.85473C63.4467 9.23946 62.4754 10.2934 61.1041 10.2934H58.659C58.6137 10.2961 58.5684 10.2892 58.5261 10.2731C58.4838 10.257 58.4455 10.2322 58.4139 10.2002C58.3822 10.1683 58.3579 10.13 58.3426 10.0879C58.3273 10.0459 58.3213 10.0011 58.3252 9.95658ZM71.2445 23.5384H83.3938C83.571 23.5384 83.741 23.4692 83.8665 23.3459C83.992 23.2226 84.0628 23.0553 84.0634 22.8807V19.2535C84.0628 19.0787 83.9921 18.9112 83.8666 18.7876C83.7412 18.664 83.5712 18.5943 83.3938 18.5938H76.0302C75.9856 18.5967 75.9409 18.5902 75.8991 18.5747C75.8572 18.5592 75.8192 18.5351 75.7876 18.504C75.756 18.4728 75.7315 18.4354 75.7158 18.3942C75.7001 18.353 75.6935 18.3089 75.6964 18.265V14.7704C75.6935 14.7264 75.7001 14.6823 75.7158 14.641C75.7315 14.5997 75.756 14.5621 75.7875 14.5308C75.8191 14.4995 75.8571 14.4752 75.8989 14.4595C75.9408 14.4438 75.9855 14.437 76.0302 14.4396H83.068C83.2454 14.4391 83.4154 14.3694 83.5409 14.2458C83.6664 14.1222 83.7371 13.9547 83.7376 13.7799V10.1547C83.7371 9.97989 83.6664 9.8124 83.5409 9.6888C83.4154 9.5652 83.2454 9.49553 83.068 9.49501H76.0302C75.9857 9.4976 75.9411 9.49087 75.8994 9.47527C75.8577 9.45966 75.8199 9.43552 75.7883 9.40445C75.7568 9.37338 75.7323 9.33608 75.7165 9.29501C75.7006 9.25393 75.6938 9.21002 75.6964 9.16616V5.74494C75.6935 5.70092 75.7001 5.65679 75.7158 5.61547C75.7315 5.57416 75.756 5.53661 75.7875 5.50532C75.8191 5.47403 75.8571 5.44972 75.8989 5.43399C75.9408 5.41827 75.9855 5.41149 76.0302 5.41411H83.3938C83.5712 5.41359 83.7412 5.34392 83.8666 5.22032C83.9921 5.09672 84.0628 4.92923 84.0634 4.75444V1.12125C84.0628 0.946458 83.9921 0.77897 83.8666 0.655369C83.7412 0.531769 83.5712 0.462099 83.3938 0.461577H71.2445C71.0678 0.46314 70.8988 0.533268 70.7742 0.656757C70.6496 0.780245 70.5795 0.94714 70.579 1.12125V22.8807C70.5795 23.0547 70.6497 23.2213 70.7744 23.3445C70.899 23.4677 71.068 23.5374 71.2445 23.5384ZM93.5644 24C98.0504 24 101.497 21.1335 101.497 16.5831C101.497 12.9558 99.5887 10.8381 95.9411 9.75848L93.4015 8.99975C91.7929 8.53818 91.0247 7.8468 91.0247 6.72555C91.0247 5.53694 91.9296 4.71482 93.502 4.71482C95.0423 4.71482 96.1161 5.37449 96.1161 6.72555V6.95732C96.1166 7.13194 96.1874 7.29922 96.3129 7.42251C96.4384 7.54579 96.6084 7.61502 96.7857 7.61502H100.634C100.812 7.61502 100.982 7.54579 101.107 7.42251C101.233 7.29922 101.303 7.13194 101.304 6.95732V6.73545C101.3 2.73578 98.1872 0 93.7695 0C89.018 0 85.7705 2.97152 85.7705 6.98902C85.7705 10.3567 87.9462 12.7597 91.26 13.6492L93.7373 14.3089C95.4103 14.7704 96.2126 15.5609 96.2126 16.8149C96.2126 18.265 95.1428 19.2872 93.502 19.2872C92.0301 19.2872 90.888 18.3303 90.888 16.8149V16.484C90.8875 16.3092 90.8167 16.1417 90.6913 16.0181C90.5658 15.8945 90.3958 15.8249 90.2184 15.8243H86.239C86.0616 15.8249 85.8916 15.8945 85.7661 16.0181C85.6407 16.1417 85.57 16.3092 85.5694 16.484V16.6405C85.5694 21.0661 89.1165 24 93.5684 24H93.5644ZM104.075 23.5384H116.224C116.401 23.5384 116.571 23.4692 116.697 23.3459C116.822 23.2226 116.893 23.0553 116.894 22.8807V19.2535C116.893 19.0787 116.822 18.9112 116.697 18.7876C116.571 18.664 116.401 18.5943 116.224 18.5938H108.865C108.82 18.5967 108.775 18.5902 108.733 18.5747C108.692 18.5592 108.654 18.5351 108.622 18.504C108.59 18.4728 108.566 18.4354 108.55 18.3942C108.534 18.353 108.528 18.3089 108.531 18.265V14.7704C108.528 14.7264 108.534 14.6823 108.55 14.641C108.566 14.5997 108.59 14.5621 108.622 14.5308C108.653 14.4995 108.691 14.4752 108.733 14.4595C108.775 14.4438 108.82 14.437 108.865 14.4396H115.902C116.08 14.4391 116.249 14.3694 116.374 14.2457C116.5 14.122 116.57 13.9546 116.57 13.7799V10.1547C116.57 9.98007 116.5 9.81258 116.374 9.68892C116.249 9.56526 116.08 9.49553 115.902 9.49501H108.865C108.82 9.4976 108.775 9.49087 108.734 9.47527C108.692 9.45966 108.654 9.43552 108.623 9.40445C108.591 9.37338 108.567 9.33608 108.551 9.29501C108.535 9.25393 108.528 9.21002 108.531 9.16616V5.74494C108.528 5.70092 108.534 5.65679 108.55 5.61547C108.566 5.57416 108.59 5.53661 108.622 5.50532C108.653 5.47403 108.691 5.44972 108.733 5.43399C108.775 5.41827 108.82 5.41149 108.865 5.41411H116.224C116.312 5.41438 116.4 5.39752 116.481 5.36451C116.563 5.3315 116.637 5.28298 116.7 5.22172C116.762 5.16046 116.812 5.08767 116.846 5.00749C116.88 4.92732 116.897 4.84133 116.898 4.75444V1.12125C116.897 1.03436 116.88 0.948376 116.846 0.868199C116.812 0.788022 116.762 0.715227 116.7 0.65397C116.637 0.592714 116.563 0.544194 116.481 0.511183C116.4 0.478172 116.312 0.461316 116.224 0.461577H104.079C103.901 0.462099 103.731 0.531769 103.606 0.655369C103.48 0.77897 103.41 0.946458 103.409 1.12125V22.8807C103.41 23.0553 103.481 23.2226 103.606 23.3459C103.732 23.4692 103.902 23.5384 104.079 23.5384H104.075ZM119.572 23.5384H123.352C123.53 23.5384 123.7 23.4692 123.825 23.3459C123.951 23.2226 124.021 23.0553 124.022 22.8807V12.1317C124.022 11.5711 124.49 11.5374 124.691 12.0327L128.942 22.9124C128.988 23.0831 129.087 23.2354 129.225 23.3477C129.363 23.4601 129.534 23.5268 129.712 23.5384H133.897C134.074 23.5384 134.244 23.4692 134.37 23.3459C134.495 23.2226 134.566 23.0553 134.567 22.8807V1.12125C134.566 0.946458 134.495 0.77897 134.37 0.655369C134.244 0.531769 134.074 0.462099 133.897 0.461577H130.119C129.941 0.462099 129.771 0.531769 129.646 0.655369C129.52 0.77897 129.45 0.946458 129.449 1.12125V11.8683C129.449 12.4289 128.981 12.4626 128.779 11.9673L124.529 1.08758C124.483 0.917014 124.384 0.764894 124.246 0.652606C124.108 0.540318 123.937 0.47351 123.758 0.461577H119.576C119.399 0.462099 119.229 0.531769 119.103 0.655369C118.978 0.77897 118.907 0.946458 118.906 1.12125V22.8807C118.907 23.0553 118.978 23.2226 119.103 23.3459C119.229 23.4692 119.399 23.5384 119.576 23.5384H119.572ZM142.732 23.5384H146.553C146.73 23.5384 146.9 23.4692 147.026 23.3459C147.151 23.2226 147.222 23.0553 147.222 22.8807V5.74494C147.22 5.70082 147.227 5.65665 147.243 5.61534C147.259 5.57402 147.283 5.5365 147.315 5.50525C147.347 5.474 147.385 5.44972 147.427 5.43401C147.469 5.4183 147.513 5.41152 147.558 5.41411H152.217C152.393 5.41151 152.561 5.34086 152.684 5.21743C152.808 5.094 152.877 4.92769 152.877 4.75444V1.12125C152.876 0.948155 152.807 0.78214 152.684 0.658818C152.56 0.535495 152.393 0.464685 152.217 0.461577H137.08C136.903 0.462099 136.733 0.531769 136.607 0.655369C136.482 0.77897 136.411 0.946458 136.41 1.12125V4.75444C136.411 4.92923 136.482 5.09672 136.607 5.22032C136.733 5.34392 136.903 5.41359 137.08 5.41411H141.733C141.778 5.41181 141.822 5.41881 141.864 5.43464C141.906 5.45048 141.943 5.47481 141.975 5.50603C142.006 5.53725 142.031 5.57467 142.047 5.61583C142.063 5.657 142.069 5.701 142.067 5.74494V22.8807C142.067 23.0553 142.138 23.2226 142.264 23.3459C142.389 23.4692 142.559 23.5384 142.736 23.5384H142.732ZM162.078 23.5384H165.861C166.038 23.5384 166.208 23.4692 166.333 23.3459C166.459 23.2226 166.53 23.0553 166.53 22.8807V15.5609C166.527 15.5169 166.534 15.4729 166.549 15.4317C166.565 15.3904 166.59 15.353 166.621 15.3219C166.653 15.2907 166.691 15.2666 166.733 15.2511C166.775 15.2356 166.819 15.2291 166.864 15.232H169.442C173.866 15.232 176.906 12.1991 176.906 7.8468C176.906 3.49451 173.859 0.461577 169.442 0.461577H162.07C161.893 0.462099 161.723 0.531769 161.597 0.655369C161.472 0.77897 161.401 0.946458 161.401 1.12125V22.8807C161.403 23.0569 161.476 23.2251 161.603 23.3484C161.731 23.4717 161.903 23.54 162.082 23.5384H162.078ZM166.526 9.95658V5.74494C166.523 5.70082 166.53 5.65665 166.546 5.61534C166.562 5.57402 166.587 5.5365 166.619 5.50525C166.65 5.474 166.688 5.44972 166.73 5.43401C166.772 5.4183 166.817 5.41152 166.862 5.41411H169.309C170.68 5.41411 171.652 6.47 171.652 7.85473C171.652 9.23946 170.68 10.2854 169.309 10.2854H166.866C166.821 10.2883 166.776 10.2818 166.735 10.2663C166.693 10.2509 166.654 10.2268 166.623 10.1957C166.591 10.1646 166.566 10.1272 166.55 10.0859C166.534 10.0447 166.527 10.0006 166.53 9.95658H166.526ZM179.413 23.5384H191.563C191.74 23.5384 191.91 23.4692 192.035 23.3459C192.161 23.2226 192.232 23.0553 192.232 22.8807V19.2535C192.232 19.0787 192.161 18.9112 192.035 18.7876C191.91 18.664 191.74 18.5943 191.563 18.5938H184.203C184.158 18.5967 184.114 18.5902 184.072 18.5747C184.03 18.5592 183.992 18.5351 183.96 18.504C183.928 18.4729 183.903 18.4355 183.887 18.3943C183.871 18.3531 183.865 18.309 183.867 18.265V14.7704C183.865 14.7263 183.871 14.6822 183.887 14.6408C183.903 14.5995 183.928 14.562 183.96 14.5308C183.991 14.4995 184.03 14.4752 184.071 14.4595C184.113 14.4438 184.158 14.437 184.203 14.4396H190.461C190.638 14.4391 190.808 14.3694 190.934 14.2458C191.059 14.1222 191.13 13.9547 191.13 13.7799V10.1547C191.13 9.97989 191.059 9.8124 190.934 9.6888C190.808 9.5652 190.638 9.49553 190.461 9.49501H184.203C184.158 9.49757 184.114 9.49084 184.072 9.47525C184.03 9.45966 183.992 9.43556 183.961 9.40453C183.929 9.37349 183.904 9.33622 183.888 9.29515C183.872 9.25407 183.865 9.21012 183.867 9.16616V5.74494C183.865 5.70082 183.871 5.65665 183.887 5.61534C183.903 5.57402 183.928 5.5365 183.96 5.50525C183.991 5.474 184.03 5.44972 184.071 5.43401C184.113 5.4183 184.158 5.41152 184.203 5.41411H191.567C191.743 5.41255 191.912 5.34242 192.037 5.21893C192.161 5.09545 192.232 4.92855 192.232 4.75444V1.12125C192.232 0.946458 192.161 0.77897 192.035 0.655369C191.91 0.531769 191.74 0.462099 191.563 0.461577H179.417C179.24 0.462099 179.07 0.531769 178.944 0.655369C178.819 0.77897 178.748 0.946458 178.748 1.12125V22.8807C178.748 23.0553 178.819 23.2226 178.945 23.3459C179.07 23.4692 179.24 23.5384 179.417 23.5384H179.413ZM194.908 23.5384H198.691C198.868 23.5384 199.038 23.4692 199.164 23.3459C199.289 23.2226 199.36 23.0553 199.36 22.8807V15.4301C199.358 15.3862 199.365 15.3422 199.38 15.301C199.396 15.2598 199.421 15.2224 199.452 15.1912C199.484 15.16 199.522 15.1357 199.563 15.1198C199.605 15.104 199.65 15.097 199.694 15.0993H200.7C200.792 15.0849 200.888 15.0995 200.972 15.1411C201.056 15.1827 201.124 15.2491 201.168 15.3311L204.385 22.9798C204.518 23.2749 204.753 23.5384 205.087 23.5384H209.171C209.275 23.5398 209.377 23.5154 209.468 23.4675C209.56 23.4197 209.637 23.3498 209.694 23.2645C209.751 23.1791 209.785 23.0811 209.793 22.9794C209.801 22.8777 209.783 22.7756 209.74 22.6826L206.292 14.7704C206.159 14.4733 206.159 14.1761 206.426 13.978C208.501 12.3932 209.74 10.3528 209.74 7.8468C209.74 3.48857 206.694 0.461577 202.276 0.461577H194.913C194.735 0.462099 194.565 0.531769 194.44 0.655369C194.314 0.77897 194.243 0.946458 194.243 1.12125V22.8807C194.243 23.0553 194.314 23.2226 194.44 23.3459C194.565 23.4692 194.735 23.5384 194.913 23.5384H194.908ZM199.36 9.95658V5.74494C199.358 5.701 199.365 5.657 199.38 5.61583C199.396 5.57467 199.421 5.53725 199.452 5.50603C199.484 5.47481 199.522 5.45048 199.563 5.43464C199.605 5.41881 199.65 5.41181 199.694 5.41411H202.137C203.511 5.41411 204.482 6.47 204.482 7.85473C204.482 9.23946 203.511 10.2934 202.137 10.2934H199.698C199.653 10.2961 199.608 10.2892 199.565 10.2731C199.523 10.257 199.485 10.2322 199.453 10.2002C199.421 10.1683 199.397 10.13 199.382 10.0879C199.367 10.0459 199.361 10.0011 199.364 9.95658H199.36ZM212.28 23.5384H216.062C216.239 23.5384 216.409 23.4692 216.535 23.3459C216.66 23.2226 216.731 23.0553 216.732 22.8807V14.7704C216.729 14.7264 216.735 14.6823 216.751 14.641C216.767 14.5997 216.791 14.5621 216.823 14.5308C216.854 14.4995 216.892 14.4752 216.934 14.4595C216.976 14.4438 217.021 14.437 217.065 14.4396H223.558C223.736 14.4391 223.906 14.3694 224.031 14.2458C224.157 14.1222 224.227 13.9547 224.228 13.7799V10.1547C224.227 9.97989 224.157 9.8124 224.031 9.6888C223.906 9.5652 223.736 9.49553 223.558 9.49501H217.065C217.021 9.4976 216.976 9.49087 216.935 9.47527C216.893 9.45966 216.855 9.43552 216.824 9.40445C216.792 9.37338 216.768 9.33608 216.752 9.29501C216.736 9.25393 216.729 9.21002 216.732 9.16616V5.74494C216.729 5.70092 216.735 5.65679 216.751 5.61547C216.767 5.57416 216.791 5.53661 216.823 5.50532C216.854 5.47403 216.892 5.44972 216.934 5.43399C216.976 5.41827 217.021 5.41149 217.065 5.41411H223.902C224.08 5.41359 224.25 5.34392 224.375 5.22032C224.501 5.09672 224.571 4.92923 224.572 4.75444V1.12125C224.571 0.946458 224.501 0.77897 224.375 0.655369C224.25 0.531769 224.08 0.462099 223.902 0.461577H212.288C212.11 0.462099 211.94 0.531769 211.815 0.655369C211.689 0.77897 211.619 0.946458 211.618 1.12125V22.8807C211.619 23.0547 211.689 23.2213 211.814 23.3445C211.938 23.4677 212.107 23.5374 212.284 23.5384H212.28ZM227.24 23.5384H239.389C239.567 23.5384 239.737 23.4692 239.862 23.3459C239.988 23.2226 240.058 23.0553 240.059 22.8807V19.2535C240.058 19.0787 239.988 18.9112 239.862 18.7876C239.737 18.664 239.567 18.5943 239.389 18.5938H232.028C231.983 18.5967 231.938 18.5902 231.896 18.5747C231.854 18.5592 231.816 18.5351 231.785 18.504C231.753 18.4729 231.728 18.4355 231.712 18.3943C231.696 18.3531 231.689 18.309 231.692 18.265V14.7704C231.689 14.7263 231.696 14.6822 231.712 14.6408C231.728 14.5995 231.753 14.562 231.785 14.5308C231.816 14.4995 231.854 14.4752 231.896 14.4595C231.938 14.4438 231.983 14.437 232.028 14.4396H238.285C238.463 14.4391 238.633 14.3694 238.758 14.2458C238.884 14.1222 238.954 13.9547 238.955 13.7799V10.1547C238.954 9.97989 238.884 9.8124 238.758 9.6888C238.633 9.5652 238.463 9.49553 238.285 9.49501H232.028C231.983 9.49757 231.939 9.49084 231.897 9.47525C231.855 9.45966 231.817 9.43556 231.785 9.40453C231.754 9.37349 231.729 9.33622 231.713 9.29515C231.697 9.25407 231.69 9.21012 231.692 9.16616V5.74494C231.689 5.70082 231.696 5.65665 231.712 5.61534C231.728 5.57402 231.753 5.5365 231.785 5.50525C231.816 5.474 231.854 5.44972 231.896 5.43401C231.938 5.4183 231.983 5.41152 232.028 5.41411H239.389C239.567 5.41411 239.737 5.34461 239.863 5.2209C239.988 5.09719 240.059 4.92939 240.059 4.75444V1.12125C240.058 0.946458 239.988 0.77897 239.862 0.655369C239.737 0.531769 239.567 0.462099 239.389 0.461577H227.24C227.063 0.462099 226.893 0.531769 226.767 0.655369C226.642 0.77897 226.571 0.946458 226.57 1.12125V22.8807C226.571 22.9675 226.588 23.0534 226.622 23.1335C226.656 23.2135 226.706 23.2862 226.769 23.3473C226.831 23.4084 226.906 23.4567 226.987 23.4895C227.069 23.5223 227.156 23.5389 227.244 23.5384H227.24ZM249.741 24C254.326 24 257.605 21.496 257.784 16.3196C257.784 16.1448 257.713 15.9773 257.587 15.8537C257.462 15.7301 257.292 15.6604 257.115 15.6599H253.197C253.02 15.6604 252.85 15.7301 252.725 15.8537C252.599 15.9773 252.528 16.1448 252.528 16.3196C252.395 18.1322 251.321 18.9563 249.751 18.9563C248.512 18.9563 247.609 18.4948 247.107 17.4726C246.572 16.3533 246.572 14.3742 246.572 12.001C246.572 9.62773 246.572 7.64276 247.107 6.52745C247.575 5.50524 248.514 5.04366 249.751 5.04366C251.289 5.04366 252.365 5.96682 252.528 7.68238C252.542 7.85838 252.621 8.02305 252.751 8.14454C252.881 8.26603 253.053 8.3357 253.232 8.34007H257.115C257.292 8.34007 257.462 8.27085 257.587 8.14756C257.713 8.02427 257.784 7.85699 257.784 7.68238C257.601 2.47231 254.189 0 249.741 0C246.66 0 244.452 1.08758 243.147 2.93388C241.641 4.84556 241.306 7.88642 241.306 12.001C241.306 16.1156 241.708 19.1208 243.147 21.0661C244.483 22.8807 246.656 24 249.741 24ZM265.069 23.5384H268.89C269.067 23.5384 269.237 23.4692 269.362 23.3459C269.488 23.2226 269.559 23.0553 269.559 22.8807V5.74494C269.556 5.70092 269.563 5.65679 269.579 5.61547C269.594 5.57416 269.619 5.53661 269.65 5.50532C269.682 5.47403 269.72 5.44972 269.762 5.43399C269.804 5.41827 269.848 5.41149 269.893 5.41411H274.345C274.522 5.41359 274.692 5.34392 274.818 5.22032C274.943 5.09672 275.014 4.92923 275.015 4.75444V1.12125C275.014 0.946458 274.943 0.77897 274.818 0.655369C274.692 0.531769 274.522 0.462099 274.345 0.461577H259.618C259.441 0.462099 259.27 0.531769 259.145 0.655369C259.02 0.77897 258.949 0.946458 258.948 1.12125V4.75444C258.949 4.92923 259.02 5.09672 259.145 5.22032C259.27 5.34392 259.441 5.41359 259.618 5.41411H264.07C264.115 5.41149 264.159 5.41827 264.201 5.43399C264.243 5.44972 264.281 5.47403 264.312 5.50532C264.344 5.53661 264.369 5.57416 264.384 5.61547C264.4 5.65679 264.407 5.70092 264.404 5.74494V22.8807C264.404 23.054 264.474 23.2201 264.598 23.3431C264.721 23.4662 264.889 23.5363 265.065 23.5384H265.069ZM281.17 10.2201H283.311C283.347 10.2234 283.383 10.2189 283.417 10.2069C283.451 10.1948 283.482 10.1755 283.508 10.1504C283.533 10.1252 283.553 10.0948 283.565 10.0613C283.577 10.0278 283.582 9.99202 283.579 9.95658V3.23104C283.581 3.1966 283.596 3.16417 283.621 3.13976C283.645 3.11536 283.678 3.10063 283.713 3.09831H285.821C285.857 3.10168 285.893 3.09718 285.927 3.08513C285.961 3.07308 285.992 3.05378 286.017 3.02861C286.043 3.00343 286.062 2.97301 286.075 2.93951C286.087 2.90602 286.091 2.87027 286.088 2.83483V0.725052C286.091 0.689613 286.087 0.653867 286.075 0.62037C286.062 0.586873 286.043 0.556451 286.017 0.531279C285.992 0.506107 285.961 0.486807 285.927 0.474757C285.893 0.462708 285.857 0.458207 285.821 0.461577H278.783C278.747 0.458207 278.711 0.462708 278.677 0.474757C278.643 0.486807 278.612 0.506107 278.586 0.531279C278.561 0.556451 278.541 0.586873 278.529 0.62037C278.517 0.653867 278.512 0.689613 278.515 0.725052V2.83483C278.512 2.87027 278.517 2.90602 278.529 2.93951C278.541 2.97301 278.561 3.00343 278.586 3.02861C278.612 3.05378 278.643 3.07308 278.677 3.08513C278.711 3.09718 278.747 3.10168 278.783 3.09831H280.757C280.792 3.10108 280.824 3.11601 280.849 3.14037C280.873 3.16474 280.888 3.19691 280.89 3.23104V9.96649C280.888 10.0018 280.895 10.037 280.908 10.0697C280.922 10.1025 280.942 10.1319 280.968 10.1561C280.995 10.1802 281.026 10.1984 281.06 10.2094C281.094 10.2205 281.13 10.2241 281.166 10.2201H281.17ZM287.695 10.2201H289.838C289.874 10.2234 289.91 10.2189 289.944 10.2069C289.978 10.1948 290.009 10.1755 290.035 10.1504C290.06 10.1252 290.08 10.0948 290.092 10.0613C290.104 10.0278 290.109 9.99202 290.106 9.95658V5.24177C290.106 4.94461 290.439 4.94461 290.508 5.20809L291.744 9.99026C291.756 10.053 291.789 10.1099 291.838 10.1517C291.887 10.1934 291.949 10.2175 292.014 10.2201H293.421C293.486 10.2171 293.547 10.1928 293.596 10.1511C293.644 10.1093 293.677 10.0527 293.689 9.99026L294.927 5.20809C294.994 4.94461 295.33 4.94461 295.33 5.24177V9.95658C295.327 9.99212 295.331 10.0279 295.344 10.0614C295.356 10.0949 295.376 10.1253 295.402 10.1504C295.428 10.1755 295.459 10.1948 295.493 10.2068C295.527 10.2189 295.563 10.2234 295.599 10.2201H297.741C297.777 10.2234 297.813 10.2189 297.847 10.2069C297.881 10.1948 297.912 10.1755 297.937 10.1504C297.963 10.1252 297.982 10.0948 297.995 10.0613C298.007 10.0278 298.011 9.99202 298.008 9.95658V0.725052C298.011 0.689613 298.007 0.653867 297.995 0.62037C297.982 0.586873 297.963 0.556451 297.937 0.531279C297.912 0.506107 297.881 0.486807 297.847 0.474757C297.813 0.462708 297.777 0.458207 297.741 0.461577H294.582C294.512 0.458641 294.443 0.480101 294.388 0.522158C294.333 0.564215 294.295 0.624158 294.28 0.691374L292.913 6.33925C292.846 6.60272 292.577 6.60272 292.511 6.33925L291.103 0.669583C291.075 0.606464 291.028 0.553461 290.968 0.517953C290.908 0.482446 290.839 0.466201 290.769 0.471482H287.689C287.653 0.468112 287.616 0.472613 287.582 0.484662C287.548 0.496712 287.518 0.516012 287.492 0.541184C287.466 0.566356 287.447 0.596778 287.435 0.630275C287.422 0.663772 287.418 0.699518 287.421 0.734957V9.96649C287.419 10.0013 287.425 10.0361 287.438 10.0686C287.451 10.101 287.471 10.1303 287.497 10.1543C287.522 10.1784 287.553 10.1968 287.586 10.2081C287.62 10.2195 287.655 10.2235 287.691 10.2201H287.695Z" fill="#E40022"/>
</g>
</g>
<defs>
<clipPath id="clip0_458_6557">
<rect width="298" height="24" fill="white"/>
</clipPath>
</defs>
</svg>
