<svg width="17" height="16" viewBox="0 0 17 16" fill="none" xmlns="http://www.w3.org/2000/svg">
<mask id="mask0_684_7644" style="mask-type:luminance" maskUnits="userSpaceOnUse" x="0" y="0" width="17" height="16">
<path d="M16.5 0H0.5V16H16.5V0Z" fill="white"/>
</mask>
<g mask="url(#mask0_684_7644)">
<path d="M8.50084 11.7541C9.24445 11.7541 9.97136 11.5335 10.5896 11.1203C11.2078 10.7071 11.6895 10.1197 11.9739 9.43261C12.2582 8.7455 12.3323 7.98949 12.1869 7.26024C12.0414 6.53099 11.6829 5.86128 11.1567 5.33583C10.6305 4.81039 9.96032 4.45283 9.23087 4.3084C8.50142 4.16397 7.74551 4.23915 7.0588 4.52445C6.37209 4.80974 5.78544 5.29232 5.37307 5.91112C4.9607 6.52992 4.74115 7.25713 4.74219 8.00075C4.74359 8.99669 5.14021 9.95136 5.84494 10.6551C6.54967 11.3588 7.5049 11.7541 8.50084 11.7541Z" fill="#F8F7F2"/>
<path d="M8.50139 13.4536C10.7465 13.4536 12.577 13.7587 12.577 14.4626C12.577 15.1665 10.7518 15.9999 8.50139 15.9999C6.25096 15.9999 4.42578 15.1652 4.42578 14.4626C4.42578 13.76 6.24964 13.4536 8.50139 13.4536Z" fill="#F8F7F2"/>
<path d="M8.50139 0C10.7465 0 12.577 0.834668 12.577 1.53859C12.577 2.24251 10.7518 2.54627 8.50139 2.54627C6.25096 2.54627 4.42578 2.24515 4.42578 1.53859C4.42578 0.832026 6.24964 0 8.50139 0Z" fill="#F8F7F2"/>
<path d="M3.04627 8.00041C3.04627 10.2456 2.74119 12.076 2.03859 12.076C1.33599 12.076 0.5 10.2508 0.5 8.00041C0.5 5.74998 1.33467 3.9248 2.03859 3.9248C2.74251 3.9248 3.04627 5.74866 3.04627 8.00041Z" fill="#F8F7F2"/>
<path d="M16.4994 8.00041C16.4994 10.2456 15.6647 12.076 14.9621 12.076C14.2595 12.076 13.9531 10.2508 13.9531 8.00041C13.9531 5.74998 14.2582 3.9248 14.9621 3.9248C15.666 3.9248 16.4994 5.74866 16.4994 8.00041Z" fill="#F8F7F2"/>
</g>
</svg>
