<svg width="199" height="27" viewBox="0 0 199 27" fill="none" xmlns="http://www.w3.org/2000/svg">
<g clip-path="url(#clip0_684_7724)">
<path d="M15.2697 3.75112C15.2697 1.67112 13.2362 1.15112 11.6308 1.15112V1.46312C12.5941 1.46312 13.3432 1.77512 13.3432 2.50312C13.3432 2.91912 13.0222 3.54312 12.0589 3.54312C11.3097 3.54312 9.70432 3.12712 8.52703 2.71112C7.13568 2.19112 5.85135 1.77512 4.78108 1.77512C2.64054 1.77512 1.14216 3.33512 1.14216 5.10312C1.14216 6.66312 2.31946 7.18312 2.74757 7.39112L2.85459 7.18312C2.64054 6.97512 2.31946 6.76712 2.31946 6.14312C2.31946 5.72712 2.74757 4.99912 3.81784 4.99912C4.78108 4.99912 6.06541 5.41512 7.77784 5.93512C9.27622 6.35112 10.8816 6.66312 11.7378 6.76712V9.99112L10.1324 11.3431V11.4471L11.7378 12.7991V17.2711C10.8816 17.7911 9.91838 17.8951 9.06216 17.8951C7.45676 17.8951 6.06541 17.4791 4.88811 16.2311L9.27622 14.1511V6.97512L3.92487 9.26312C4.35297 7.91112 5.53027 6.97512 6.70757 6.35112L6.60054 6.03912C3.38973 6.87112 0.5 9.78312 0.5 13.3191C0.5 17.4791 4.03189 20.5991 7.99189 20.5991C12.273 20.5991 15.0557 17.2711 15.0557 13.8391H14.8416C14.1995 15.1911 13.2362 16.4391 12.0589 17.0631V12.7991L13.7714 11.4471V11.3431L12.0589 9.99112V6.76712C13.6643 6.76712 15.2697 5.72712 15.2697 3.75112ZM5.95838 15.1911L4.67405 15.8151C3.92487 14.8791 3.49676 13.6311 3.49676 11.8631C3.49676 11.1351 3.49676 10.3031 3.71081 9.67912L5.95838 8.74312V15.1911ZM17.3032 17.5831L15.9119 18.6231L16.1259 18.8311L16.7681 18.3111L19.1227 20.3911L22.3335 18.3111L22.2265 18.1031L21.3703 18.6231L20.3 17.5831V10.5111L21.1562 9.88712L22.9757 11.3431V17.6871C22.9757 21.6391 22.1195 22.2631 20.3 22.8871V23.1991C23.2968 23.3031 26.0795 22.3671 26.0795 17.2711V10.4071L27.0427 9.67912L26.8286 9.47112L25.9724 10.0951L23.2968 7.91112L20.3 10.0951V1.56712H20.0859L16.34 4.06312V4.27112C16.7681 4.47912 17.4103 4.68712 17.4103 5.83112L17.3032 17.5831ZM36.8892 16.4391L34.2135 18.4151L31.5378 16.3351V15.0871L36.5681 11.7591V11.6551L33.9995 7.91112L28.4341 10.8231V17.6871L27.3638 18.5191L27.5778 18.7271L28.5411 17.9991L32.18 20.5991L36.9962 16.8551L36.8892 16.4391ZM31.5378 14.6711V9.57512L31.7519 9.47112L34.1065 13.1111L31.5378 14.6711ZM57.3314 2.81512C57.3314 2.50312 57.2243 2.19112 57.1173 1.87912H56.9032C56.5822 2.71112 56.1541 3.12712 55.0838 3.12712C54.1205 3.12712 53.4784 2.60712 53.0503 2.19112L49.9465 5.62312L50.1605 5.83112L51.2308 4.89512C51.873 5.41512 52.4081 5.83112 53.9065 5.93512V14.5671L47.5919 4.06312C47.0568 3.23112 46.3076 2.08712 44.8092 2.08712C43.0968 2.08712 41.5984 3.54312 41.8124 5.83112H42.1335C42.2405 5.20712 42.5616 4.47912 43.3108 4.47912C43.8459 4.47912 44.3811 4.99912 44.7022 5.51912V8.95112C42.7757 8.95112 41.4914 9.78312 41.4914 11.3431C41.4914 12.1751 41.9195 13.4231 43.2038 13.7351V13.5271C42.9897 13.3191 42.8827 13.1111 42.8827 12.7991C42.8827 12.2791 43.3108 11.8631 44.06 11.8631H44.5951V16.2311C42.3476 16.2311 40.5281 17.4791 40.5281 19.5591C40.5281 21.5351 42.2405 22.4711 44.167 22.3671V22.1591C42.9897 22.0551 42.4546 21.5351 42.4546 20.8071C42.4546 19.8711 43.0968 19.4551 43.953 19.4551C44.8092 19.4551 45.5584 19.9751 46.0935 20.5991L49.1973 17.2711L48.9832 17.0631L48.2341 17.8951C47.0568 16.8551 46.4146 16.5431 45.0232 16.3351V5.93512L53.5854 20.4951H54.2276V5.93512C55.833 5.83112 57.3314 4.58312 57.3314 2.81512ZM65.1443 16.4391L62.4687 18.4151L59.793 16.3351V15.0871L64.8232 11.7591V11.6551L62.2546 7.91112L56.6892 10.8231V17.6871L55.6189 18.5191L55.833 18.7271L56.7962 17.9991L60.4351 20.5991L65.2514 16.8551L65.1443 16.4391ZM59.793 14.6711V9.57512L60.007 9.47112L62.3616 13.1111L59.793 14.6711ZM82.5897 9.05512L81.8405 9.57512L79.807 7.91112L77.4524 9.99112L78.4157 10.9271V18.7271L75.847 17.1671V10.7191L76.7032 10.1991L74.2416 7.91112L71.887 9.99112L72.8503 10.9271V18.4151L72.5292 18.6231L70.2816 17.0631V10.8231C70.2816 9.36712 69.5324 8.95112 68.6762 8.43112C67.927 7.91112 67.4989 7.59912 67.4989 6.87112C67.4989 6.24712 68.1411 5.93512 68.4622 5.72712V5.51912C67.6059 5.51912 65.3584 6.35112 65.3584 8.32712C65.3584 9.36712 65.8935 9.78312 66.4286 10.3031C66.9638 10.8231 67.4989 11.2391 67.4989 12.1751V18.2071L66.3216 19.0391L66.5357 19.2471L67.6059 18.4151L70.0676 20.4951L72.7432 18.7271L75.74 20.4951L81.4124 17.2711V10.3031L82.8038 9.26312L82.5897 9.05512ZM102.497 3.33512L101.426 4.27112L99.0719 2.19112L95.54 4.68712V2.39912H95.2189L95.326 19.2471C95.0049 19.2471 94.0416 19.0391 93.2924 18.8311L93.0784 4.79112C93.0784 3.75112 92.3292 2.29512 90.4027 2.29512C88.4762 2.29512 87.1919 3.75112 87.1919 5.20712H87.513C87.62 4.58312 87.9411 4.06312 88.5833 4.06312C89.2254 4.06312 89.7605 4.47912 89.7605 5.83112V9.88712C87.8341 9.99112 86.6568 11.0311 86.6568 12.3831C86.6568 13.2151 87.0849 14.4631 88.3692 14.4631V14.2551C87.9411 14.0471 87.8341 13.7351 87.8341 13.5271C87.8341 12.9031 88.3692 12.6951 89.2254 12.6951H89.6535V19.1431C88.0481 19.6631 87.4059 20.8071 87.4059 22.0551C87.4059 23.8231 88.7973 25.0711 90.9378 25.0711C92.4362 25.0711 93.7205 24.8631 95.0049 24.5511C96.0751 24.3431 97.4665 24.0311 98.1087 24.0311C98.9649 24.0311 99.2859 24.4471 99.2859 24.9671C99.2859 25.6951 98.9649 26.0071 98.5368 26.1111V26.3191C100.249 26.0071 101.319 24.9671 101.319 23.4071C101.319 21.8471 99.7141 20.9111 98.0016 20.9111C97.1454 20.9111 95.326 21.2231 94.0416 21.4311C92.5433 21.7431 91.0449 21.9511 90.6168 21.9511C89.8676 21.9511 89.0114 21.6391 89.0114 20.5991C89.0114 19.7671 89.7605 19.0391 91.58 19.0391C92.5432 19.0391 93.7205 19.1431 94.8978 19.4551C96.1822 19.7671 97.3595 20.0791 98.4297 20.0791C100.035 20.0791 101.426 19.5591 101.426 17.3751V4.58312L102.711 3.54312L102.497 3.33512ZM98.1087 9.67912C97.7876 9.99112 97.3595 10.3031 96.8243 10.3031C96.2892 10.3031 95.7541 9.99112 95.54 9.67912V5.10312L96.6103 4.37512L98.1087 5.72712V9.67912ZM98.1087 12.7991C97.8946 12.5911 97.3595 12.2791 96.8243 12.2791C96.2892 12.2791 95.7541 12.5911 95.54 12.7991V10.0951C95.7541 10.3031 96.2892 10.6151 96.8243 10.6151C97.3595 10.6151 97.8946 10.3031 98.1087 10.0951V12.7991ZM98.1087 17.6871C98.1087 18.5191 97.5735 19.3511 96.3962 19.3511H95.54V13.2151C95.7541 13.0071 96.2892 12.6951 96.8243 12.6951C97.3595 12.6951 97.7876 13.0071 98.1087 13.2151V17.6871ZM112.771 10.3031L109.346 7.91112L104.102 10.8231V17.5831L103.032 18.4151L103.139 18.6231L103.995 17.9991L107.42 20.4951L112.771 17.3751V10.3031ZM106.992 16.8551V9.36712L109.668 11.2391V18.6231L106.992 16.8551ZM122.939 8.11912H122.725C122.404 8.32712 122.083 8.53512 121.762 8.53512C121.334 8.53512 120.798 8.32712 120.584 8.01512H120.37L118.551 9.99112L116.731 8.01512L113.521 10.0951L113.628 10.3031L114.484 9.78312L115.554 10.9271V17.4791L114.163 18.5191L114.377 18.7271L115.019 18.2071L117.588 20.2871L120.905 18.1031L120.798 17.8951L119.835 18.4151L118.551 17.3751V10.0951C119.086 10.6151 119.728 11.1351 120.477 11.1351C121.976 11.2391 122.832 9.78312 122.939 8.11912ZM135.782 18.1031L132.143 20.4951L127.22 13.2151L130.752 7.91112H130.966C131.394 8.32712 132.036 8.74312 132.785 8.74312C133.535 8.74312 134.07 8.32712 134.391 7.91112H134.605C134.498 9.99112 132.999 11.2391 131.929 11.2391C130.859 11.2391 130.324 10.7191 129.682 10.4071L129.361 10.9271L134.712 18.6231L135.782 17.9991V18.1031ZM124.009 17.5831L122.618 18.6231L122.832 18.8311L123.474 18.3111L125.829 20.3911L129.039 18.3111L128.825 18.1031L127.969 18.6231L126.899 17.5831V1.56712H126.792L122.939 4.06312V4.27112C123.367 4.47912 124.009 4.58312 124.009 5.83112V17.5831ZM153.549 3.75112C153.549 1.67112 151.515 1.15112 149.91 1.15112V1.46312C150.873 1.46312 151.622 1.77512 151.622 2.50312C151.622 2.91912 151.301 3.54312 150.338 3.54312C149.589 3.54312 147.983 3.12712 146.806 2.71112C145.415 2.29512 144.13 1.87912 143.06 1.87912C140.919 1.87912 139.421 3.43912 139.421 5.20712C139.421 6.76712 140.598 7.28712 141.026 7.49512L141.134 7.28712C140.812 7.07912 140.491 6.87112 140.491 6.24712C140.491 5.83112 140.919 5.10312 141.99 5.10312C142.953 5.10312 144.237 5.51912 145.95 6.03912C147.448 6.45512 149.054 6.76712 149.91 6.87112V10.0951L148.304 11.4471V11.5511L149.91 12.9031V17.3751C149.054 17.8951 148.09 17.9991 147.234 17.9991C145.629 17.9991 144.237 17.5831 143.06 16.3351L147.448 14.2551V6.97512L142.097 9.26312C142.632 7.91112 143.809 6.97512 144.879 6.24712L144.772 6.03912C141.562 6.87112 138.672 9.67912 138.672 13.2151C138.672 17.3751 142.204 20.4951 146.164 20.4951C150.445 20.4951 153.228 17.1671 153.228 13.7351H153.014C152.371 15.0871 151.408 16.3351 150.231 16.9591V12.6951L151.943 11.3431V11.2391L150.338 9.88712V6.76712C151.943 6.76712 153.549 5.72712 153.549 3.75112ZM144.237 15.1911L142.953 15.8151C142.204 14.8791 141.776 13.6311 141.776 11.8631C141.776 11.1351 141.883 10.3031 142.097 9.67912L144.344 8.74312L144.237 15.1911ZM157.295 2.71112H157.188L155.047 4.47912V4.58312L156.867 6.55912H157.081L159.221 4.79112V4.68712L157.295 2.71112ZM160.505 18.1031L159.649 18.6231L158.579 17.5831V10.4071L159.649 9.67912L159.435 9.47112L158.686 10.0951L156.759 7.91112L153.656 9.99112L153.87 10.3031L154.619 9.78312L155.582 10.9271V17.6871L154.191 18.7271L154.298 18.9351L155.047 18.4151L157.402 20.4951L160.612 18.4151L160.505 18.1031ZM178.379 17.9991L177.63 18.5191L176.452 17.4791V10.4071L177.523 9.57512L177.309 9.36712L176.452 10.0951L173.991 7.91112L170.78 10.0951L168.318 7.91112L165.322 10.0951L163.395 7.91112L160.291 9.99112L160.398 10.3031L161.148 9.78312L162.218 10.9271V17.6871L161.362 18.5191L163.823 20.4951L166.178 18.4151L165.215 17.4791V10.4071L166.178 9.78312L167.783 11.2391V17.4791L166.927 18.3111L169.389 20.2871L171.743 18.2071L170.78 17.2711V10.4071L171.636 9.88712L173.349 11.3431V17.5831L172.599 18.3111L175.061 20.4951L178.379 18.3111V17.9991ZM187.69 16.4391L185.015 18.4151L182.339 16.3351V15.0871L187.369 11.7591V11.6551L184.801 7.91112L179.235 10.8231V17.8951L182.981 20.4951L187.797 16.7511L187.69 16.4391ZM182.339 14.6711V9.57512L182.553 9.47112L184.908 13.1111L182.339 14.6711ZM197.43 13.7351L195.396 12.1751C196.788 11.0311 197.323 9.47112 197.323 8.43112V7.80712H197.109C196.895 8.32712 196.466 8.84712 195.61 8.84712C194.754 8.84712 194.219 8.43112 193.684 7.80712L188.868 10.4071V14.1511L190.687 15.5031C188.868 17.0631 188.546 18.1031 188.546 18.9351C188.546 19.9751 189.082 20.7031 189.938 21.0151L190.045 20.8071C189.831 20.5991 189.617 20.4951 189.617 19.9751C189.617 19.6631 190.045 19.1431 190.901 19.1431C191.971 19.1431 192.614 19.8711 192.935 20.1831L197.537 17.4791V13.7351H197.43ZM196.252 10.6151C195.503 11.8631 193.898 13.1111 192.935 13.7351L191.757 12.7991V9.15912C192.185 10.1991 193.363 11.0311 194.54 11.0311C195.289 11.0311 195.717 10.9271 196.252 10.6151ZM194.433 18.9351C193.898 17.7911 192.614 16.9591 191.329 16.9591C191.008 16.9591 190.152 16.9591 189.296 17.4791C189.831 16.6471 191.222 15.1911 193.042 14.1511L194.326 15.1911L194.433 18.9351Z" fill="#ACA09A"/>
</g>
<defs>
<clipPath id="clip0_684_7724">
<rect width="198" height="26" fill="white" transform="translate(0.5 0.735107)"/>
</clipPath>
</defs>
</svg>
