<svg width="269" height="36" viewBox="0 0 269 36" fill="none" xmlns="http://www.w3.org/2000/svg">
<g clip-path="url(#clip0_458_6582)">
<path d="M20.2414 4.17617C20.2414 1.29617 17.4889 0.576172 15.3159 0.576172V1.00817C16.6197 1.00817 17.6338 1.44017 17.6338 2.44817C17.6338 3.02417 17.1992 3.88817 15.8954 3.88817C14.8814 3.88817 12.7084 3.31217 11.1149 2.73617C9.23162 2.01617 7.49324 1.44017 6.04459 1.44017C3.1473 1.44017 1.11919 3.60017 1.11919 6.04817C1.11919 8.20817 2.7127 8.92817 3.29216 9.21617L3.43703 8.92817C3.1473 8.64017 2.7127 8.35217 2.7127 7.48817C2.7127 6.91217 3.29216 5.90417 4.74081 5.90417C6.04459 5.90417 7.78297 6.48017 10.1008 7.20017C12.1289 7.77617 14.3019 8.20817 15.4608 8.35217V12.8162L13.2878 14.6882V14.8322L15.4608 16.7042V22.8962C14.3019 23.6162 12.9981 23.7602 11.8392 23.7602C9.66622 23.7602 7.78297 23.1842 6.18946 21.4562L12.1289 18.5762V8.64017L4.88568 11.8082C5.46514 9.93617 7.05865 8.64017 8.65216 7.77617L8.5073 7.34417C4.16135 8.49617 0.25 12.5282 0.25 17.4242C0.25 23.1842 5.03054 27.5042 10.3905 27.5042C16.1851 27.5042 19.9516 22.8962 19.9516 18.1442H19.6619C18.7927 20.0162 17.4889 21.7442 15.8954 22.6082V16.7042L18.2132 14.8322V14.6882L15.8954 12.8162V8.35217C18.0684 8.35217 20.2414 6.91217 20.2414 4.17617ZM7.63811 20.0162L5.89973 20.8802C4.88568 19.5842 4.30622 17.8562 4.30622 15.4082C4.30622 14.4002 4.30622 13.2482 4.59595 12.3842L7.63811 11.0882V20.0162ZM22.9938 23.3282L21.1105 24.7682L21.4003 25.0562L22.2695 24.3362L25.4565 27.2162L29.8024 24.3362L29.6576 24.0482L28.4986 24.7682L27.05 23.3282V13.5362L28.2089 12.6722L30.6716 14.6882V23.4722C30.6716 28.9442 29.5127 29.8082 27.05 30.6722V31.1042C31.1062 31.2482 34.8727 29.9522 34.8727 22.8962V13.3922L36.1765 12.3842L35.8868 12.0962L34.7278 12.9602L31.1062 9.93617L27.05 12.9602V1.15217H26.7603L21.69 4.60817V4.89617C22.2695 5.18417 23.1386 5.47217 23.1386 7.05617L22.9938 23.3282ZM49.5041 21.7442L45.8824 24.4802L42.2608 21.6002V19.8722L49.0695 15.2642V15.1202L45.5927 9.93617L38.0597 13.9682V23.4722L36.6111 24.6242L36.9008 24.9122L38.2046 23.9042L43.13 27.5042L49.6489 22.3202L49.5041 21.7442ZM42.2608 19.2962V12.2402L42.5505 12.0962L45.7376 17.1362L42.2608 19.2962ZM77.1732 2.88017C77.1732 2.44817 77.0284 2.01617 76.8835 1.58417H76.5938C76.1592 2.73617 75.5797 3.31217 74.1311 3.31217C72.8273 3.31217 71.9581 2.59217 71.3786 2.01617L67.1776 6.76817L67.4673 7.05617L68.9159 5.76017C69.7851 6.48017 70.5095 7.05617 72.5376 7.20017V19.1522L63.9905 4.60817C63.2662 3.45617 62.2522 1.87217 60.2241 1.87217C57.9062 1.87217 55.8781 3.88817 56.1678 7.05617H56.6024C56.7473 6.19217 57.1819 5.18417 58.1959 5.18417C58.9203 5.18417 59.6446 5.90417 60.0792 6.62417V11.3762C57.4716 11.3762 55.7332 12.5282 55.7332 14.6882C55.7332 15.8402 56.3127 17.5682 58.0511 18.0002V17.7122C57.7614 17.4242 57.6165 17.1362 57.6165 16.7042C57.6165 15.9842 58.1959 15.4082 59.21 15.4082H59.9343V21.4562C56.8922 21.4562 54.4295 23.1842 54.4295 26.0642C54.4295 28.8002 56.7473 30.0962 59.3549 29.9522V29.6642C57.7614 29.5202 57.037 28.8002 57.037 27.7922C57.037 26.4962 57.9062 25.9202 59.0651 25.9202C60.2241 25.9202 61.2381 26.6402 61.9624 27.5042L66.1635 22.8962L65.8738 22.6082L64.8597 23.7602C63.2662 22.3202 62.397 21.8882 60.5138 21.6002V7.20017L72.103 27.3602H72.9722V7.20017C75.1451 7.05617 77.1732 5.32817 77.1732 2.88017ZM87.7484 21.7442L84.1268 24.4802L80.5051 21.6002V19.8722L87.3138 15.2642V15.1202L83.837 9.93617L76.3041 13.9682V23.4722L74.8554 24.6242L75.1451 24.9122L76.4489 23.9042L81.3743 27.5042L87.8932 22.3202L87.7484 21.7442ZM80.5051 19.2962V12.2402L80.7949 12.0962L83.9819 17.1362L80.5051 19.2962ZM111.361 11.5202L110.347 12.2402L107.595 9.93617L104.408 12.8162L105.712 14.1122V24.9122L102.235 22.7522V13.8242L103.394 13.1042L100.062 9.93617L96.8749 12.8162L98.1786 14.1122V24.4802L97.7441 24.7682L94.7019 22.6082V13.9682C94.7019 11.9522 93.6878 11.3762 92.5289 10.6562C91.5149 9.93617 90.9354 9.50417 90.9354 8.49617C90.9354 7.63217 91.8046 7.20017 92.2392 6.91217V6.62417C91.0803 6.62417 88.0381 7.77617 88.0381 10.5122C88.0381 11.9522 88.7624 12.5282 89.4868 13.2482C90.2111 13.9682 90.9354 14.5442 90.9354 15.8402V24.1922L89.3419 25.3442L89.6316 25.6322L91.0803 24.4802L94.4122 27.3602L98.0338 24.9122L102.09 27.3602L109.768 22.8962V13.2482L111.651 11.8082L111.361 11.5202ZM138.306 3.60017L136.858 4.89617L133.671 2.01617L128.89 5.47217V2.30417H128.455L128.6 25.6322C128.166 25.6322 126.862 25.3442 125.848 25.0562L125.558 5.61617C125.558 4.17617 124.544 2.16017 121.936 2.16017C119.329 2.16017 117.591 4.17617 117.591 6.19217H118.025C118.17 5.32817 118.605 4.60817 119.474 4.60817C120.343 4.60817 121.067 5.18417 121.067 7.05617V12.6722C118.46 12.8162 116.866 14.2562 116.866 16.1282C116.866 17.2802 117.446 19.0082 119.184 19.0082V18.7202C118.605 18.4322 118.46 18.0002 118.46 17.7122C118.46 16.8482 119.184 16.5602 120.343 16.5602H120.922V25.4882C118.749 26.2082 117.88 27.7922 117.88 29.5202C117.88 31.9682 119.764 33.6962 122.661 33.6962C124.689 33.6962 126.427 33.4082 128.166 32.9762C129.614 32.6882 131.498 32.2562 132.367 32.2562C133.526 32.2562 133.96 32.8322 133.96 33.5522C133.96 34.5602 133.526 34.9922 132.946 35.1362V35.4242C135.264 34.9922 136.713 33.5522 136.713 31.3922C136.713 29.2322 134.54 27.9362 132.222 27.9362C131.063 27.9362 128.6 28.3682 126.862 28.6562C124.834 29.0882 122.806 29.3762 122.226 29.3762C121.212 29.3762 120.053 28.9442 120.053 27.5042C120.053 26.3522 121.067 25.3442 123.53 25.3442C124.834 25.3442 126.427 25.4882 128.021 25.9202C129.759 26.3522 131.353 26.7842 132.801 26.7842C134.974 26.7842 136.858 26.0642 136.858 23.0402V5.32817L138.596 3.88817L138.306 3.60017ZM132.367 12.3842C131.932 12.8162 131.353 13.2482 130.628 13.2482C129.904 13.2482 129.18 12.8162 128.89 12.3842V6.04817L130.339 5.04017L132.367 6.91217V12.3842ZM132.367 16.7042C132.077 16.4162 131.353 15.9842 130.628 15.9842C129.904 15.9842 129.18 16.4162 128.89 16.7042V12.9602C129.18 13.2482 129.904 13.6802 130.628 13.6802C131.353 13.6802 132.077 13.2482 132.367 12.9602V16.7042ZM132.367 23.4722C132.367 24.6242 131.642 25.7762 130.049 25.7762H128.89V17.2802C129.18 16.9922 129.904 16.5602 130.628 16.5602C131.353 16.5602 131.932 16.9922 132.367 17.2802V23.4722ZM152.213 13.2482L147.578 9.93617L140.479 13.9682V23.3282L139.031 24.4802L139.175 24.7682L140.334 23.9042L144.97 27.3602L152.213 23.0402V13.2482ZM144.391 22.3202V11.9522L148.012 14.5442V24.7682L144.391 22.3202ZM165.975 10.2242H165.686C165.251 10.5122 164.816 10.8002 164.382 10.8002C163.802 10.8002 163.078 10.5122 162.788 10.0802H162.499L160.036 12.8162L157.573 10.0802L153.227 12.9602L153.372 13.2482L154.531 12.5282L155.98 14.1122V23.1842L154.096 24.6242L154.386 24.9122L155.255 24.1922L158.732 27.0722L163.223 24.0482L163.078 23.7602L161.774 24.4802L160.036 23.0402V12.9602C160.76 13.6802 161.629 14.4002 162.644 14.4002C164.672 14.5442 165.831 12.5282 165.975 10.2242ZM183.359 24.0482L178.434 27.3602L171.77 17.2802L176.551 9.93617H176.84C177.42 10.5122 178.289 11.0882 179.303 11.0882C180.317 11.0882 181.041 10.5122 181.476 9.93617H181.766C181.621 12.8162 179.593 14.5442 178.144 14.5442C176.695 14.5442 175.971 13.8242 175.102 13.3922L174.667 14.1122L181.911 24.7682L183.359 23.9042V24.0482ZM167.424 23.3282L165.541 24.7682L165.831 25.0562L166.7 24.3362L169.887 27.2162L174.233 24.3362L173.943 24.0482L172.784 24.7682L171.335 23.3282V1.15217H171.191L165.975 4.60817V4.89617C166.555 5.18417 167.424 5.32817 167.424 7.05617V23.3282ZM207.407 4.17617C207.407 1.29617 204.654 0.576172 202.481 0.576172V1.00817C203.785 1.00817 204.799 1.44017 204.799 2.44817C204.799 3.02417 204.365 3.88817 203.061 3.88817C202.047 3.88817 199.874 3.31217 198.28 2.73617C196.397 2.16017 194.659 1.58417 193.21 1.58417C190.313 1.58417 188.285 3.74417 188.285 6.19217C188.285 8.35217 189.878 9.07217 190.458 9.36017L190.602 9.07217C190.168 8.78417 189.733 8.49617 189.733 7.63217C189.733 7.05617 190.313 6.04817 191.761 6.04817C193.065 6.04817 194.804 6.62417 197.121 7.34417C199.149 7.92017 201.322 8.35217 202.481 8.49617V12.9602L200.308 14.8322V14.9762L202.481 16.8482V23.0402C201.322 23.7602 200.019 23.9042 198.86 23.9042C196.687 23.9042 194.804 23.3282 193.21 21.6002L199.149 18.7202V8.64017L191.906 11.8082C192.631 9.93617 194.224 8.64017 195.673 7.63217L195.528 7.34417C191.182 8.49617 187.271 12.3842 187.271 17.2802C187.271 23.0402 192.051 27.3602 197.411 27.3602C203.206 27.3602 206.972 22.7522 206.972 18.0002H206.682C205.813 19.8722 204.509 21.6002 202.916 22.4642V16.5602L205.234 14.6882V14.5442L203.061 12.6722V8.35217C205.234 8.35217 207.407 6.91217 207.407 4.17617ZM194.804 20.0162L193.065 20.8802C192.051 19.5842 191.472 17.8562 191.472 15.4082C191.472 14.4002 191.617 13.2482 191.906 12.3842L194.948 11.0882L194.804 20.0162ZM212.477 2.73617H212.332L209.435 5.18417V5.32817L211.898 8.06417H212.187L215.085 5.61617V5.47217L212.477 2.73617ZM216.823 24.0482L215.664 24.7682L214.215 23.3282V13.3922L215.664 12.3842L215.374 12.0962L214.36 12.9602L211.753 9.93617L207.552 12.8162L207.841 13.2482L208.855 12.5282L210.159 14.1122V23.4722L208.276 24.9122L208.421 25.2002L209.435 24.4802L212.622 27.3602L216.968 24.4802L216.823 24.0482ZM241.015 23.9042L240.001 24.6242L238.408 23.1842V13.3922L239.856 12.2402L239.567 11.9522L238.408 12.9602L235.076 9.93617L230.73 12.9602L227.398 9.93617L223.342 12.9602L220.734 9.93617L216.533 12.8162L216.678 13.2482L217.692 12.5282L219.141 14.1122V23.4722L217.982 24.6242L221.314 27.3602L224.501 24.4802L223.197 23.1842V13.3922L224.501 12.5282L226.674 14.5442V23.1842L225.515 24.3362L228.847 27.0722L232.034 24.1922L230.73 22.8962V13.3922L231.889 12.6722L234.207 14.6882V23.3282L233.193 24.3362L236.525 27.3602L241.015 24.3362V23.9042ZM253.619 21.7442L249.997 24.4802L246.375 21.6002V19.8722L253.184 15.2642V15.1202L249.707 9.93617L242.174 13.9682V23.7602L247.245 27.3602L253.764 22.1762L253.619 21.7442ZM246.375 19.2962V12.2402L246.665 12.0962L249.852 17.1362L246.375 19.2962ZM266.801 18.0002L264.049 15.8402C265.932 14.2562 266.656 12.0962 266.656 10.6562V9.79217H266.367C266.077 10.5122 265.498 11.2322 264.339 11.2322C263.18 11.2322 262.455 10.6562 261.731 9.79217L255.212 13.3922V18.5762L257.675 20.4482C255.212 22.6082 254.778 24.0482 254.778 25.2002C254.778 26.6402 255.502 27.6482 256.661 28.0802L256.806 27.7922C256.516 27.5042 256.226 27.3602 256.226 26.6402C256.226 26.2082 256.806 25.4882 257.965 25.4882C259.413 25.4882 260.282 26.4962 260.717 26.9282L266.946 23.1842V18.0002H266.801ZM265.208 13.6802C264.194 15.4082 262.021 17.1362 260.717 18.0002L259.124 16.7042V11.6642C259.703 13.1042 261.297 14.2562 262.89 14.2562C263.904 14.2562 264.484 14.1122 265.208 13.6802ZM262.745 25.2002C262.021 23.6162 260.282 22.4642 258.544 22.4642C258.109 22.4642 256.951 22.4642 255.792 23.1842C256.516 22.0322 258.399 20.0162 260.862 18.5762L262.6 20.0162L262.745 25.2002Z" fill="#ACA09A"/>
</g>
<defs>
<clipPath id="clip0_458_6582">
<rect width="268" height="36" fill="white" transform="translate(0.25)"/>
</clipPath>
</defs>
</svg>
