<svg width="48" height="49" viewBox="0 0 48 49" fill="none" xmlns="http://www.w3.org/2000/svg">
<rect y="0.470459" width="48" height="48" rx="24" fill="#EEE8E4"/>
<rect y="0.470459" width="48" height="48" rx="24" stroke="#E40022"/>
<path d="M22.5013 24.4705H25.5012C25.6288 24.4707 25.7517 24.4221 25.8446 24.3348C25.9376 24.2474 25.9936 24.1278 26.0012 24.0005L26.0963 22.4705H21.9062L22.0013 24.0005C22.0089 24.1278 22.0649 24.2474 22.1579 24.3348C22.2508 24.4221 22.3737 24.4707 22.5013 24.4705Z" fill="#E40022"/>
<path d="M26 13.9705C26 13.8379 25.9473 13.7107 25.8536 13.6169C25.7598 13.5231 25.6326 13.4705 25.5 13.4705H22.5C22.3674 13.4705 22.2402 13.5231 22.1464 13.6169C22.0527 13.7107 22 13.8379 22 13.9705V15.4705H26V13.9705Z" fill="#E40022"/>
<path d="M21.5312 16.4705L21.8463 21.4705H26.1562L26.2462 20.0705L26.4713 16.4705H21.5312Z" fill="#E40022"/>
<path d="M31.5 24.4055C31.5867 22.9523 31.2467 21.5056 30.5218 20.2432C29.7969 18.9808 28.7188 17.958 27.42 17.3005L27.2 20.8005C27.6632 21.2642 28.0196 21.8235 28.2441 22.4392C28.4687 23.055 28.556 23.7124 28.5 24.3655C28.3743 25.5073 27.8269 26.561 26.9649 27.3204C26.103 28.0797 24.9886 28.4898 23.84 28.4705H18C17.6022 28.4705 17.2206 28.6285 16.9393 28.9098C16.658 29.1911 16.5 29.5726 16.5 29.9705C16.5 30.3683 16.658 30.7498 16.9393 31.0311C17.2206 31.3124 17.6022 31.4705 18 31.4705H23.5V32.4705H21C20.337 32.4705 19.7011 32.7339 19.2322 33.2027C18.7634 33.6715 18.5 34.3074 18.5 34.9705C18.5 35.1031 18.5527 35.2302 18.6464 35.324C18.7402 35.4178 18.8674 35.4705 19 35.4705H29C29.1326 35.4705 29.2598 35.4178 29.3536 35.324C29.4473 35.2302 29.5 35.1031 29.5 34.9705C29.5 34.3074 29.2366 33.6715 28.7678 33.2027C28.2989 32.7339 27.663 32.4705 27 32.4705H24.5V31.4705C24.5 31.4705 24.5 31.4705 24.5 31.4405C26.3169 31.3033 28.0239 30.5171 29.3091 29.2255C30.5943 27.9339 31.3719 26.223 31.5 24.4055Z" fill="#E40022"/>
</svg>
