<svg width="136" height="50" viewBox="0 0 136 50" fill="none" xmlns="http://www.w3.org/2000/svg">
<path d="M35.4162 12.2639C35.2977 11.6465 35.1994 11.024 35.0561 10.4125C34.7735 9.20605 34.1224 8.20691 33.2536 7.34119C32.205 6.29598 30.9301 5.68054 29.4775 5.4797C28.6703 5.3679 27.8632 5.47549 27.0593 5.68869C25.8607 6.00638 24.8765 6.65722 24.0462 7.52743C23.0431 8.57825 22.4555 9.87852 22.2625 11.306C22.1012 12.499 22.201 13.7091 22.6695 14.8394C23.1583 16.0186 23.8813 17.0357 24.922 17.8115C25.8287 18.4879 26.8453 18.9186 27.9526 19.0455C28.8203 19.145 29.6969 19.1017 30.5632 18.8309C31.4753 18.5458 32.2989 18.1225 33.0022 17.4995C34.5609 16.1192 35.3244 14.3638 35.4162 12.2639ZM28.7995 23.5432C26.3613 23.5994 24.2136 22.8986 22.2821 21.571C20.9148 20.6312 19.8249 19.3989 19.0305 17.9399C18.6802 17.2972 18.4575 16.5843 18.1836 15.9006C17.5502 14.3183 17.589 12.6577 17.6704 11.0052C17.7002 10.4007 17.878 9.79537 18.0502 9.2083C18.2319 8.58865 18.458 7.9777 18.7159 7.38501C19.3721 5.87914 20.3878 4.63646 21.6254 3.57243C22.4979 2.82244 23.4675 2.2261 24.5442 1.80953C25.3577 1.49465 26.17 1.1719 27.0557 1.13314C28.102 1.08707 29.1604 0.944096 30.193 1.04859C31.3452 1.16516 32.4584 1.5351 33.5286 2.03874C35.1196 2.78761 36.4291 3.87102 37.5184 5.21847C38.258 6.13335 38.8257 7.16535 39.2288 8.28163C39.4805 8.97881 39.651 9.68835 39.7864 10.4187C39.9934 11.5364 39.9302 12.6546 39.8653 13.7644C39.824 14.4742 39.5546 15.1723 39.3757 15.8725C39.135 16.8161 38.699 17.6736 38.1802 18.4902C37.412 19.6994 36.4305 20.6983 35.2662 21.5387C34.3213 22.2208 33.2924 22.7199 32.1974 23.0707C31.0758 23.4303 29.9129 23.5969 28.7995 23.5432ZM85.1173 38.6305C85.1173 38.4195 85.1195 38.2086 85.1164 37.9979C85.1148 37.8861 85.0973 37.7743 85.0973 37.6628C85.0965 34.63 85.0973 31.5972 85.0973 28.5643C85.0973 28.1379 85.0931 27.7115 85.0957 27.2851C85.0968 27.0748 85.1086 26.8787 85.4089 26.8801C86.7793 26.8866 88.1498 26.884 89.5203 26.8857C89.5521 26.8857 89.5841 26.8989 89.6495 26.9135C89.6549 27.0278 89.6655 27.1469 89.6653 27.266C89.6596 33.4106 89.6537 39.5552 89.6456 45.7C89.6442 46.8455 89.6349 47.9913 89.6242 49.1368C89.6234 49.2171 89.5804 49.2969 89.5568 49.377C89.4835 49.3466 89.3945 49.3331 89.3394 49.2829C88.3425 48.3733 87.3448 47.4643 86.3572 46.5447C85.2906 45.5517 84.2342 44.5478 83.1732 43.5487C82.394 42.815 81.6179 42.0779 80.8345 41.349C79.5022 40.11 78.1646 38.8771 76.8309 37.6398C76.5076 37.3401 76.1938 37.0305 75.868 36.7336C75.782 36.6555 75.6677 36.6083 75.5298 36.5246C75.5143 36.6299 75.4975 36.6915 75.4975 36.7527C75.5009 38.9094 75.4924 41.0664 75.5143 43.2228C75.532 44.9596 75.5818 46.6964 75.6301 48.4326C75.6379 48.7157 75.5764 48.8278 75.2644 48.8236C73.9728 48.8065 72.6807 48.8081 71.3891 48.8211C71.1015 48.8239 71.0372 48.7227 71.0374 48.4514C71.0436 41.1386 71.0419 33.8255 71.0425 26.5127C71.0425 26.3927 71.0529 26.2725 71.061 26.0989C75.7318 30.3171 80.3615 34.498 84.9912 38.6788C85.0333 38.6628 85.0752 38.6465 85.1173 38.6305ZM124.972 12.5985C125.981 12.5985 126.956 12.585 127.931 12.6022C128.985 12.6207 129.783 12.1423 130.359 11.3134C131.161 10.1606 131.274 8.86485 130.875 7.55392C130.55 6.48511 129.476 5.71798 128.332 5.69973C127.412 5.68512 126.492 5.69664 125.572 5.69636H124.972V12.5985ZM131.605 15.9588C133.073 18.3833 134.518 20.772 136 23.2214C135.813 23.234 135.718 23.2458 135.622 23.2458C134.252 23.2472 132.882 23.2323 131.512 23.2579C131.201 23.2638 131.055 23.141 130.928 22.9026C130.234 21.5987 129.539 20.2959 128.84 18.9945C128.455 18.2757 128.068 17.5571 127.667 16.8468C127.614 16.7532 127.473 16.6552 127.371 16.6527C126.653 16.6355 125.933 16.6515 125.215 16.6386C124.934 16.6333 124.951 16.7993 124.951 16.9889C124.955 18.8869 124.955 20.7852 124.956 22.6832C124.957 23.2492 124.958 23.2478 124.407 23.2475C123.193 23.2469 121.981 23.2472 120.768 23.2492C120.317 23.2498 120.311 23.2506 120.312 22.8031C120.315 18.6479 120.319 14.4923 120.322 10.337C120.324 7.45082 120.328 4.56463 120.316 1.67844C120.315 1.34755 120.416 1.26496 120.736 1.26637C123.33 1.27872 125.925 1.25766 128.519 1.28013C130.301 1.29558 131.91 1.84585 133.257 3.03657C134.198 3.86829 134.838 4.90002 135.245 6.10112C135.657 7.31656 135.72 8.5598 135.6 9.80107C135.421 11.6404 134.706 13.2791 133.379 14.594C132.948 15.0207 132.407 15.3364 131.918 15.7049C131.807 15.7886 131.702 15.8805 131.605 15.9588ZM56.4985 31.0149V35.5106H65.3444C65.3576 35.6235 65.3756 35.7086 65.3759 35.7935C65.3778 37.0182 65.3714 38.2429 65.3818 39.4673C65.3843 39.7403 65.2941 39.7993 65.0259 39.7909C64.1852 39.765 63.3433 39.774 62.5018 39.7735C60.5153 39.7721 58.5288 39.7732 56.5097 39.7732V44.6627H67.1433C67.1433 44.7256 67.143 44.7863 67.1424 44.8456C67.1416 44.9422 67.141 45.013 67.141 45.0192C67.1402 45.1234 67.1393 46.1144 67.1396 48.8253C67.1124 48.8253 67.0851 48.825 67.0579 48.825C62.1124 48.818 57.1667 48.811 52.2213 48.804C52.2005 48.8056 52.0909 48.8118 51.9974 48.7309C51.8929 48.6399 51.8929 48.5124 51.8932 48.4944C51.896 37.8943 51.896 28.0006 51.896 27.2933V26.9048H67.1244V31.0149H56.4985ZM130.654 26.9105V28.5057C130.654 29.2136 130.639 29.9217 130.66 30.6285C130.67 30.9492 130.548 31.0276 130.251 31.0265C128.105 31.0203 125.96 31.0279 123.814 31.0296C122.646 31.0307 121.479 31.0279 120.311 31.029C120.212 31.0293 120.113 31.0467 120 31.0574V35.5079H128.866C128.873 35.6556 128.883 35.7739 128.883 35.8924C128.884 37.0607 128.871 38.2289 128.89 39.3969C128.896 39.7387 128.77 39.8033 128.457 39.8019C125.706 39.7907 122.954 39.7952 120.202 39.7955C120.148 39.7955 120.093 39.8033 120.01 39.8095C120.002 39.9137 119.987 40.0095 119.987 40.105C119.985 41.5092 119.994 42.9134 119.977 44.3173C119.973 44.6274 120.078 44.6864 120.363 44.6856C123.654 44.6766 126.946 44.6802 130.237 44.6805H130.621C130.633 44.7917 130.651 44.8771 130.652 44.9628C130.653 46.142 130.647 47.3215 130.656 48.5007C130.658 48.7476 130.587 48.8237 130.33 48.8231C125.489 48.8147 120.648 48.8139 115.807 48.8215C115.511 48.8217 115.399 48.7625 115.399 48.4355C115.408 41.3365 115.405 34.2374 115.404 27.1383V26.9105H130.654ZM74.2671 1.29161C75.7985 1.29302 77.3297 1.29415 78.8611 1.29555C78.8662 1.6419 78.8715 1.98824 78.8766 2.33458C78.899 8.70893 78.8881 13.4226 78.8802 15.208C78.8791 15.4847 78.8735 16.1206 78.6937 16.9231C78.4145 18.1683 77.8308 19.3023 77.003 20.35C75.985 21.638 74.6733 22.5076 73.1486 23.0596C72.0132 23.4708 70.8315 23.5888 69.6216 23.5478C67.8203 23.4865 66.206 22.8924 64.7661 21.8554C63.5313 20.966 62.6159 19.7877 62.01 18.3801C61.5049 17.2068 61.3086 15.9861 61.3159 14.708C61.34 10.3721 61.3308 6.03593 61.3341 1.69976C61.3344 1.57729 61.3341 1.45482 61.3341 1.30173C62.8636 1.29977 64.3931 1.29752 65.9223 1.29555C65.9259 1.50426 65.9315 1.85425 65.9341 2.28655C65.9824 10.1244 65.9391 14.3847 65.9391 14.3847C65.9428 15.363 66.079 16.3465 66.6172 17.1821C67.0891 17.9141 67.7217 18.4964 68.5815 18.8211C69.2219 19.0633 69.8652 19.1141 70.5197 19.0638C71.6146 18.9798 72.5222 18.5166 73.2449 17.6627C73.6663 17.165 73.9275 16.6012 74.1109 15.9981C74.2129 15.6628 74.2606 15.2982 74.2615 14.9465C74.271 10.8128 74.2674 6.6789 74.2671 2.54497V1.29161ZM4.58364 9.29877H4.58224C4.58224 10.3653 4.59656 11.4319 4.57381 12.4979C4.56651 12.8428 4.69881 12.9108 5.00302 12.9072C5.91199 12.8962 6.82097 12.9086 7.73022 12.9114C8.32235 12.9131 8.84931 12.7439 9.32121 12.3704C10.2043 11.6712 10.5813 10.6968 10.7493 9.6468C10.8563 8.97715 10.763 8.30132 10.5262 7.63166C10.1476 6.55949 9.02431 5.66512 7.85803 5.69349C6.8822 5.71737 5.90497 5.70838 4.92858 5.69349C4.6387 5.689 4.57437 5.79602 4.57802 6.06596C4.59179 7.14347 4.58364 8.22126 4.58364 9.29877ZM0 23.2202V1.29159C0.126122 1.28485 0.243817 1.27249 0.361792 1.27277C3.18085 1.27642 6.00019 1.26181 8.81869 1.30311C9.36138 1.31097 9.90182 1.53316 10.4409 1.66687C11.3931 1.90282 12.1965 2.42781 12.9113 3.0646C13.8119 3.86739 14.4883 4.84575 14.8352 6.01708C14.9956 6.55836 15.1251 7.11173 15.2262 7.66734C15.3037 8.09205 15.3366 8.52828 15.3512 8.96058C15.381 9.84006 15.202 10.6889 14.9748 11.5372C14.7293 12.4549 14.32 13.2836 13.7779 14.0504C12.9737 15.1886 11.9324 16.0242 10.6201 16.527C9.71362 16.8745 8.78217 17.0256 7.81814 17.0192C6.8749 17.013 5.93137 17.0164 4.98841 17.0009C4.69656 16.9961 4.57409 17.0686 4.5769 17.397C4.59263 19.2051 4.58364 21.0135 4.58336 22.8219C4.58308 22.9444 4.58336 23.0668 4.58336 23.2202H0ZM47.7277 5.69568V12.8723C47.7934 12.886 47.8468 12.9074 47.9001 12.9071C48.9439 12.9054 49.9878 12.9054 51.0316 12.8961C51.6307 12.8908 52.1338 12.6332 52.5725 12.2478C53.4891 11.4425 53.7899 10.3518 53.8978 9.2021C53.9579 8.56109 53.8127 7.92374 53.5127 7.34622C52.9717 6.30494 52.1377 5.69989 50.9276 5.69765C50.0521 5.69568 49.1762 5.69625 48.3007 5.69568H47.7277ZM43.1598 1.27524C43.4039 1.27524 43.6162 1.27496 43.8288 1.27524C46.5358 1.27974 49.2431 1.26091 51.9495 1.30698C52.5439 1.31709 53.1537 1.50361 53.7222 1.70529C54.4433 1.96119 55.1076 2.33843 55.7188 2.82466C56.2801 3.27128 56.7337 3.79402 57.1402 4.37126C57.6469 5.09092 57.9374 5.91197 58.2084 6.73584C58.314 7.0569 58.3219 7.41083 58.3685 7.75043C58.4121 8.06981 58.4975 8.39368 58.4767 8.70968C58.4312 9.39507 58.3362 10.0774 58.2494 10.7597C58.1272 11.7161 57.7716 12.5922 57.2924 13.4206C56.477 14.8304 55.3267 15.8717 53.8206 16.4972C52.8517 16.8995 51.8318 17.0396 50.7841 17.0205C49.8521 17.0034 48.9198 17.0126 47.9878 17.0124C47.9108 17.0124 47.8336 17.0278 47.7223 17.0396V23.223H43.1598V1.27524ZM104.925 16.3996C106.811 16.4336 108.591 16.4774 110.406 16.376C109.475 14.2199 108.576 12.1356 107.634 9.95337C106.715 12.1399 105.838 14.2261 104.925 16.3996ZM118.398 23.2492H116.656C115.656 23.2487 114.656 23.2346 113.656 23.2557C113.345 23.2624 113.217 23.1377 113.108 22.8712C112.784 22.0782 112.418 21.3018 112.104 20.5055C112.012 20.2732 111.881 20.2397 111.681 20.2403C110.749 20.244 109.816 20.2448 108.884 20.2462C107.109 20.2487 105.334 20.2588 103.559 20.2462C103.267 20.244 103.213 20.4248 103.136 20.6147C102.809 21.4136 102.495 22.217 102.156 23.0102C102.112 23.1133 101.952 23.2313 101.844 23.2324C100.283 23.2473 98.7216 23.2436 97.1604 23.2433C97.1393 23.2433 97.118 23.2299 97.0447 23.2051C100.574 15.6814 104.1 8.16351 107.626 0.645645C107.659 0.638058 107.691 0.630196 107.723 0.622608C111.271 8.1416 114.818 15.6609 118.398 23.2492ZM97.8535 37.8301C97.7945 39.2961 98.1114 40.6101 98.8246 41.8154C99.4957 42.95 100.455 43.7727 101.676 44.2699C102.591 44.6426 103.548 44.848 104.541 44.8123C105.788 44.7674 106.932 44.3623 107.973 43.6952C108.449 43.3901 108.883 43.0112 109.304 42.6312C109.483 42.4708 109.572 42.4882 109.694 42.6528C110.413 43.6266 111.136 44.5977 111.84 45.5822C111.892 45.6544 111.851 45.8687 111.777 45.9426C110.554 47.1816 109.099 48.0415 107.453 48.6072C106.067 49.083 104.642 49.2271 103.209 49.0875C100.303 48.8047 97.8459 47.5715 95.8499 45.4261C94.8547 44.3567 94.1112 43.1269 93.6005 41.7758C93.3101 41.0081 93.1553 40.1781 93.0283 39.3624C92.9174 38.6489 92.8643 37.9118 92.9081 37.1927C92.9539 36.436 93.1227 35.6835 93.2783 34.9374C93.5134 33.808 94.0056 32.7824 94.6165 31.8088C95.6381 30.1808 96.9864 28.8873 98.6746 27.9825C99.4754 27.5533 100.336 27.2165 101.2 26.9297C101.77 26.7404 102.393 26.6949 102.996 26.6221C103.495 26.5617 104.002 26.5168 104.503 26.535C105.114 26.5575 105.724 26.6334 106.33 26.7238C106.752 26.787 107.166 26.9112 107.583 27.0117C108.411 27.2109 109.167 27.5828 109.883 28.0255C110.421 28.3575 110.924 28.7465 111.443 29.1094C111.619 29.233 111.632 29.3479 111.496 29.5367C110.756 30.5642 110.036 31.6055 109.3 32.6361C109.214 32.7571 109.133 32.9026 108.918 32.7049C108.034 31.8923 107.027 31.3035 105.835 31.0313C104.312 30.6833 102.877 30.876 101.477 31.5496C99.9451 32.2866 98.9476 33.5113 98.3128 35.0327C97.937 35.9332 97.7867 36.9062 97.8535 37.8301ZM39.4876 29.3446C38.6556 30.5078 37.8337 31.6564 36.9854 32.8423C36.7925 32.6949 36.6147 32.5687 36.4481 32.4294C35.4082 31.5601 34.2355 31.0171 32.8684 30.905C30.3726 30.7002 28.3982 31.6179 26.9319 33.635C26.4943 34.237 26.2227 34.9181 25.9887 35.6274C25.5988 36.8072 25.6148 38.0257 25.7746 39.2012C26.0353 41.122 26.914 42.738 28.6417 43.7981C29.4392 44.2877 30.2771 44.6104 31.208 44.6941C31.6299 44.732 32.0535 44.8231 32.4726 44.8048C33.6897 44.7512 34.8102 44.3478 35.827 43.6944C36.3166 43.3801 36.7588 42.9852 37.1927 42.5939C37.4301 42.3798 37.5073 42.5874 37.5939 42.7029C38.0997 43.379 38.5913 44.0658 39.0885 44.7483C39.2677 44.9944 39.4334 45.2528 39.6343 45.4798C39.8337 45.7053 39.7739 45.8627 39.5758 46.0365C38.7767 46.7385 37.9262 47.3598 36.9902 47.8778C35.1133 48.916 33.1026 49.2665 30.9965 49.0775C29.1004 48.9076 27.3496 48.2803 25.7685 47.2022C24.1977 46.1317 22.9505 44.7714 22.0598 43.0891C21.6626 42.3388 21.3792 41.5492 21.1326 40.7341C20.7413 39.442 20.698 38.1282 20.7711 36.8089C20.8067 36.1687 21.0129 35.5381 21.1399 34.9027C21.316 34.0204 21.6719 33.2044 22.1028 32.4246C22.9503 30.8912 24.0879 29.6157 25.521 28.593C26.4676 27.9174 27.5128 27.4556 28.5881 27.0553C29.0181 26.8952 29.4912 26.8525 29.942 26.7461C31.2131 26.4455 32.5021 26.5051 33.7759 26.6452C34.5554 26.7309 35.3273 26.9711 36.0781 27.2163C37.2663 27.6039 38.2638 28.3452 39.2618 29.0724C39.3553 29.141 39.4155 29.2556 39.4876 29.3446ZM16.5773 32.5017C15.8102 32.0396 15.1035 31.5421 14.3366 31.1683C13.19 30.6096 11.9628 30.3556 10.6932 30.6716C9.68418 30.9228 8.93841 31.6587 9.03841 32.7132C9.1106 33.4755 9.61565 34.0101 10.2288 34.4303C11.2628 35.1395 12.4431 35.5499 13.5718 36.0687C15.1625 36.7996 16.6625 37.6757 17.7116 39.142C18.1422 39.7437 18.5251 40.3819 18.5942 41.1358C18.6672 41.9324 18.781 42.7448 18.6973 43.531C18.6082 44.3689 18.2495 45.1602 17.7745 45.877C16.7161 47.4745 15.2279 48.4385 13.3746 48.8669C11.0401 49.4065 8.78673 49.1152 6.61625 48.1579C5.63228 47.7236 4.75982 47.1048 4.00224 46.3267C3.81966 46.1394 3.82949 45.9787 3.93595 45.8088C4.53875 44.847 5.16234 43.8984 5.75756 42.9321C5.89154 42.7144 5.97974 42.6841 6.16935 42.8481C7.1668 43.713 8.26595 44.431 9.54598 44.7714C10.6055 45.0532 11.7013 45.1495 12.7619 44.6998C13.9543 44.1945 14.2529 42.5493 13.3945 41.5642C12.6771 40.7414 11.7378 40.2726 10.7777 39.8252C9.92238 39.4263 9.04402 39.0698 8.21904 38.6162C6.96653 37.9274 5.87975 37.0277 5.1938 35.7395C4.84999 35.0943 4.57106 34.4126 4.56853 33.6573C4.56712 33.1519 4.53117 32.6427 4.58145 32.1424C4.62611 31.6992 4.71881 31.2466 4.87807 30.832C5.24605 29.8747 5.7834 29.0262 6.57917 28.345C7.27579 27.7486 8.04376 27.3116 8.90639 27.0032C9.88502 26.6534 10.8968 26.5287 11.9167 26.5341C12.9361 26.5394 13.9451 26.668 14.9313 26.9953C16.3251 27.4574 17.574 28.1357 18.6439 29.1472C18.7855 29.2812 18.8273 29.3781 18.7242 29.5239C18.0366 30.495 17.3459 31.4635 16.6535 32.4309C16.6172 32.482 16.5594 32.5177 16.5773 32.5017ZM95.2975 19.0732V23.2257H82.6682V1.30693H87.2353C87.2353 1.61479 87.235 1.93529 87.2353 2.25579C87.2361 7.7029 87.2372 13.1503 87.2375 18.5977C87.2375 19.073 87.2358 19.0735 87.7024 19.0735C90.0948 19.0735 92.4872 19.0732 94.8792 19.0732H95.2975ZM47.558 48.8178C47.1858 48.8178 46.8291 48.8181 46.4721 48.8178C45.4277 48.817 44.3828 48.8099 43.3384 48.8198C43.0777 48.8223 42.9923 48.7425 42.9926 48.4731C42.9996 41.3519 42.9991 34.2304 42.9957 27.1091C42.9957 26.9007 43.0204 26.7631 43.2772 26.7642C44.6918 26.7695 46.1066 26.7667 47.558 26.7667V48.8178Z" fill="#ACA09A"/>
</svg>
