<svg width="101" height="36" viewBox="0 0 101 36" fill="none" xmlns="http://www.w3.org/2000/svg">
<path d="M26.1714 8.46943C26.0838 8.02025 26.0112 7.56739 25.9053 7.12249C25.6965 6.24477 25.2154 5.51785 24.5733 4.88802C23.7985 4.12759 22.8563 3.67984 21.7829 3.53372C21.1864 3.45238 20.59 3.53065 19.996 3.68576C19.1102 3.91689 18.3829 4.3904 17.7693 5.02351C17.0281 5.78802 16.5939 6.734 16.4513 7.77256C16.3321 8.64048 16.4058 9.52087 16.752 10.3432C17.1132 11.2011 17.6475 11.9411 18.4165 12.5056C19.0866 12.9977 19.8378 13.3109 20.656 13.4033C21.2972 13.4757 21.9451 13.4442 22.5852 13.2472C23.2592 13.0398 23.8678 12.7318 24.3876 12.2785C25.5394 11.2743 26.1036 9.99723 26.1714 8.46943ZM21.2819 16.6755C19.4801 16.7164 17.893 16.2065 16.4658 15.2407C15.4553 14.5569 14.6499 13.6604 14.0629 12.5989C13.8041 12.1314 13.6395 11.6127 13.4371 11.1153C12.969 9.96412 12.9977 8.75595 13.0579 7.5537C13.0799 7.11391 13.2113 6.67351 13.3385 6.2464C13.4728 5.79558 13.6399 5.3511 13.8304 4.9199C14.3153 3.82432 15.0659 2.92023 15.9805 2.14611C16.6252 1.60047 17.3417 1.16661 18.1374 0.863544C18.7385 0.634457 19.3388 0.399647 19.9933 0.371445C20.7665 0.337929 21.5486 0.233913 22.3116 0.309933C23.1631 0.394745 23.9857 0.663883 24.7766 1.0303C25.9522 1.57513 26.9199 2.36335 27.7249 3.34367C28.2714 4.00927 28.6909 4.76009 28.9888 5.57222C29.1748 6.07944 29.3008 6.59565 29.4008 7.12699C29.5538 7.94014 29.5071 8.7537 29.4592 9.56113C29.4287 10.0775 29.2296 10.5854 29.0974 11.0949C28.9195 11.7813 28.5973 12.4052 28.2139 12.9993C27.6462 13.8791 26.921 14.6058 26.0606 15.2172C25.3623 15.7134 24.602 16.0765 23.7929 16.3318C22.964 16.5934 22.1047 16.7146 21.2819 16.6755ZM62.8989 27.652C62.8989 27.4986 62.9006 27.3451 62.8983 27.1918C62.897 27.1105 62.8842 27.0291 62.8842 26.948C62.8836 24.7415 62.8842 22.5351 62.8842 20.3286C62.8842 20.0184 62.8811 19.7081 62.8829 19.3979C62.8838 19.2449 62.8925 19.1022 63.1144 19.1032C64.1271 19.1079 65.1399 19.1061 66.1526 19.1073C66.1761 19.1073 66.1997 19.1169 66.2481 19.1276C66.252 19.2107 66.2599 19.2974 66.2597 19.384C66.2556 23.8544 66.2512 28.3248 66.2452 32.7954C66.2441 33.6288 66.2373 34.4623 66.2294 35.2957C66.2288 35.3542 66.197 35.4122 66.1796 35.4705C66.1254 35.4484 66.0596 35.4386 66.0189 35.402C65.2823 34.7403 64.545 34.079 63.8151 33.4099C63.027 32.6875 62.2463 31.9571 61.4623 31.2302C60.8865 30.6964 60.313 30.1602 59.7341 29.6298C58.7495 28.7284 57.7611 27.8315 56.7755 26.9313C56.5366 26.7132 56.3048 26.488 56.064 26.272C56.0005 26.2152 55.916 26.1808 55.8141 26.1199C55.8026 26.1966 55.7902 26.2413 55.7902 26.2859C55.7927 27.855 55.7865 29.4243 55.8026 30.9931C55.8157 32.2567 55.8525 33.5202 55.8882 34.7834C55.894 34.9894 55.8485 35.0709 55.6179 35.0679C54.6635 35.0554 53.7087 35.0566 52.7542 35.066C52.5417 35.0681 52.4942 34.9945 52.4944 34.7971C52.4989 29.4768 52.4977 24.1562 52.4981 18.8359C52.4981 18.7487 52.5058 18.6612 52.5118 18.5349C55.9633 21.6038 59.3845 24.6455 62.8057 27.6872C62.8368 27.6755 62.8678 27.6637 62.8989 27.652ZM92.3505 8.71289C93.0957 8.71289 93.8164 8.70308 94.5369 8.71555C95.3161 8.72903 95.9056 8.38101 96.3313 7.77794C96.9235 6.93924 97.0074 5.99653 96.7124 5.04278C96.4719 4.26519 95.6787 3.70708 94.8333 3.69379C94.1535 3.68317 93.4735 3.69155 92.7937 3.69134H92.3505V8.71289ZM97.2521 11.1577C98.3363 12.9215 99.4044 14.6594 100.5 16.4414C100.361 16.4506 100.291 16.4592 100.221 16.4592C99.2081 16.4602 98.1953 16.4494 97.183 16.468C96.953 16.4723 96.8451 16.3829 96.7515 16.2094C96.239 15.2608 95.7248 14.313 95.2088 13.3662C94.9238 12.8432 94.638 12.3205 94.3415 11.8036C94.3025 11.7356 94.1985 11.6643 94.123 11.6624C93.5922 11.65 93.0606 11.6616 92.5296 11.6522C92.3219 11.6483 92.3345 11.7691 92.3349 11.907C92.3374 13.2879 92.3374 14.669 92.3387 16.0498C92.3391 16.4616 92.3397 16.4606 91.9325 16.4604C91.036 16.46 90.1397 16.4602 89.2434 16.4616C88.91 16.462 88.9063 16.4626 88.9065 16.1371C88.9085 13.114 88.9121 10.0907 88.9139 7.06758C88.9154 4.96778 88.9185 2.86797 88.9096 0.768169C88.9085 0.527435 88.9833 0.467354 89.2197 0.468376C91.1368 0.477367 93.0542 0.46204 94.9713 0.478386C96.2879 0.489628 97.4775 0.889969 98.4728 1.75626C99.1682 2.36137 99.6411 3.11198 99.9416 3.98582C100.246 4.87009 100.293 5.7746 100.204 6.67766C100.072 8.01582 99.5435 9.20805 98.5625 10.1647C98.2441 10.4751 97.8447 10.7048 97.4834 10.9729C97.4012 11.0338 97.3233 11.1006 97.2521 11.1577ZM41.7505 22.1114V25.3822H48.2874C48.2971 25.4644 48.3104 25.5263 48.3106 25.588C48.3121 26.479 48.3073 27.37 48.315 28.2608C48.3169 28.4595 48.2502 28.5024 48.052 28.4963C47.4307 28.4775 46.8086 28.484 46.1868 28.4836C44.7188 28.4826 43.2509 28.4834 41.7588 28.4834V32.0407H49.6167C49.6167 32.0865 49.6165 32.1306 49.6161 32.1737C49.6154 32.244 49.615 32.2955 49.615 32.3C49.6144 32.3758 49.6138 33.0968 49.614 35.0691C49.5939 35.0691 49.5737 35.0689 49.5536 35.0689C45.8991 35.0638 42.2443 35.0587 38.5898 35.0536C38.5745 35.0548 38.4935 35.0593 38.4244 35.0005C38.3472 34.9342 38.3472 34.8415 38.3474 34.8284C38.3495 27.1164 38.3495 19.9184 38.3495 19.4039V19.1212H49.6028V22.1114H41.7505ZM96.5488 19.1254V20.2859C96.5488 20.8009 96.5378 21.3161 96.5536 21.8303C96.5609 22.0637 96.4706 22.1207 96.251 22.1199C94.6655 22.1154 93.0801 22.1209 91.4946 22.1221C90.6318 22.1229 89.7687 22.1209 88.9058 22.1217C88.8327 22.1219 88.7597 22.1346 88.6762 22.1424V25.3802H95.2278C95.2328 25.4877 95.2403 25.5738 95.2403 25.66C95.2411 26.5099 95.2318 27.3599 95.2457 28.2096C95.2498 28.4583 95.1568 28.5053 94.9258 28.5043C92.8924 28.4961 90.8589 28.4994 88.8255 28.4996C88.7852 28.4996 88.7447 28.5053 88.6837 28.5098C88.6773 28.5856 88.6665 28.6553 88.6663 28.7248C88.6648 29.7464 88.6717 30.768 88.6588 31.7894C88.6561 32.015 88.7339 32.0579 88.9444 32.0573C91.3765 32.0508 93.8087 32.0534 96.2408 32.0536H96.5247C96.5339 32.1346 96.5472 32.1967 96.5474 32.259C96.5484 33.1169 96.5438 33.975 96.5507 34.8329C96.5521 35.0126 96.4992 35.068 96.3099 35.0675C92.7324 35.0614 89.1549 35.0608 85.5774 35.0663C85.359 35.0665 85.276 35.0234 85.2762 34.7855C85.2828 29.6207 85.2806 24.4559 85.2801 19.2911V19.1254H96.5488ZM54.881 0.486744C56.0126 0.487766 57.1441 0.488586 58.2758 0.489605C58.2795 0.741585 58.2835 0.993561 58.2872 1.24554C58.3038 5.88309 58.2957 9.31246 58.2899 10.6114C58.2891 10.8127 58.2849 11.2753 58.1521 11.8592C57.9458 12.7651 57.5144 13.5901 56.9027 14.3524C56.1505 15.2894 55.1811 15.9221 54.0544 16.3237C53.2154 16.6228 52.3421 16.7087 51.4481 16.6788C50.117 16.6343 48.9241 16.2021 47.86 15.4476C46.9476 14.8006 46.2711 13.9433 45.8233 12.9192C45.4501 12.0656 45.305 11.1775 45.3104 10.2476C45.3283 7.09311 45.3214 3.93839 45.3239 0.78368C45.3241 0.69458 45.3239 0.60548 45.3239 0.494102C46.4542 0.492672 47.5844 0.491035 48.7144 0.489605C48.7171 0.641445 48.7213 0.89608 48.7231 1.21059C48.7588 6.91286 48.7269 10.0124 48.7269 10.0124C48.7296 10.7242 48.8302 11.4396 49.2279 12.0476C49.5767 12.5802 50.0441 13.0038 50.6795 13.2401C51.1528 13.4162 51.6281 13.4532 52.1117 13.4166C52.9209 13.3555 53.5915 13.0185 54.1256 12.3973C54.437 12.0352 54.63 11.625 54.7655 11.1862C54.8409 10.9422 54.8762 10.677 54.8768 10.4211C54.8839 7.41375 54.8812 4.40618 54.881 1.3986V0.486744ZM3.38716 6.31223H3.38612C3.38612 7.08818 3.39671 7.86414 3.3799 8.63969C3.3745 8.89064 3.47227 8.9401 3.69707 8.93744C4.36877 8.92947 5.04047 8.93846 5.71238 8.94051C6.14995 8.94173 6.53935 8.8187 6.88807 8.54691C7.54068 8.03825 7.81924 7.32933 7.94337 6.56543C8.02245 6.07823 7.95354 5.58654 7.77856 5.09935C7.49875 4.3193 6.66867 3.66862 5.80683 3.68926C5.08572 3.70663 4.36358 3.70009 3.64206 3.68926C3.42785 3.68599 3.38031 3.76385 3.38301 3.96024C3.39318 4.74417 3.38716 5.5283 3.38716 6.31223ZM0 16.4405V0.486725C0.0931999 0.481819 0.180173 0.472828 0.267353 0.473034C2.35055 0.475689 4.43395 0.465065 6.51673 0.495106C6.91776 0.500828 7.31712 0.662476 7.71545 0.75975C8.41912 0.931412 9.01278 1.31336 9.54105 1.77665C10.2065 2.36071 10.7064 3.0725 10.9627 3.92468C11.0812 4.31848 11.1769 4.72107 11.2517 5.1253C11.3089 5.43429 11.3332 5.75167 11.344 6.06618C11.366 6.70603 11.2338 7.3236 11.0659 7.94077C10.8845 8.60842 10.582 9.21128 10.1814 9.76919C9.58713 10.5973 8.81766 11.2052 7.84789 11.571C7.17805 11.8238 6.48974 11.9338 5.77735 11.9291C5.08033 11.9246 4.38309 11.927 3.68627 11.9158C3.47061 11.9123 3.3801 11.965 3.38218 12.2039C3.3938 13.5194 3.38716 14.8351 3.38695 16.1508C3.38675 16.2399 3.38695 16.329 3.38695 16.4405H0ZM35.2692 3.69085V8.91206C35.3178 8.92207 35.3572 8.9376 35.3966 8.9374C36.168 8.93617 36.9393 8.93617 37.7107 8.92943C38.1534 8.92555 38.5252 8.73815 38.8494 8.45776C39.5267 7.87186 39.749 7.07833 39.8287 6.24188C39.8731 5.77553 39.7658 5.31184 39.5441 4.89167C39.1444 4.13411 38.5281 3.69392 37.6339 3.69228C36.9869 3.69085 36.3396 3.69126 35.6926 3.69085H35.2692ZM31.8937 0.474831C32.074 0.474831 32.231 0.474628 32.3881 0.474831C34.3885 0.478104 36.389 0.464409 38.389 0.497925C38.8282 0.50528 39.2789 0.640976 39.699 0.787704C40.2318 0.973877 40.7227 1.24834 41.1744 1.60208C41.5891 1.92702 41.9244 2.30733 42.2247 2.72729C42.5992 3.25086 42.8138 3.84821 43.0141 4.4476C43.0922 4.68118 43.098 4.93868 43.1324 5.18575C43.1646 5.41811 43.2277 5.65373 43.2124 5.88364C43.1787 6.38228 43.1086 6.87867 43.0444 7.37506C42.9541 8.07091 42.6914 8.70831 42.3372 9.31097C41.7347 10.3367 40.8846 11.0942 39.7716 11.5493C39.0557 11.842 38.302 11.944 37.5278 11.9301C36.8391 11.9176 36.1501 11.9243 35.4614 11.9241C35.4045 11.9241 35.3475 11.9354 35.2653 11.9439V16.4425H31.8937V0.474831ZM77.5359 11.4783C78.9299 11.5031 80.2449 11.5349 81.5864 11.4612C80.8988 9.8925 80.2343 8.37614 79.5383 6.78847C78.8591 8.37921 78.2111 9.89699 77.5359 11.4783ZM87.4923 16.4617H86.2047C85.4658 16.4613 84.7268 16.451 83.9883 16.4664C83.7585 16.4713 83.6634 16.3805 83.5831 16.1866C83.3438 15.6097 83.0735 15.0448 82.841 14.4655C82.7731 14.2965 82.6766 14.2721 82.5286 14.2726C81.8397 14.2752 81.1507 14.2758 80.4618 14.2768C79.1502 14.2787 77.8385 14.286 76.5269 14.2768C76.3112 14.2752 76.2709 14.4068 76.2139 14.545C75.9729 15.1262 75.7404 15.7106 75.4901 16.2878C75.4577 16.3628 75.3391 16.4486 75.2596 16.4494C74.106 16.4602 72.9521 16.4576 71.7984 16.4574C71.7828 16.4574 71.767 16.4476 71.7129 16.4296C74.3206 10.9558 76.9264 5.48628 79.5323 0.016777C79.5562 0.011261 79.58 0.00553513 79.6041 1.90735e-05C82.2253 5.47034 84.8468 10.9409 87.4923 16.4617ZM72.3106 27.0697C72.267 28.1363 72.5011 29.0923 73.0282 29.9692C73.5241 30.7946 74.2333 31.3932 75.1354 31.7549C75.8113 32.0261 76.5187 32.1755 77.2523 32.1495C78.1741 32.1168 79.0191 31.8221 79.7886 31.3368C80.1404 31.1148 80.4607 30.8392 80.7723 30.5627C80.9041 30.446 80.9705 30.4586 81.0602 30.5784C81.5913 31.2869 82.1258 31.9934 82.6464 32.7097C82.6844 32.7622 82.6541 32.9181 82.5999 32.9719C81.6957 33.8733 80.6207 34.4988 79.4039 34.9104C78.3804 35.2566 77.3274 35.3615 76.2677 35.2599C74.1208 35.0541 72.305 34.157 70.83 32.596C70.0945 31.818 69.5451 30.9234 69.1677 29.9404C68.9531 29.3819 68.8387 28.778 68.7449 28.1845C68.6629 27.6654 68.6237 27.1292 68.6561 26.606C68.6899 26.0555 68.8147 25.508 68.9296 24.9652C69.1034 24.1435 69.4671 23.3974 69.9185 22.6891C70.6735 21.5046 71.6698 20.5635 72.9173 19.9053C73.5091 19.593 74.1447 19.348 74.7832 19.1393C75.2048 19.0016 75.6647 18.9685 76.1108 18.9155C76.4797 18.8716 76.8541 18.8389 77.2244 18.8522C77.6755 18.8685 78.127 18.9237 78.5741 18.9895C78.8865 19.0355 79.1922 19.1258 79.5003 19.199C80.112 19.3439 80.6706 19.6145 81.2003 19.9365C81.5978 20.1781 81.9693 20.4611 82.3527 20.7252C82.4831 20.8151 82.4926 20.8987 82.3922 21.036C81.8454 21.7835 81.3128 22.5411 80.7691 23.2909C80.7054 23.379 80.6454 23.4848 80.4866 23.341C79.8334 22.7498 79.0893 22.3214 78.2085 22.1234C77.0833 21.8702 76.023 22.0104 74.9885 22.5004C73.8562 23.0367 73.1191 23.9277 72.65 25.0345C72.3722 25.6897 72.2612 26.3976 72.3106 27.0697ZM29.1801 20.8963C28.5653 21.7425 27.9579 22.5782 27.331 23.441C27.1884 23.3337 27.057 23.2419 26.934 23.1406C26.1655 22.5081 25.2989 22.113 24.2887 22.0315C22.4444 21.8825 20.9854 22.5502 19.9018 24.0177C19.5784 24.4556 19.3777 24.9512 19.2048 25.4672C18.9167 26.3255 18.9285 27.212 19.0466 28.0673C19.2393 29.4647 19.8885 30.6404 21.1653 31.4116C21.7546 31.7678 22.3738 32.0026 23.0617 32.0635C23.3735 32.0911 23.6865 32.1573 23.9962 32.1441C24.8956 32.105 25.7236 31.8116 26.475 31.3362C26.8368 31.1075 27.1635 30.8202 27.4842 30.5355C27.6596 30.3798 27.7167 30.5308 27.7806 30.6148C28.1545 31.1067 28.5177 31.6064 28.8851 32.103C29.0176 32.282 29.14 32.47 29.2884 32.6351C29.4358 32.7992 29.3916 32.9137 29.2453 33.0402C28.6547 33.5509 28.0262 34.0029 27.3346 34.3798C25.9476 35.1351 24.4618 35.3901 22.9054 35.2526C21.5043 35.129 20.2105 34.6726 19.0421 33.8883C17.8813 33.1095 16.9597 32.1197 16.3015 30.8958C16.008 30.35 15.7985 29.7755 15.6163 29.1825C15.3271 28.2424 15.2952 27.2866 15.3491 26.3267C15.3755 25.861 15.5279 25.4022 15.6217 24.9399C15.7518 24.2981 16.0148 23.7044 16.3332 23.1371C16.9595 22.0215 17.8002 21.0935 18.8592 20.3494C19.5587 19.8579 20.3311 19.5219 21.1257 19.2307C21.4435 19.1142 21.793 19.0832 22.1262 19.0057C23.0654 18.7871 24.018 18.8304 24.9593 18.9324C25.5353 18.9947 26.1057 19.1694 26.6606 19.3478C27.5386 19.6298 28.2757 20.1692 29.0132 20.6982C29.0823 20.7481 29.1267 20.8315 29.1801 20.8963ZM12.2501 23.1931C11.6832 22.8569 11.161 22.495 10.5943 22.223C9.747 21.8165 8.84012 21.6318 7.9019 21.8617C7.1563 22.0444 6.60519 22.5798 6.67909 23.347C6.73244 23.9016 7.10565 24.2905 7.55878 24.5963C8.32285 25.1123 9.19507 25.4108 10.0291 25.7883C11.2046 26.32 12.313 26.9574 13.0883 28.0242C13.4065 28.4619 13.6894 28.9262 13.7405 29.4747C13.7945 30.0543 13.8785 30.6453 13.8167 31.2173C13.7509 31.8269 13.4858 32.4026 13.1348 32.9241C12.3527 34.0863 11.2529 34.7877 9.88338 35.0994C8.15825 35.4919 6.4931 35.28 4.88919 34.5836C4.16207 34.2676 3.51735 33.8174 2.95753 33.2513C2.82261 33.115 2.82987 32.9981 2.90854 32.8745C3.35399 32.1748 3.8148 31.4846 4.25465 30.7816C4.35366 30.6233 4.41884 30.6012 4.55895 30.7205C5.29604 31.3498 6.10827 31.8721 7.05417 32.1198C7.83713 32.3248 8.64687 32.3949 9.43067 32.0677C10.3118 31.7 10.5325 30.5031 9.89812 29.7864C9.36798 29.1878 8.67386 28.8467 7.96438 28.5212C7.33232 28.231 6.68324 27.9717 6.0736 27.6416C5.14804 27.1405 4.34494 26.486 3.83805 25.5488C3.58398 25.0794 3.37786 24.5834 3.37599 24.0339C3.37496 23.6662 3.34839 23.2957 3.38554 22.9317C3.41855 22.6093 3.48705 22.28 3.60474 21.9784C3.87666 21.2819 4.27374 20.6646 4.86179 20.169C5.37657 19.7351 5.94408 19.4171 6.58153 19.1928C7.30471 18.9383 8.05239 18.8476 8.80608 18.8515C9.55936 18.8554 10.305 18.949 11.0337 19.187C12.0637 19.5232 12.9866 20.0167 13.7772 20.7526C13.8818 20.8501 13.9128 20.9206 13.8366 21.0267C13.3285 21.7332 12.818 22.4378 12.3064 23.1416C12.2796 23.1788 12.2368 23.2048 12.2501 23.1931ZM70.4218 13.4235V16.4445H61.0891V0.497883H64.464C64.464 0.721863 64.4638 0.95504 64.464 1.18821C64.4647 5.15117 64.4655 9.11433 64.4657 13.0775C64.4657 13.4233 64.4644 13.4237 64.8092 13.4237C66.5771 13.4237 68.345 13.4235 70.1127 13.4235H70.4218ZM35.1438 35.0637C34.8688 35.0637 34.6052 35.0639 34.3414 35.0637C33.5696 35.063 32.7974 35.0579 32.0257 35.0651C31.833 35.0669 31.7699 35.0089 31.7702 34.8129C31.7753 29.632 31.7749 24.4508 31.7724 19.2699C31.7724 19.1182 31.7907 19.0181 31.9804 19.0189C33.0258 19.0228 34.0713 19.0207 35.1438 19.0207V35.0637Z" fill="#ACA09A"/>
</svg>
