<svg width="48" height="48" viewBox="0 0 48 48" fill="none" xmlns="http://www.w3.org/2000/svg">
<rect width="48" height="48" rx="24" fill="#E40022"/>
<rect width="48" height="48" rx="24" stroke="#E40022"/>
<g clip-path="url(#clip0_665_7293)">
<path d="M21.8906 36C22.6658 36 23.2969 35.369 23.2969 34.5938C23.2969 34.0087 22.9282 33.4786 22.3781 33.274L14.8413 30.5055C14.6079 30.419 14.3621 30.375 14.1094 30.375C12.9462 30.375 12 31.3212 12 32.4844C12 33.5054 12.7285 34.3788 13.7324 34.5601L21.8906 36Z" fill="#F8F7F2"/>
<path d="M33.8906 30.375C33.6386 30.375 33.3928 30.419 33.1593 30.5055L25.6205 33.274C25.0718 33.4786 24.7031 34.0087 24.7031 34.5938C24.7031 35.369 25.3342 36 26.1094 36H26.1416L34.2676 34.5601C35.2715 34.3788 36 33.5054 36 32.4844C36 31.3212 35.0538 30.375 33.8906 30.375Z" fill="#F8F7F2"/>
<path d="M34.5938 26.1562C31.6068 26.1562 28.2188 23.7041 28.2188 20.4844C28.2188 19.7092 27.5877 19.0781 26.8125 19.0781H21.1875C20.4123 19.0781 19.7812 19.7092 19.7812 20.4844C19.7812 23.7041 16.3932 26.1562 13.4062 26.1562C12.631 26.1562 12 26.7873 12 27.5625C12 28.3377 12.631 28.9688 13.4062 28.9688C15.896 28.9688 19.4111 27.8076 21.1429 25.2581C21.1717 25.5555 21.1875 25.8555 21.1875 26.1562C21.1875 28.1589 20.6106 29.7064 20.1351 30.9458L22.8656 31.955C23.3221 32.1248 23.6947 32.4252 23.9994 32.7804C24.3033 32.4258 24.6744 32.1257 25.1288 31.9564L27.8596 30.9473C27.4276 29.8223 26.8125 28.0733 26.8125 26.1562C26.8125 25.8555 26.8283 25.5547 26.8571 25.2581C28.5889 27.8076 32.104 28.9688 34.5938 28.9688C35.369 28.9688 36 28.3377 36 27.5625C36 26.7873 35.369 26.1562 34.5938 26.1562Z" fill="#F8F7F2"/>
<path d="M26.8125 14.8594C26.8125 13.306 25.5533 12 24 12C22.4467 12 21.1875 13.306 21.1875 14.8594C21.1875 16.4127 22.4467 17.6719 24 17.6719C25.5533 17.6719 26.8125 16.4127 26.8125 14.8594Z" fill="#F8F7F2"/>
</g>
<defs>
<clipPath id="clip0_665_7293">
<rect width="24" height="24" fill="white" transform="translate(12 12)"/>
</clipPath>
</defs>
</svg>
