<svg width="48" height="48" viewBox="0 0 48 48" fill="none" xmlns="http://www.w3.org/2000/svg">
<rect width="48" height="48" rx="24" fill="#E40022"/>
<rect width="48" height="48" rx="24" stroke="#E40022"/>
<path fill-rule="evenodd" clip-rule="evenodd" d="M36.509 26.1238C36.5786 25.7632 36.3912 25.4026 36.0567 25.2524C35.7214 25.1021 35.3268 25.2018 35.1045 25.4936C33.6589 27.3852 31.3798 28.607 28.8168 28.607C24.4523 28.607 20.9087 25.0634 20.9087 20.6989C20.9087 17.5135 22.7956 14.7663 25.512 13.5136C25.845 13.3594 26.0292 12.9964 25.9557 12.6366C25.8821 12.2776 25.5705 12.0158 25.2036 12.0048C25.0905 12.0016 24.9766 12 24.8628 12C18.3157 12 13.0006 17.315 13.0006 23.8621C13.0006 30.4092 18.3157 35.7243 24.8628 35.7243C30.6357 35.7243 35.4509 31.5907 36.509 26.1238Z" fill="white"/>
</svg>
