<svg width="49" height="49" viewBox="0 0 49 49" fill="none" xmlns="http://www.w3.org/2000/svg">
<rect x="0.5" y="0.470459" width="48" height="48" rx="24" fill="#EEE8E4"/>
<rect x="0.5" y="0.470459" width="48" height="48" rx="24" stroke="#E40022"/>
<g clip-path="url(#clip0_684_7887)">
<path d="M32.4958 22.4955C32.3002 21.6921 31.9826 20.9235 31.5542 20.2163L32.4167 18.2205L30.75 16.5538L28.7625 17.3871C28.0542 16.9608 27.2859 16.6434 26.4833 16.4455L25.675 14.4705H23.325L22.525 16.4746C21.7224 16.6726 20.9541 16.99 20.2458 17.4163L18.25 16.5538L16.5833 18.2205L17.4167 20.208C16.9882 20.9151 16.6707 21.6838 16.475 22.4871L14.5 23.2955V25.6455L16.5042 26.4455C16.6998 27.2488 17.0174 28.0174 17.4458 28.7246L16.5833 30.7205L18.25 32.3871L20.2375 31.533C20.9437 31.9653 21.7125 32.2858 22.5167 32.483L23.325 34.4705H25.675L26.475 32.4663C27.2792 32.2691 28.048 31.9486 28.7542 31.5163L30.75 32.3871L32.4167 30.7205L31.5833 28.733C32.0118 28.0258 32.3293 27.2571 32.525 26.4538L34.5 25.6455V23.2955L32.4958 22.4955ZM24.5 29.4705C23.5111 29.4705 22.5444 29.1772 21.7221 28.6278C20.8999 28.0784 20.259 27.2975 19.8806 26.3839C19.5022 25.4702 19.4031 24.4649 19.5961 23.495C19.789 22.5251 20.2652 21.6342 20.9645 20.9349C21.6637 20.2357 22.5546 19.7595 23.5245 19.5665C24.4945 19.3736 25.4998 19.4726 26.4134 19.8511C27.327 20.2295 28.1079 20.8704 28.6573 21.6926C29.2068 22.5149 29.5 23.4816 29.5 24.4705C29.5 25.7965 28.9732 27.0683 28.0355 28.006C27.0979 28.9437 25.8261 29.4705 24.5 29.4705ZM24.5 27.5205C23.8968 27.5205 23.3071 27.3416 22.8055 27.0064C22.3039 26.6713 21.913 26.195 21.6822 25.6376C21.4513 25.0803 21.3909 24.4671 21.5086 23.8754C21.6263 23.2838 21.9168 22.7403 22.3433 22.3138C22.7699 21.8872 23.3133 21.5967 23.905 21.4791C24.4966 21.3614 25.1099 21.4218 25.6672 21.6526C26.2245 21.8835 26.7008 22.2744 27.036 22.776C27.3711 23.2775 27.55 23.8672 27.55 24.4705C27.55 25.2794 27.2287 26.0551 26.6567 26.6271C26.0847 27.1991 25.3089 27.5205 24.5 27.5205Z" fill="#E40022"/>
</g>
<defs>
<clipPath id="clip0_684_7887">
<rect width="20" height="20" fill="white" transform="translate(14.5 14.4705)"/>
</clipPath>
</defs>
</svg>
