<svg width="157" height="44" viewBox="0 0 157 44" fill="none" xmlns="http://www.w3.org/2000/svg">
<g clip-path="url(#clip0_458_6594)">
<path d="M4.01407 40.2792L2.22988 43.057H0.334264L-0.00012207 29.168H1.33791C3.67941 35.5015 7.13592 41.5016 14.0494 41.5016C18.9553 41.5016 21.4084 38.5016 21.4084 34.0571C21.4084 30.3904 19.6244 27.7236 15.9448 26.1682C12.8228 24.835 10.7041 24.0571 7.58219 22.6127C3.45663 20.7237 1.0035 17.3906 1.0035 12.1684C1.0035 5.83491 5.90975 1.16824 12.4884 1.16824C15.2759 1.16824 18.8442 2.39053 20.851 4.05721L22.5236 1.39043H24.5307L24.8651 14.946H23.5271C21.2971 8.16801 18.6212 3.05688 11.3733 3.05688C9.81239 3.05688 5.79825 4.50136 5.79825 9.16796C5.79825 12.8345 7.35934 14.8346 10.7045 16.8345C13.3805 18.39 16.1681 19.1679 18.6212 20.3901C23.0812 22.6123 26.4265 25.0567 26.4265 31.1678C26.4265 38.3903 20.9629 43.5014 13.6035 43.5014C8.92059 43.168 5.68651 41.7235 4.01407 40.2792ZM27.7642 28.8349C27.7642 21.5015 32.4472 14.7235 39.918 14.7235C45.4931 14.7235 48.2806 17.9457 48.2806 21.6125C48.2806 23.6126 47.1657 24.9459 45.2701 24.9459C44.1551 24.9459 42.0366 24.2791 42.0366 21.9459C42.0366 19.5014 42.7057 19.3903 42.7057 18.2793C42.3711 16.5015 41.5906 16.1681 39.8065 16.1681C36.5729 16.1681 33.5623 19.2793 33.5623 28.2792C33.5623 35.5013 36.1268 40.5014 40.8098 40.5014C44.4894 40.5014 46.7192 38.6124 48.3921 35.1678L49.6186 36.0568C47.6116 39.9457 43.8202 43.1678 39.5832 43.1678C31.6665 43.1678 27.7638 37.0567 27.7638 28.8343L27.7642 28.8349ZM52.8521 4.27921C52.8521 2.27916 54.4131 0.501465 56.4201 0.501465C58.6501 0.501465 60.0997 2.05697 60.0997 4.05702C60.0997 6.16808 58.5386 7.94578 56.4201 7.94578C54.4131 7.94578 52.8521 6.2791 52.8521 4.27921ZM50.2876 41.1681C51.1795 41.0572 51.96 40.9459 52.7406 40.7237C53.7441 40.3904 54.1901 39.2793 54.1901 38.0571V20.9459C54.0786 19.7237 53.6326 18.6126 52.7406 17.946C52.0715 17.5016 50.3991 16.8349 49.5069 16.8349V15.7238L59.2076 15.057L59.542 15.5014V37.7238C59.542 38.946 60.0996 39.9459 60.9916 40.5015C61.7722 40.9459 62.7756 41.1681 63.4445 41.1681V42.3903H50.3986V41.1681H50.2872L50.2876 41.1681ZM79.1666 25.2792C79.1666 20.946 78.386 16.1683 74.5947 16.1683C71.3613 16.1683 69.0197 19.8349 68.9082 25.5017L79.1666 25.2792ZM63.1102 28.7238C63.1102 21.6127 67.3472 14.7238 74.5947 14.7238C82.0652 14.7238 84.8531 20.0573 84.8531 26.1684V26.724H68.9082V27.3907C68.9082 35.0572 71.1382 40.5018 76.7135 40.5018C80.7276 40.5018 82.1771 38.8351 84.1839 35.1682L85.299 35.835C83.4034 40.0572 79.7239 43.0574 75.264 43.0574C67.0128 43.1685 63.1102 36.6127 63.1102 28.7238ZM85.52 40.908C86.4038 40.7981 87.1772 40.6881 87.9504 40.4683C88.9448 40.1384 89.3867 39.1489 89.3867 37.8295V20.8969C89.2761 19.6875 88.8342 18.4782 87.9504 17.8184C87.3981 17.3787 86.1828 16.9389 85.299 16.8289V15.7294L94.248 15.0696L94.6899 15.5093V19.4677H94.8004C96.8995 17.2687 98.8883 14.6298 103.307 14.6298C108.169 14.6298 110.489 18.3681 110.489 23.9756V37.6094C110.489 38.9286 110.93 39.8084 111.814 40.2481C112.588 40.578 113.25 40.7979 114.245 40.9077V42.1173H101.208V40.9077C102.092 40.7979 102.976 40.6879 103.639 40.468C104.633 40.1381 105.075 39.1486 105.075 37.8293V23.8656C105.075 19.7974 103.087 17.5985 100.877 17.5985C97.2311 17.5985 95.1318 20.0174 94.5796 21.4468V37.4995C94.5796 38.8189 95.0217 39.6985 95.9055 40.1383C96.5683 40.578 97.5627 40.7981 98.3361 40.7981V42.0074H85.4099V40.9079H85.5205L85.52 40.908ZM113.25 28.7038C113.25 21.447 117.89 14.7402 125.292 14.7402C130.816 14.7402 133.578 17.9287 133.578 21.5572C133.578 23.5364 132.474 24.8558 130.596 24.8558C129.491 24.8558 127.392 24.196 127.392 21.8871C127.392 19.4682 128.055 19.3582 128.055 18.2589C127.723 16.4996 126.95 16.1697 125.182 16.1697C121.978 16.1697 118.995 19.2484 118.995 28.1542C118.995 35.3008 121.536 40.2485 126.177 40.2485C129.822 40.2485 132.032 38.3792 133.689 34.9709L134.904 35.8505C132.916 39.6988 129.159 42.8872 124.961 42.8872C117.117 42.8872 113.25 36.8402 113.25 28.7038ZM150.923 25.1853C150.923 20.8974 150.15 16.1693 146.394 16.1693C143.19 16.1693 140.87 19.7976 140.759 25.4053L150.923 25.1855L150.923 25.1853ZM135.014 28.5938C135.014 21.5571 139.212 14.74 146.394 14.74C153.796 14.74 156.557 20.0177 156.557 26.065V26.6148H140.759V27.2746C140.759 34.8613 142.969 40.2488 148.492 40.2488C152.469 40.2488 153.906 38.5996 155.894 34.9712L156.999 35.6309C155.121 39.809 151.475 42.7779 147.056 42.7779C138.77 42.8878 135.014 36.401 135.014 28.5942L135.014 28.5938Z" fill="#ACA09A"/>
</g>
<defs>
<clipPath id="clip0_458_6594">
<rect width="157" height="43" fill="white" transform="translate(0 0.5)"/>
</clipPath>
</defs>
</svg>
