<svg width="48" height="48" viewBox="0 0 48 48" fill="none" xmlns="http://www.w3.org/2000/svg">
<rect width="48" height="48" rx="24" fill="#E40022"/>
<rect width="48" height="48" rx="24" stroke="#E40022"/>
<g clip-path="url(#clip0_665_7304)">
<path d="M19 34.481V36C16.58 36 14.49 34.45 13.77 32.17C12.36 31.24 11.5 29.69 11.5 28C11.5 27.11 11.74 26.26 12.19 25.5C11.74 24.74 11.5 23.89 11.5 23C11.5 21.43 12.25 19.96 13.5 19.02V19C13.5 17.1 14.83 15.51 16.6 15.1C17.01 13.33 18.6 12 20.5 12H20.52C21.62 12 22.5 12.89 22.5 13.98V21.076C22.301 21.102 22.101 21.126 21.902 21.168C18.893 21.802 16.556 24.281 16.088 27.341C15.667 30.099 16.798 32.83 19 34.481ZM29 28.5C29 30.399 28.032 32.136 26.412 33.147C26.158 33.305 26 33.615 26 33.954V36H21V33.955C21 33.614 20.847 33.308 20.6 33.154C18.727 31.992 17.732 29.829 18.066 27.643C18.409 25.404 20.116 23.588 22.315 23.125C23.97 22.775 25.668 23.176 26.963 24.227C28.258 25.277 29 26.835 29 28.5ZM25.5 27H21.5C21.5 27.738 21.905 28.376 22.5 28.723V33H24.5V28.723C25.095 28.377 25.5 27.739 25.5 27ZM35.5 23C35.5 21.43 34.75 19.96 33.5 19.02V19C33.5 17.1 32.17 15.51 30.4 15.1C29.99 13.33 28.4 12 26.5 12H26.48C25.39 12 24.5 12.89 24.5 13.98V21.071C25.852 21.252 27.139 21.796 28.223 22.674C29.989 24.106 31 26.23 31 28.5C31 30.879 29.89 33.071 28 34.481V36C30.42 36 32.51 34.44 33.23 32.17C34.64 31.25 35.5 29.69 35.5 28C35.5 27.11 35.26 26.26 34.81 25.5C35.26 24.74 35.5 23.89 35.5 23Z" fill="#F8F7F2"/>
</g>
<defs>
<clipPath id="clip0_665_7304">
<rect width="24" height="24" fill="white" transform="translate(11.5 12)"/>
</clipPath>
</defs>
</svg>
