<svg width="40" height="41" viewBox="0 0 40 41" fill="none" xmlns="http://www.w3.org/2000/svg">
<rect y="0.888672" width="40" height="40" rx="12" fill="#EEE8E4"/>
<g clip-path="url(#clip0_684_8424)">
<path d="M23.3823 12.8887H20.6859V23.7872C20.6859 25.0858 19.6488 26.1524 18.3582 26.1524C17.0675 26.1524 16.0304 25.0858 16.0304 23.7872C16.0304 22.5119 17.0445 21.4684 18.289 21.422V18.6858C15.5465 18.7321 13.334 20.9814 13.334 23.7872C13.334 26.6162 15.5926 28.8887 18.3812 28.8887C21.1698 28.8887 23.4284 26.593 23.4284 23.7872V18.1988C24.4425 18.9408 25.687 19.3814 27.0007 19.4046V16.6684C24.9726 16.5988 23.3823 14.9292 23.3823 12.8887Z" fill="#E40022"/>
</g>
<defs>
<clipPath id="clip0_684_8424">
<rect width="16" height="16" fill="white" transform="translate(12 12.8887)"/>
</clipPath>
</defs>
</svg>
