<svg width="147" height="46" viewBox="0 0 147 46" fill="none" xmlns="http://www.w3.org/2000/svg">
<g clip-path="url(#clip0_458_6586)">
<path d="M96.8658 11.7158C98.0751 13.0703 100.739 13.007 102.32 14.0008C100.184 14.5349 97.5001 14.5349 95.5664 15.27C96.0202 14.1055 96.4317 12.8941 96.8658 11.7158Z" fill="#ACA09A"/>
<path d="M81.8009 16.4097C81.1666 19.2563 79.8249 22.5132 79.0724 25.6711C83.2018 25.7262 87.5511 24.9113 91.7962 24.658C92.3712 23.9092 92.6531 22.8741 92.9632 21.8665C93.8145 23.042 94.4148 25.2417 93.6143 26.9403C87.1707 26.855 82.5364 32.0086 76.2174 32.0141C73.3874 32.0141 70.9774 30.4284 72.3191 27.3202C74.2161 22.9373 78.9065 19.8707 81.8016 16.4102" fill="#ACA09A"/>
<mask id="mask0_458_6586" style="mask-type:luminance" maskUnits="userSpaceOnUse" x="0" y="0" width="147" height="46">
<path d="M0.75 0.5H146.75V45.5014H0.75V0.5Z" fill="white"/>
</mask>
<g mask="url(#mask0_458_6586)">
<path d="M101.543 6.64196C99.8965 6.84018 98.721 8.59384 97.6443 9.18029C97.7233 9.17203 97.7966 9.15826 97.774 9.05365C97.9685 8.18642 98.3518 7.49546 98.4251 6.51532C89.7776 3.54201 81.3717 7.88907 75.1819 11.2093C70.2322 13.8604 65.8156 16.9824 62.712 20.0909C63.8311 18.2216 65.0206 16.3826 66.3482 14.6344C67.6928 12.8669 69.1923 11.2674 70.3762 9.68717C67.7858 9.02369 65.1953 8.32716 62.5822 7.78484C58.8728 7.01677 53.7146 5.7338 50.6391 7.40492C49.7512 7.88395 49.024 9.07327 48.1727 9.1806C47.4709 9.27146 46.3096 8.7649 45.4442 8.67129C42.2704 8.32716 39.353 8.61623 36.4835 9.1806C33.7972 9.70919 28.1173 10.6397 27.39 13.1119C26.9221 14.6977 27.9593 16.2421 27.7789 17.8059C27.5986 19.3503 26.082 21.3931 25.3125 22.6264C24.3654 24.1351 23.4071 25.4731 21.8032 26.1779C20.8307 21.4564 21.8906 17.2497 22.7137 13.2466C23.2267 10.7799 24.2499 8.24988 23.362 5.76117C20.8871 5.42255 18.8041 7.34142 16.3489 8.29949C11.746 10.0945 6.61609 11.738 5.95944 16.9246C5.59018 19.8428 6.71487 21.7038 7.51822 23.7769C9.23482 28.2285 11.3573 32.0002 13.8829 35.4473C13.1951 36.6806 11.5716 37.0027 11.4137 38.7372C12.1493 39.7531 13.6715 39.8879 15.1795 39.8797C19.5401 39.8714 23.1113 37.7296 26.3447 35.9456C33.3943 32.0776 38.1269 26.1147 43.0994 20.4765C43.9732 19.4826 44.6948 18.2933 45.8279 17.6877C46.9469 22.6982 44.7737 25.374 43.229 29.4765C42.6371 31.0567 40.7542 36.0122 41.6702 38.3524C42.6737 40.9293 51.2256 41.0422 53.4892 39.3738C54.6308 38.5286 55.0846 36.6236 55.6991 35.4397C56.477 33.9173 57.1563 32.5986 57.7765 31.2551C57.8131 36.808 62.0327 38.4432 66.6102 39.6272C76.3207 42.1352 86.1127 37.6532 91.4092 34.5533C90.7468 38.6691 92.3845 39.0849 95.6965 39.7538C104.263 41.48 112.885 39.4868 119.848 37.8515C126.235 36.3483 131.374 35.2857 132.317 29.0968C131.291 28.2378 128.738 28.3424 126.993 28.5902C121.84 29.3225 116.854 31.8663 109.982 31.3817C108.728 31.2881 106.022 30.8669 105.827 30.1126C105.526 28.9425 107.676 28.1249 109.472 27.8303C114.624 26.9769 122.069 27.8358 126.218 26.3051C128.211 25.5728 130.615 23.4529 130.375 21.1046C130.218 19.5189 128.104 18.6957 126.091 18.569C120.411 18.2222 116.349 21.457 110.382 20.3447C111.123 19.4197 111.261 17.9056 112.2 17.1732C116.558 17.0824 120.8 17.9276 124.93 17.6798C130.663 17.3274 133.905 14.968 136.616 11.8434C136.906 11.5048 137.636 11.1469 137.397 10.577C127.415 9.09582 113.829 5.17 101.542 6.64292L101.543 6.64196ZM146.727 7.14852C146.887 7.76245 146.185 8.34883 145.825 8.80038C142.766 12.5473 139.381 16.9878 135.305 19.8287C135.598 21.3236 135.441 23.3031 134.916 24.396C135.982 25.7257 137.115 26.9894 137.772 28.71C136.906 33.2057 134.894 36.6994 131.675 38.9843C128.529 41.2115 124.287 42.0842 119.467 43.1689C110.151 45.2722 94.823 47.337 87.9086 41.9025C80.4279 46.1862 65.3026 46.7588 58.3038 41.6492C53.3232 47.7995 33.7047 47.2571 36.6192 35.0529C32.983 37.7426 27.5993 41.4509 22.4608 43.5518C16.5077 45.9772 5.22991 45.7074 6.35488 37.4621C6.493 36.4821 6.91862 35.9259 7.39498 35.0532C5.6558 32.0854 4.55089 30.0207 3.49953 27.4409C2.48764 24.9659 0.951442 22.1468 0.770971 18.6946C0.396082 11.3438 6.26186 6.67746 12.0711 4.49195C15.0364 3.3715 17.4464 1.75819 20.3839 0.940509C24.7726 -0.279107 28.5386 2.07478 28.82 6.01434C33.9219 4.53593 40.1346 2.90613 46.8743 3.85871C52.2355 -0.215747 62.7125 2.30052 69.5958 4.23863C71.1546 4.67636 73.2489 5.81063 74.4018 5.76109C75.3771 5.71979 77.1444 4.42863 78.1676 3.9854C83.0045 1.89306 89.3184 -0.334108 96.2241 0.813903C97.5291 1.03139 98.7271 1.70862 100.12 1.82977C101.067 1.91236 102.219 1.62329 103.237 1.57649C119.363 0.800104 132.8 5.02876 146.727 7.14859" fill="#ACA09A"/>
</g>
</g>
<defs>
<clipPath id="clip0_458_6586">
<rect width="146" height="45" fill="white" transform="translate(0.75 0.5)"/>
</clipPath>
</defs>
</svg>
