<svg xmlns="http://www.w3.org/2000/svg" style="display: none;">

  <symbol id="arrow-back" viewBox="0 0 17 17">
    <path d="M13.028 7.807H5.582l3.253-3.253a.672.672 0 0 0 0-.947.664.664 0 0 0-.94 0L3.502 8c-.26.26-.26.68 0 .94l4.393 4.394a.664.664 0 1 0 .94-.94L5.582 9.14h7.446a.67.67 0 0 0 .667-.666.67.67 0 0 0-.667-.667z" fill="currentColor"/>
  </symbol>
  
  <symbol id="arrow-forward" viewBox="0 0 17 17">
    <path d="M3.973 9.137h7.447L8.167 12.39a.672.672 0 0 0 0 .947c.26.26.68.26.94 0L13.5 8.944c.26-.26.26-.68 0-.94l-4.387-4.4a.664.664 0 1 0-.94.94l3.247 3.26H3.973a.67.67 0 0 0-.666.666c0 .367.3.667.666.667z" fill="currentColor"/>
  </symbol>
</svg>